<svg width="54" height="54" viewBox="0 0 54 54" fill="none" xmlns="http://www.w3.org/2000/svg">
<path d="M28.0606 0C28.8893 0.144766 29.7275 0.246208 30.5434 0.442751C33.5436 1.17252 36.2444 2.81246 38.2753 5.13758C40.3063 7.4627 41.5678 10.3591 41.8869 13.4294C41.9028 13.5837 41.9355 13.7358 41.9514 13.8362C42.9946 14.0476 44.0083 14.1744 44.9818 14.4502C51.0372 16.1673 54.8571 22.2242 53.835 28.4523C53.4171 31.0652 52.1801 33.4779 50.3024 35.3428C48.4246 37.2077 46.0031 38.4284 43.3868 38.8289C43.1754 38.8606 42.9217 38.9568 42.8002 39.1111C40.7982 41.6661 38.0438 42.9151 34.9891 43.6548C34.2566 43.8334 33.5093 43.9782 32.7694 44.0881C31.6808 44.2476 31.073 44.8404 30.8003 45.9108C30.2507 48.0623 30.1365 50.2432 30.1661 52.4464C30.1851 53.6965 29.867 53.9977 28.6081 53.9977C27.4455 53.9977 26.2828 54.0029 25.1275 53.9977C24.2375 53.9924 23.8316 53.5972 23.8443 52.7011C23.875 50.3405 23.7851 47.9999 23.151 45.7006C22.873 44.6914 22.2927 44.1441 21.278 43.9771C19.331 43.6601 17.4359 43.1487 15.639 42.3139C14.0599 41.5805 12.6478 40.6232 11.4893 39.3076C11.2727 39.0669 10.9838 38.903 10.666 38.8406C8.18202 38.4649 5.86837 37.3515 4.02524 35.6449C2.18211 33.9384 0.894599 31.7174 0.329777 29.2702C0.202939 28.727 0.105698 28.1776 0 27.6313V25.4122C0.0369942 25.2262 0.0782163 25.0413 0.105698 24.8553C0.986159 19.5814 3.95309 16.0849 9.04878 14.4459C10.0075 14.1384 11.0306 14.0349 12.0643 13.8299C12.0834 13.6788 12.1098 13.4886 12.1299 13.3015C12.32 11.5523 12.8211 9.85113 13.6096 8.27807C13.9035 7.68315 14.4647 7.46231 15.0059 7.69689C15.5471 7.93148 15.7595 8.48729 15.5249 9.11285C15.4086 9.42351 15.2532 9.7215 15.1274 10.029C14.6085 11.297 14.2628 12.6126 14.2026 13.9387C15.1401 14.2061 16.0481 14.4164 16.9159 14.7334C17.364 14.8982 17.6357 14.8316 17.9866 14.541C21.3203 11.782 25.1423 10.7644 29.4019 11.4555C31.9017 11.8602 34.1139 12.9201 36.0609 14.5453C36.2342 14.6911 36.5027 14.8908 36.6707 14.8475C37.7161 14.5749 38.7445 14.2388 39.8026 13.9176C39.8052 13.8803 39.8052 13.8429 39.8026 13.8056C39.4485 10.16 37.8398 7.16327 34.9701 4.89985C32.0391 2.58465 28.6747 1.66639 24.9795 2.32471C23.7006 2.55295 22.4798 3.10243 21.2251 3.48706C20.9017 3.58533 20.536 3.68255 20.2178 3.62549C19.7951 3.5494 19.5414 3.20281 19.5033 2.75055C19.4611 2.25285 19.6872 1.87562 20.1259 1.69387C21.0941 1.28599 22.0623 0.859085 23.0664 0.5611C23.968 0.292702 24.9172 0.185977 25.8452 0.00845348L28.0606 0ZM44.281 36.4556C49.3714 35.1718 53.3266 29.4614 51.4187 23.3601C49.532 17.3275 43.132 14.7714 38.1008 16.629C38.2518 16.8233 38.3909 17.0266 38.5173 17.2377C39.0986 18.3345 39.7 19.424 40.2275 20.5472C40.5255 21.1812 40.2581 21.7825 39.7053 22.0076C39.1525 22.2326 38.5944 21.9896 38.2964 21.3461C38.0977 20.9171 37.9518 20.4616 37.7383 20.04C35.3189 15.2849 30.5223 12.7109 25.2247 13.5139C20.7537 14.1913 17.6652 16.7654 15.9033 20.9181C15.3346 22.257 15.1021 23.6719 15.0577 25.1269C15.0365 25.8993 14.5651 26.3727 13.951 26.34C13.3168 26.3062 12.949 25.8211 12.9585 25.0371C12.9705 22.9213 13.4876 20.839 14.4668 18.9633C14.8896 18.1581 15.3959 17.4004 15.899 16.5614C11.9142 15.4128 8.37337 16.1387 5.30814 18.958C2.39194 21.642 1.31911 26.1382 2.71326 29.9084C3.95626 33.2687 6.32706 35.437 9.82671 36.519C9.74744 36.2443 9.69987 36.0773 9.65125 35.9104C9.32827 34.7933 9.24187 33.6211 9.39758 32.4688C9.47262 31.8812 9.85419 31.4818 10.3489 31.4279C10.5961 31.3899 10.8486 31.4471 11.0554 31.5879C11.2621 31.7287 11.4078 31.9427 11.4629 32.1866C11.725 33.1862 12.4015 33.7653 13.357 33.9449C14.1473 34.0956 14.9536 34.145 15.7563 34.0918C16.8038 34.0179 17.8365 33.7072 18.8818 33.6618C20.0086 33.6121 21.1438 33.7526 22.317 33.8118C22.3064 33.8509 22.335 33.7864 22.3403 33.7209C22.669 30.1049 23.9384 26.8398 26.0016 23.8652C26.6157 22.9787 27.4021 22.9818 28.0173 23.8652C29.6099 26.1678 30.7092 28.7745 31.2463 31.522C31.4144 32.3589 31.5338 33.2063 31.6786 34.0675C31.7923 34.0659 31.9056 34.0563 32.0179 34.039C33.3487 33.7357 34.6604 33.8604 35.9922 34.0961C37.1802 34.3074 38.383 34.5377 39.5859 34.5546C40.8986 34.5737 42.0381 34.1098 42.4672 32.6526C42.594 32.2299 42.965 32.0186 43.4058 32.0123C43.8466 32.0059 44.1975 32.2183 44.3571 32.6347C44.4629 32.8944 44.5144 33.1731 44.5082 33.4536C44.4511 34.4479 44.3592 35.4402 44.281 36.4556ZM11.7504 35.6156C11.929 36.0192 12.0379 36.3087 12.1817 36.5793C13.1329 38.383 14.6772 39.538 16.4814 40.3833C18.2276 41.2054 20.0921 41.6154 21.9777 41.9768C23.5431 42.278 24.635 43.2184 25.0503 44.7474C25.4139 46.0789 25.6391 47.4547 25.8272 48.8241C25.9646 49.8227 25.9424 50.8434 25.9911 51.8473H28.0574C28.0574 51.6486 28.0574 51.4922 28.0574 51.3348C28.0277 49.278 28.2766 47.2267 28.7973 45.2367C29.2571 43.4836 30.3479 42.4132 32.1395 42.0666C33.0189 41.8997 33.9046 41.7549 34.7714 41.5383C36.8198 41.0216 38.7382 40.229 40.2962 38.7381C41.0387 38.0278 41.6141 37.1616 41.981 36.202C41.6121 36.314 41.3331 36.4134 41.0456 36.4852C39.4506 36.8846 37.8746 36.6966 36.3019 36.3309C34.9394 36.0139 33.578 35.7878 32.1892 36.1576C30.2866 36.6648 28.9675 37.8779 28.05 39.5739C27.8386 39.9638 27.5871 40.2639 27.1125 40.3284C26.3726 40.434 25.9498 40.2227 25.6179 39.5485C24.1646 36.6374 21.6014 35.3017 18.4305 35.8385C16.2288 36.2126 14.0345 36.6427 11.7504 35.6177V35.6156ZM26.8652 37.2809C27.5998 36.6289 28.3936 35.8914 29.2286 35.2056C29.478 34.9995 29.5753 34.8326 29.5457 34.5145C29.383 32.4287 28.894 30.3813 28.0965 28.447C27.7847 27.6989 27.4095 26.9761 27.0205 26.1508C25.4055 28.875 24.5377 31.6741 24.4014 34.6941C24.4026 34.8438 24.4608 34.9874 24.5641 35.0957C25.3474 35.8523 26.138 36.5919 26.8683 37.283L26.8652 37.2809Z" fill="#9EC400"/>
<path d="M18.1435 5.17799C18.1436 5.45283 18.0359 5.71675 17.8437 5.91316C17.6514 6.10957 17.3899 6.22282 17.1151 6.22862C16.8409 6.22559 16.5784 6.11742 16.3817 5.92644C16.185 5.73545 16.0692 5.47623 16.0581 5.2023C16.0675 4.92838 16.1792 4.66792 16.3711 4.47226C16.563 4.27661 16.8213 4.15996 17.095 4.14532C17.3683 4.15184 17.6289 4.26225 17.8237 4.45409C18.0185 4.64594 18.1328 4.9048 18.1435 5.17799Z" fill="#9EC400"/>
<path d="M41.0505 25.2857C41.048 25.5587 40.9411 25.8205 40.7515 26.0171C40.562 26.2137 40.3043 26.3302 40.0315 26.3426C39.4703 26.3553 38.9566 25.8374 38.9629 25.2656C38.9647 25.1256 38.9943 24.9874 39.0499 24.8589C39.1056 24.7304 39.1862 24.6143 39.2871 24.5172C39.388 24.4202 39.5071 24.3441 39.6376 24.2935C39.7682 24.2429 39.9075 24.2187 40.0474 24.2223C40.1834 24.2252 40.3175 24.2551 40.4419 24.3103C40.5662 24.3655 40.6784 24.4449 40.7717 24.5439C40.8651 24.6428 40.9378 24.7594 40.9857 24.8867C41.0335 25.0141 41.0555 25.1497 41.0505 25.2857Z" fill="#9EC400"/>
</svg>
