<svg width="54" height="54" viewBox="0 0 54 54" fill="none" xmlns="http://www.w3.org/2000/svg">
<path d="M0 24.8907C0.371112 23.8793 0.60091 22.7781 1.14107 21.8736C2.45119 19.6738 4.49032 18.4512 7.04716 18.3878C10.6658 18.2954 14.2871 18.3535 17.9085 18.3587C18.5978 18.3587 19.0667 18.7984 19.0773 19.3913C19.0905 20.0185 18.5952 20.4595 17.8371 20.4608C14.48 20.4661 11.1232 20.4661 7.76693 20.4608C4.35825 20.4661 2.11309 22.7107 2.11309 26.0923C2.11309 31.2752 2.11309 36.4582 2.11309 41.6412C2.11309 44.9699 4.37674 47.2383 7.69429 47.241C9.78626 47.241 11.8769 47.2476 13.9689 47.241C14.4813 47.241 14.8352 47.4271 15.1918 47.814C15.9723 48.663 16.8308 49.4407 17.7209 50.3082C17.7209 49.6929 17.7209 49.1199 17.7209 48.5574C17.7288 47.6331 18.1171 47.2489 19.0482 47.2476C22.651 47.2476 26.2538 47.2476 29.8567 47.2476C33.1491 47.2476 35.4299 44.9752 35.4326 41.7019C35.4326 39.5013 35.4326 37.305 35.4326 35.1132C35.4247 34.9026 35.4402 34.6918 35.4788 34.4847C35.5251 34.2536 35.6495 34.0456 35.8312 33.8955C36.0128 33.7454 36.2406 33.6623 36.4762 33.6603C36.7119 33.6583 36.941 33.7374 37.1252 33.8844C37.3094 34.0314 37.4373 34.2373 37.4876 34.4675C37.5254 34.6387 37.5423 34.8138 37.5378 34.989C37.5378 37.309 37.5549 39.6289 37.5378 41.9475C37.5087 45.5126 35.1777 48.4016 31.7056 49.178C31.104 49.302 30.4907 49.3609 29.8765 49.3536C26.5563 49.3694 23.2348 49.3615 19.8274 49.3615V50.7743C19.8274 51.3711 19.7983 51.9706 19.8353 52.5661C19.8736 53.2104 19.665 53.6911 19.0891 54H18.4565C18.1052 53.6897 17.7381 53.394 17.4 53.0652C16.2629 51.9442 15.1482 50.8007 13.9992 49.6942C13.7889 49.5028 13.5186 49.3903 13.2346 49.376C11.1822 49.347 9.12724 49.4183 7.07754 49.3364C4.50089 49.2334 2.45515 48.0543 1.13447 45.8374C0.598269 44.9171 0.369791 43.8225 0 42.8124V24.8907Z" fill="#F8B32D"/>
<path d="M37.3752 0.0105053C39.5675 -0.0489123 41.7334 0.12934 43.8003 0.916293C48.91 2.86123 52.2725 6.46193 53.5285 11.7765C54.8927 17.5453 53.2723 22.535 48.9747 26.619C48.4874 27.0811 48.2629 27.5116 48.2827 28.185C48.3303 29.817 48.292 31.4516 48.3012 33.0863C48.3012 33.6144 48.1916 34.0739 47.6593 34.301C47.106 34.5374 46.682 34.2852 46.2964 33.9049C45.1553 32.7588 44.0037 31.6259 42.8706 30.4719C42.7836 30.3683 42.6684 30.2922 42.539 30.2529C42.4095 30.2135 42.2715 30.2125 42.1415 30.2501C38.7012 30.8786 35.2515 30.9671 31.8547 30.0573C28.1568 29.0683 25.2725 26.8884 23.1765 23.6943C21.2499 20.8214 20.394 17.3631 20.7584 13.9235C21.1744 9.59258 23.1118 6.05525 26.4928 3.34053C29.3679 1.03249 32.696 -0.0119414 36.3702 0.0105053H37.3752ZM46.1894 30.8245C46.1894 29.7365 46.266 28.8003 46.1696 27.8813C46.0376 26.6824 46.5262 25.9232 47.4282 25.1587C49.9587 23.0196 51.3797 20.2178 51.7706 16.9366C52.2012 13.3174 51.2886 10.0323 49.0276 7.1657C46.9317 4.50907 44.2005 2.82558 40.8393 2.34628C39.2321 2.11653 37.5839 2.14294 35.9528 2.12841C34.1011 2.10029 32.2676 2.49735 30.5935 3.28903C26.3105 5.32904 23.6573 8.67491 22.9639 13.3795C22.2322 18.3454 23.9346 22.4717 27.795 25.6591C30.015 27.4918 32.6207 28.424 35.5025 28.5204C37.7661 28.5917 40.0377 28.7026 42.2485 28.0464C42.8996 27.8523 43.3975 27.9883 43.8597 28.4781C44.5808 29.2373 45.3363 29.9728 46.1868 30.8245H46.1894Z" fill="#F8B32D"/>
<path d="M17.82 34.8002H7.17132C6.99501 34.8068 6.81846 34.8006 6.64305 34.7817C6.38407 34.7591 6.143 34.6402 5.96738 34.4486C5.79175 34.2569 5.69434 34.0065 5.69434 33.7465C5.69434 33.4866 5.79175 33.2362 5.96738 33.0445C6.143 32.8529 6.38407 32.734 6.64305 32.7114C6.81842 32.6919 6.99501 32.6857 7.17132 32.6929H28.6813C29.5358 32.6929 30.0442 33.089 30.0442 33.7492C30.0442 34.4094 29.5358 34.8055 28.68 34.8055L17.82 34.8002Z" fill="#F8B32D"/>
<path d="M15.7995 40.7049H7.15698C6.96404 40.7123 6.77082 40.7017 6.57984 40.6733C6.33168 40.6371 6.10509 40.5121 5.94216 40.3215C5.77922 40.1309 5.69101 39.8876 5.69392 39.6369C5.69682 39.3862 5.79064 39.1451 5.95795 38.9583C6.12526 38.7715 6.35469 38.6518 6.60362 38.6214C6.7422 38.6011 6.88226 38.5927 7.02227 38.5963C12.8711 38.5963 18.7204 38.5963 24.5702 38.5963C25.4128 38.5963 25.916 39.0214 25.8909 39.6896C25.8658 40.2917 25.4115 40.6917 24.7022 40.6997C23.5783 40.7115 22.4571 40.6997 21.3292 40.6997L15.7995 40.7049Z" fill="#F8B32D"/>
<path d="M14.4997 26.7881H21.7225C21.8988 26.7809 22.0754 26.787 22.2508 26.8065C22.5098 26.8292 22.7508 26.9481 22.9265 27.1397C23.1021 27.3314 23.1995 27.5818 23.1995 27.8417C23.1995 28.1016 23.1021 28.3521 22.9265 28.5437C22.7508 28.7354 22.5098 28.8542 22.2508 28.8769C22.0754 28.8958 21.8988 28.902 21.7225 28.8954H7.06558C6.2111 28.8954 5.70264 28.4993 5.70264 27.8391C5.70264 27.1789 6.2111 26.7828 7.0669 26.7828C9.5445 26.7845 12.0221 26.7863 14.4997 26.7881Z" fill="#F8B32D"/>
<path d="M30.044 39.6315C30.0476 39.8383 29.9898 40.0415 29.8779 40.2155C29.766 40.3894 29.605 40.5263 29.4154 40.6088C29.2257 40.6913 29.0158 40.7157 28.8122 40.6789C28.6086 40.6422 28.4205 40.5459 28.2717 40.4022C28.1229 40.2586 28.02 40.0741 27.976 39.872C27.9321 39.6699 27.9491 39.4593 28.0248 39.2669C28.1006 39.0744 28.2317 38.9087 28.4016 38.7908C28.5716 38.6729 28.7727 38.6079 28.9795 38.6042C29.2538 38.6095 29.5161 38.7183 29.7135 38.9089C29.911 39.0994 30.029 39.3576 30.044 39.6315Z" fill="#F8B32D"/>
<path d="M36.5828 17.2747C36.5828 16.8706 36.5723 16.4653 36.5828 16.0625C36.584 15.6555 36.7139 15.2593 36.954 14.9306C37.1941 14.6019 37.532 14.3576 37.9193 14.2325C38.0831 14.1731 38.2522 14.1255 38.4172 14.0648C38.9438 13.8782 39.3863 13.5094 39.6646 13.025C39.9429 12.5407 40.0387 11.9728 39.9347 11.424C39.8255 10.8774 39.5275 10.3865 39.093 10.0373C38.6584 9.68803 38.1149 9.5026 37.5575 9.5134C37.0004 9.52949 36.4676 9.74469 36.0557 10.1199C35.6437 10.4952 35.38 11.0057 35.3123 11.5587C35.2912 11.7145 35.2674 11.8716 35.2357 12.0261C35.1129 12.615 34.6837 12.9398 34.1039 12.8857C33.5756 12.8355 33.2019 12.413 33.1794 11.8492C33.1147 10.0455 34.5001 8.13491 36.2487 7.62392C39.3061 6.72342 42.1535 8.91395 42.0729 12.1027C42.0293 13.8034 40.8314 15.4684 39.1938 16.0163C38.7738 16.1563 38.6576 16.3491 38.6814 16.7597C38.7157 17.338 38.7025 17.919 38.6814 18.4987C38.6603 19.2249 38.2257 19.7029 37.6182 19.7002C37.0107 19.6976 36.5921 19.2196 36.5775 18.4907C36.5696 18.088 36.5775 17.684 36.5775 17.2799L36.5828 17.2747Z" fill="#F8B32D"/>
<path d="M38.6719 22.7925C38.672 23.0668 38.5655 23.3304 38.3747 23.5276C38.1839 23.7247 37.9239 23.8399 37.6497 23.8488C37.5134 23.8536 37.3774 23.8313 37.2498 23.7831C37.1221 23.735 37.0053 23.662 36.9061 23.5685C36.8068 23.4749 36.7271 23.3626 36.6716 23.238C36.6161 23.1134 36.5858 22.979 36.5826 22.8427C36.5796 22.5679 36.6839 22.3027 36.8733 22.1036C37.0626 21.9044 37.3222 21.7868 37.5969 21.7758C37.8721 21.7757 38.1369 21.8811 38.3369 22.0702C38.5368 22.2593 38.6567 22.5178 38.6719 22.7925Z" fill="#F8B32D"/>
</svg>
