<svg width="54" height="54" viewBox="0 0 54 54" fill="none" xmlns="http://www.w3.org/2000/svg">
<path d="M43.2 47.6521C43.2004 47.3197 43.1094 46.9935 42.937 46.7094C42.7645 46.4252 42.5172 46.1939 42.2222 46.0408C41.9271 45.8877 41.5957 45.8187 41.264 45.8413C40.9324 45.8639 40.6134 45.9772 40.3418 46.1689C36.4202 48.9384 31.735 50.4209 26.9341 50.4114C14.0656 50.3943 3.55957 39.8672 3.58857 27.0263C3.62153 14.146 14.1552 3.64524 26.996 3.69139C33.0303 3.7099 38.8234 6.06265 43.1618 10.2568C43.5014 10.5858 43.9559 10.7693 44.4287 10.7683C44.7927 10.7681 45.1483 10.6584 45.4491 10.4534C45.75 10.2484 45.9822 9.95767 46.1156 9.61895C46.249 9.28023 46.2773 8.90922 46.197 8.55415C46.1167 8.19908 45.9315 7.87638 45.6653 7.62801C43.599 5.70672 41.1539 4.04295 38.33 2.6367C34.4574 0.708899 30.1412 -0.152519 25.8253 0.141045C15.7083 0.775176 8.13164 5.56609 3.16406 14.3978C1.31836 17.6792 0.352002 21.2559 0.0896484 25.0172C0.0814366 25.1061 0.0664517 25.1942 0.0448242 25.2808C0.015042 25.4106 5.29367e-06 25.5432 0 25.6763L0 28.5135C0.000154832 28.5893 0.00544033 28.6651 0.0158203 28.7402C0.147656 29.7408 0.234668 30.7481 0.424512 31.7368C2.05796 40.2732 6.70254 46.6448 14.2976 50.8359C17.608 52.6632 21.1887 53.6572 24.9684 53.9143C25.0343 53.9194 25.0996 53.9304 25.1635 53.9472C25.3055 53.9819 25.4511 53.9996 25.5973 54H28.4172C28.4944 54 28.5715 53.9947 28.6479 53.9842C29.6328 53.8523 30.6255 53.7666 31.5998 53.5821C35.713 52.806 39.3249 51.3299 42.4354 49.1537C42.6725 48.987 42.8659 48.7654 42.9991 48.5078C43.1322 48.2503 43.2011 47.9644 43.2 47.6745V47.6521Z" fill="#F8B32D"/>
<path d="M26.6373 26.5162H27.2556C28.9695 26.5162 30.6939 26.5162 32.413 26.5162C33.4993 26.5228 34.2956 27.2808 34.3088 28.2867C34.322 29.2926 33.5046 30.0942 32.3972 30.0981C29.9064 30.1061 27.4156 30.1061 24.9247 30.0981C23.7949 30.0981 23.054 29.348 23.0513 28.2076C23.0434 24.3316 23.0434 20.4557 23.0513 16.5797C23.0513 15.4828 23.8107 14.7182 24.8404 14.7195C25.87 14.7208 26.6307 15.4947 26.6307 16.5876C26.6426 19.691 26.6307 22.7958 26.6307 25.9005L26.6373 26.5162Z" fill="#00B5D6"/>
<path d="M47.2301 43.7102C48.2196 43.7102 49.0218 42.908 49.0218 41.9185C49.0218 40.929 48.2196 40.1269 47.2301 40.1269C46.2406 40.1269 45.4385 40.929 45.4385 41.9185C45.4385 42.908 46.2406 43.7102 47.2301 43.7102Z" fill="#00B5D6"/>
<path d="M51.1222 35.8791C52.1117 35.8791 52.9139 35.077 52.9139 34.0875C52.9139 33.098 52.1117 32.2958 51.1222 32.2958C50.1327 32.2958 49.3306 33.098 49.3306 34.0875C49.3306 35.077 50.1327 35.8791 51.1222 35.8791Z" fill="#00B5D6"/>
<path d="M52.1188 27.8108C53.1083 27.8108 53.9104 27.0086 53.9104 26.0191C53.9104 25.0296 53.1083 24.2275 52.1188 24.2275C51.1293 24.2275 50.3271 25.0296 50.3271 26.0191C50.3271 27.0086 51.1293 27.8108 52.1188 27.8108Z" fill="#00B5D6"/>
<path d="M50.3888 18.4275C51.3767 18.4275 52.1776 17.6266 52.1776 16.6387C52.1776 15.6508 51.3767 14.85 50.3888 14.85C49.4009 14.85 48.6001 15.6508 48.6001 16.6387C48.6001 17.6266 49.4009 18.4275 50.3888 18.4275Z" fill="#00B5D6"/>
</svg>
