<svg width="54" height="54" viewBox="0 0 54 54" fill="none" xmlns="http://www.w3.org/2000/svg">
<path d="M0 1.91423C0.483179 0.504265 1.48053 0 2.94979 0C11.5061 0.0338055 20.0639 0.0211284 28.6203 0.0070428C28.8627 -0.00282095 29.1044 0.0400561 29.3286 0.132712C29.5529 0.225368 29.7543 0.365594 29.9191 0.543705C32.9891 3.63503 36.0699 6.71602 39.1615 9.78668C39.3287 9.93731 39.4607 10.1229 39.5482 10.3303C39.6356 10.5378 39.6762 10.7619 39.6672 10.9868C39.6432 12.832 39.6672 14.6772 39.6517 16.521C39.6517 16.8534 39.7306 17.0478 40.0405 17.2253C43.6016 19.3226 45.8527 22.3863 46.7599 26.4274C46.7967 26.5807 46.8216 26.7366 46.8346 26.8937C46.8656 27.3388 46.6754 27.6458 46.2274 27.7388C45.7795 27.8318 45.4386 27.6162 45.3076 27.1613C45.1329 26.5556 45.016 25.9302 44.8159 25.3302C43.0297 19.9861 37.7725 16.5421 32.1025 16.9915C29.7514 17.1861 27.505 18.0495 25.6288 19.4797C23.7526 20.9099 22.3249 22.8471 21.5145 25.0626C20.7041 27.278 20.5447 29.6791 21.0552 31.9823C21.5657 34.2854 22.7247 36.3943 24.3954 38.0599C26.0661 39.7255 28.1786 40.8782 30.4835 41.3818C32.7883 41.8855 35.1891 41.719 37.4024 40.9021C39.6156 40.0851 41.5488 38.6519 42.9736 36.7716C44.3983 34.8914 45.2551 32.6426 45.4428 30.2911C45.4921 29.6742 45.802 29.3291 46.288 29.3544C46.7951 29.3798 47.0783 29.777 47.0233 30.4179C46.8432 32.6833 46.1109 34.8702 44.8906 36.7874L46.8163 38.7354C47.4121 38.4692 47.5981 38.5058 48.1545 39.0622C49.721 40.6271 51.2917 42.1864 52.8497 43.7598C53.9527 44.8739 54.2696 46.2107 53.7695 47.6854C53.2807 49.1306 52.22 49.9546 50.7099 50.1589C49.5829 50.311 48.5588 50.018 47.7446 49.2278C46.0316 47.5629 44.3553 45.8599 42.6649 44.1725C42.2789 43.7865 42.2944 43.3682 42.5818 42.9724L40.6871 41.0807C40.6608 41.0841 40.6349 41.0898 40.6096 41.0976C39.8306 41.3793 39.6235 41.9075 39.6348 42.74C39.6968 45.5148 39.6165 48.2925 39.6742 51.0674C39.7052 52.5393 39.1615 53.5253 37.7528 54H1.8975C1.44724 53.8687 1.03735 53.626 0.7057 53.2944C0.37405 52.9627 0.131341 52.5529 0 52.1027L0 11.9305C0.281737 11.6037 0.570518 11.2967 1.06638 11.491C1.56223 11.6854 1.58618 12.0897 1.58618 12.5334C1.58618 25.4133 1.58618 38.2931 1.58618 51.173C1.58618 52.2266 1.78199 52.4182 2.854 52.4182H36.8554C37.8782 52.4182 38.074 52.2196 38.074 51.1829V42.4343C37.1893 42.6456 36.3497 42.8949 35.4904 43.0372C34.6944 43.1709 33.8888 43.2401 33.0816 43.2442C27.3539 43.2611 21.6247 43.2541 15.8956 43.2527C15.7547 43.2589 15.6136 43.2565 15.473 43.2456C15.2852 43.2367 15.1078 43.1566 14.977 43.0216C14.8462 42.8866 14.7717 42.7068 14.7687 42.5188C14.7464 42.341 14.791 42.1612 14.8938 42.0144C14.9966 41.8676 15.1503 41.7642 15.3251 41.7244C15.5122 41.6797 15.7049 41.6626 15.897 41.6737C19.2187 41.6737 22.5399 41.6737 25.8607 41.6737H26.4002C25.4662 40.9553 24.5478 40.2369 23.6124 39.5439C23.4462 39.4534 23.2572 39.4137 23.0686 39.4298C20.7316 39.4228 18.3946 39.4298 16.0576 39.4298C15.8984 39.4298 15.7392 39.4383 15.5829 39.4228C15.08 39.3763 14.7644 39.0664 14.7616 38.6312C14.7616 38.172 15.0898 37.8494 15.6294 37.8466C17.5452 37.8354 19.461 37.8466 21.3768 37.8396H22.0304C21.7712 37.4508 21.5684 37.1508 21.3726 36.8536C20.4857 35.4957 19.8598 33.9843 19.5272 32.3969C19.4455 32.011 19.2821 31.9307 18.9271 31.9391C17.9269 31.9602 16.924 31.9391 15.9224 31.9391C15.7814 31.9446 15.6402 31.9408 15.4998 31.9278C15.2959 31.9117 15.106 31.818 14.9692 31.666C14.8324 31.514 14.7591 31.3153 14.7644 31.1109C14.7664 31.0093 14.7887 30.9092 14.8299 30.8164C14.8711 30.7236 14.9305 30.6399 15.0045 30.5704C15.0785 30.5008 15.1657 30.4468 15.2609 30.4114C15.3561 30.376 15.4575 30.36 15.5589 30.3643C16.5605 30.3489 17.5621 30.3643 18.5637 30.3573H19.1652V28.0712H15.9576C15.149 28.0712 14.7701 27.8219 14.7644 27.2909C14.7588 26.7598 15.1476 26.4908 15.9435 26.4894L19.3173 26.4795C19.3689 26.4703 19.4195 26.4557 19.468 26.4359C19.9106 24.3977 20.7955 22.4815 22.06 20.8228H15.9632C15.7702 20.8228 15.5251 20.8763 15.3998 20.7819C15.1546 20.6016 14.8363 20.341 14.8123 20.0945C14.7884 19.848 15.0617 19.5212 15.2871 19.3269C15.4279 19.2043 15.7223 19.2381 15.9477 19.2367C18.3016 19.2367 20.657 19.2438 23.0109 19.2198C23.313 19.1974 23.6024 19.0888 23.8448 18.9071C24.7013 18.3014 25.5352 17.6563 26.4326 16.9802H15.9182C15.7257 16.9902 15.5328 16.9736 15.3448 16.9309C15.1711 16.8819 15.0198 16.774 14.917 16.6257C14.8141 16.4774 14.7661 16.2979 14.7811 16.118C14.796 15.9382 14.8731 15.7691 14.9991 15.6399C15.1251 15.5106 15.2922 15.4292 15.4716 15.4097C15.5591 15.4007 15.6471 15.3975 15.735 15.3998H33.3436C34.8386 15.4132 36.3213 15.6711 37.7331 16.1632C37.8288 16.1956 37.9289 16.2168 38.0585 16.2506V11.4093H37.495C35.2777 11.4093 33.0628 11.4093 30.8502 11.4093C29.2274 11.4093 28.2653 10.4431 28.2625 8.81759C28.2625 6.62211 28.2625 4.4257 28.2625 2.22834V1.59872H2.77652C1.79044 1.59872 1.58336 1.81282 1.58336 2.8129C1.58336 4.79756 1.58336 6.78363 1.58336 8.7697C1.58336 9.22466 1.51715 9.63456 1.03538 9.79513C0.553614 9.95571 0.239477 9.68667 0 9.2965V1.91423ZM47.3318 40.5666L44.3961 43.5048C45.9105 45.0542 47.4051 46.6614 48.9885 48.1756C49.7576 48.9123 51.0494 48.7306 51.8058 47.9502C52.5623 47.1699 52.6778 45.8951 51.934 45.1204C50.431 43.564 48.8659 42.0808 47.3318 40.5666ZM29.843 2.88473V3.25518C29.843 5.09758 29.843 6.93998 29.843 8.78238C29.843 9.56554 30.1008 9.82753 30.877 9.82894C32.7365 9.82894 34.5964 9.82894 36.4568 9.82894C36.555 9.82435 36.6529 9.81353 36.7498 9.79654L29.843 2.88473ZM43.9679 38.3805L42.2113 40.144L43.7172 41.7272L45.5118 39.9313L43.9679 38.3805Z" fill="#DA0C67"/>
<path d="M12.436 18.138C12.436 18.7014 12.4487 19.2649 12.436 19.8212C12.4079 20.8382 11.688 21.5862 10.6724 21.6101C9.51442 21.6373 8.35648 21.6373 7.19854 21.6101C6.19696 21.589 5.46727 20.8932 5.43205 19.886C5.3912 18.6944 5.38979 17.4999 5.43205 16.3097C5.47008 15.3012 6.19837 14.6194 7.21122 14.5997C8.35037 14.5762 9.49047 14.5762 10.6315 14.5997C11.7077 14.6208 12.4191 15.3688 12.4374 16.4534C12.4445 17.0154 12.436 17.576 12.436 18.138ZM10.847 18.0901C10.847 17.5999 10.8358 17.1041 10.847 16.6182C10.8569 16.3097 10.747 16.1688 10.4244 16.1717C9.4252 16.181 8.42644 16.181 7.42816 16.1717C7.11965 16.1717 6.9816 16.2773 6.98442 16.5942C6.99428 17.5929 6.99287 18.5916 6.98442 19.5902C6.98442 19.8903 7.07598 20.041 7.40703 20.0367C8.40578 20.0255 9.40454 20.0241 10.4033 20.0367C10.7597 20.0367 10.8569 19.8818 10.8456 19.5564C10.847 19.0705 10.847 18.5803 10.847 18.0901Z" fill="#DA0C67"/>
<path d="M12.4358 40.5849C12.4358 41.1286 12.4443 41.6723 12.4358 42.216C12.4147 43.2724 11.7174 44.0232 10.6665 44.0471C9.50859 44.081 8.35065 44.0781 7.19271 44.0471C6.18128 44.0204 5.46426 43.3302 5.42904 42.3203C5.38819 41.1469 5.3896 39.9694 5.42904 38.7989C5.45721 37.7495 6.19818 37.0537 7.26456 37.0452C8.36897 37.0321 9.47385 37.0321 10.5792 37.0452C11.6822 37.0593 12.4105 37.8002 12.4344 38.9059C12.4443 39.4623 12.4358 40.0243 12.4358 40.5849ZM6.99972 40.5046C6.99972 41.0117 7.01099 41.5202 6.99972 42.0287C6.98845 42.371 7.13073 42.4907 7.46741 42.4851C8.44785 42.4719 9.42877 42.4719 10.4102 42.4851C10.7567 42.4851 10.8666 42.3442 10.8623 42.0118C10.8464 41.0314 10.8464 40.0506 10.8623 39.0693C10.8623 38.7214 10.7215 38.6101 10.3947 38.6157C9.40858 38.6284 8.43236 38.6298 7.45191 38.6157C7.09833 38.6157 6.98986 38.7566 6.99972 39.0876C7.00958 39.5581 6.99972 40.0313 6.99972 40.5046Z" fill="#DA0C67"/>
<path d="M8.89159 32.7138C8.34643 32.7138 7.80127 32.7223 7.25752 32.7138C6.20805 32.6955 5.46426 32.0335 5.42623 30.9996C5.38397 29.8065 5.38397 28.605 5.42623 27.4162C5.46426 26.4006 6.19396 25.7386 7.21526 25.7259C8.35817 25.709 9.50062 25.709 10.6426 25.7259C11.6977 25.7442 12.4133 26.4753 12.4288 27.5373C12.4429 28.6642 12.4429 29.791 12.4288 30.9179C12.4133 31.9701 11.6794 32.6955 10.6285 32.7194C10.0509 32.7237 9.47197 32.7124 8.89159 32.7138ZM6.99832 31.1292C8.24501 31.1292 9.40154 31.1376 10.5567 31.1151C10.6567 31.1151 10.8384 30.9024 10.8384 30.7869C10.8609 29.7516 10.8638 28.7163 10.8384 27.681C10.8142 27.5961 10.7686 27.5189 10.706 27.4567C10.6433 27.3945 10.5657 27.3495 10.4806 27.3261C9.44521 27.2965 8.40982 27.3162 7.37444 27.3049C7.05326 27.3049 6.99409 27.4669 6.99691 27.7275C6.99691 28.2712 6.99691 28.8149 6.99691 29.3586L6.99832 31.1292Z" fill="#DA0C67"/>
<path d="M43.4675 29.3262C43.4379 33.6674 40.6741 37.5959 36.6128 39.0326C34.5905 39.7631 32.3901 39.8419 30.3207 39.2581C28.2512 38.6743 26.4165 37.4571 25.0743 35.7774C24.6362 35.2337 24.615 34.7562 25.0151 34.4379C25.4152 34.1195 25.8603 34.2534 26.3111 34.7844C28.6721 37.5423 31.6542 38.6438 35.1858 37.7804C38.754 36.9057 40.9459 34.5407 41.6939 30.9376C42.8702 25.2865 38.006 20.0241 32.2445 20.6551C27.724 21.1495 24.3291 24.9076 24.4009 29.398C24.4136 30.1953 24.6488 30.9869 24.7446 31.7926C24.7799 32.0884 24.7939 32.4476 24.6573 32.6828C24.5488 32.8701 24.1488 33.049 23.953 32.9871C23.8049 32.9336 23.6692 32.8506 23.5542 32.743C23.4392 32.6355 23.3472 32.5058 23.2838 32.3617C22.6768 30.5318 22.6278 28.5627 23.143 26.7049C24.4108 22.0031 28.7467 18.8014 33.5292 19.0268C35.9115 19.1219 38.1874 20.0389 39.9701 21.622C41.7528 23.205 42.9324 25.3564 43.3083 27.7106C43.3956 28.2374 43.4168 28.7839 43.4675 29.3262Z" fill="#DA0C67"/>
<path d="M32.1258 28.0051C32.9498 27.2289 33.7542 26.4965 34.5304 25.7345C35.6249 24.6611 37.1336 24.5893 38.1451 25.5936C39.1565 26.5979 39.1058 28.0853 38.0521 29.1728C36.7683 30.4968 35.4813 31.8166 34.1909 33.1322C32.9893 34.3534 31.5834 34.3563 30.3508 33.1505C29.7226 32.5364 29.083 31.9279 28.466 31.3109C27.3968 30.2531 27.3391 28.746 28.3251 27.7402C29.3112 26.7345 30.7805 26.7627 31.8652 27.767C31.9764 27.8572 32.0722 27.9543 32.1258 28.0051ZM37.2731 27.4895C37.2886 26.8683 36.9012 26.4303 36.4279 26.488C36.1407 26.5317 35.874 26.663 35.6644 26.8641C34.7994 27.7093 33.974 28.5924 33.1287 29.4587C32.4075 30.1982 32.1159 30.2038 31.389 29.4981C31.1876 29.3023 30.9904 29.1037 30.7833 28.9136C30.3381 28.5051 29.8367 28.4811 29.4774 28.8431C29.1182 29.2051 29.1309 29.7193 29.5577 30.1447C30.2283 30.8142 30.9068 31.4748 31.5933 32.1265C32.0553 32.566 32.5287 32.5618 32.9794 32.1054C34.3092 30.756 35.6306 29.3991 36.9435 28.0346C37.0758 27.8675 37.1866 27.6844 37.2731 27.4895Z" fill="#DA0C67"/>
</svg>
