<svg width="54" height="43" viewBox="0 0 54 43" fill="none" xmlns="http://www.w3.org/2000/svg">
<path d="M0 33.0895V2.82392C0.554062 0.705293 1.96875 -0.00890002 3.87422 8.35352e-05C13.5914 0.0464986 23.3086 0.0210452 33.0258 0.0225424C35.1984 0.0225424 36.4894 1.40152 36.4922 3.72077C36.4922 6.01657 36.4922 8.31237 36.4922 10.6082V11.2295H37.1419C39.7603 11.2295 42.3787 11.249 44.9972 11.2295C46.5328 11.2146 47.6002 11.9123 48.2794 13.3721C50.1769 17.4477 52.0838 21.5182 54 25.5838V33.0895C53.6948 34.2379 53.1113 35.1363 52.0552 35.6483C51.9539 35.6978 51.8977 35.9478 51.8906 36.1095C51.8359 37.5165 51.3748 38.8712 50.5702 39.9889C50.4942 40.0937 50.4295 40.2135 50.3381 40.3752C51.1327 40.3752 51.8541 40.4111 52.5698 40.3647C53.2209 40.3228 53.6878 40.5594 54 41.1598V41.832C53.685 42.4309 53.2139 42.6286 52.5656 42.6286C35.5219 42.6136 18.4781 42.6136 1.43437 42.6286C0.7875 42.6286 0.309375 42.4399 0 41.832V41.1598C0.307969 40.5504 0.783281 40.3512 1.43297 40.3632C3.38203 40.3976 5.33109 40.3752 7.28156 40.3752H7.94531C6.92124 39.1324 6.34336 37.5439 6.31406 35.8909C5.23547 35.8909 4.185 35.9089 3.13594 35.8909C2.00109 35.8654 1.10109 35.3414 0.500625 34.3158C0.28125 33.934 0.163125 33.4953 0 33.0895ZM34.3828 33.651V3.75222C34.3828 2.62029 34.0383 2.26394 32.9484 2.26394H3.53391C2.44687 2.26394 2.10938 2.61729 2.10938 3.7612V24.6794C3.09375 24.6794 4.02469 24.6794 4.95141 24.6794C5.96812 24.6794 6.32531 25.0537 6.32812 26.1138C6.32812 27.4034 6.32812 28.6921 6.32812 29.9797C6.32812 31.0113 5.95969 31.4006 4.99219 31.4036C4.04859 31.4036 3.105 31.4036 2.10938 31.4036C2.10938 31.712 2.10938 31.9696 2.10938 32.2256C2.10938 33.2542 2.47922 33.6435 3.44813 33.645C4.36219 33.645 5.27625 33.627 6.18891 33.6555C6.55734 33.666 6.71625 33.5387 6.88078 33.1749C8.03109 30.6295 9.95484 29.2011 12.6239 29.1862C15.3169 29.1712 17.2645 30.5921 18.4219 33.1659C18.6005 33.5612 18.7847 33.6555 19.1616 33.654C24.0469 33.642 28.9317 33.6395 33.8161 33.6465L34.3828 33.651ZM36.5147 33.651C37.4344 33.651 38.295 33.6315 39.1542 33.66C39.4917 33.6705 39.6281 33.5387 39.7673 33.2228C40.8698 30.7194 42.7317 29.297 45.3291 29.1952C47.9756 29.0903 49.9331 30.4124 51.2114 32.8724C51.293 33.0222 51.3675 33.1898 51.4463 33.3471L51.615 33.3725C51.7064 33.0416 51.8681 32.7122 51.8766 32.3798C51.9089 31.1281 51.8892 29.8764 51.8892 28.6247V26.9208H51.2536C47.4567 26.9208 43.6598 26.9208 39.863 26.9208C38.9911 26.9208 38.5973 26.5106 38.5973 25.5912C38.5973 22.7504 38.5973 19.9111 38.5973 17.0733C38.5973 16.1181 38.9813 15.7168 39.8869 15.7153C42.0666 15.7153 44.2463 15.7153 46.4259 15.7153H47.0025C46.7662 15.2018 46.5539 14.7765 46.3711 14.3378C46.1123 13.7165 45.6891 13.4605 45.0422 13.4649C42.3534 13.4859 39.6647 13.4739 36.9745 13.4754C36.8227 13.4754 36.6708 13.4949 36.5105 13.5069L36.5147 33.651ZM17.3995 40.3363H40.6969C40.3453 39.643 39.9262 38.9887 39.6717 38.27C39.4172 37.5514 39.3075 36.7309 39.1261 35.9164H18.997C18.962 37.5423 18.3973 39.1047 17.3995 40.3363ZM51.1692 24.6674C51.1637 24.5957 51.1505 24.5249 51.1298 24.4563C50.1581 22.3886 49.192 20.3179 48.1992 18.2607C48.1381 18.1725 48.0593 18.0999 47.9686 18.0481C47.8779 17.9963 47.7775 17.9666 47.6747 17.9612C45.4781 17.9417 43.2816 17.9477 41.0864 17.9507C40.9742 17.9561 40.8624 17.9691 40.7517 17.9897V24.6615L51.1692 24.6674ZM12.6562 31.4051C11.8246 31.4072 11.0123 31.6715 10.3216 32.1647C9.63098 32.6579 9.09304 33.3579 8.7757 34.1763C8.45836 34.9947 8.37584 35.8949 8.53855 36.7632C8.70127 37.6315 9.10193 38.4291 9.68996 39.0552C10.278 39.6812 11.027 40.1078 11.8426 40.2811C12.6581 40.4543 13.5036 40.3665 14.2722 40.0286C15.0409 39.6907 15.6983 39.1179 16.1616 38.3826C16.6248 37.6473 16.8731 36.7823 16.875 35.8969C16.875 34.7056 16.4305 33.5631 15.6394 32.7207C14.8482 31.8783 13.7751 31.4051 12.6562 31.4051ZM41.3438 35.8565C41.3363 36.7447 41.5763 37.6154 42.0336 38.3584C42.4908 39.1015 43.1448 39.6834 43.9126 40.0308C44.6805 40.3782 45.5279 40.4753 46.3476 40.31C47.1674 40.1446 47.9226 39.7242 48.518 39.1018C49.1133 38.4795 49.522 37.6832 49.6923 36.8136C49.8626 35.944 49.7869 35.0401 49.4747 34.2163C49.1626 33.3925 48.6281 32.6857 47.9387 32.1853C47.2494 31.685 46.4362 31.4134 45.6019 31.4051C45.0477 31.3996 44.498 31.5103 43.9841 31.7311C43.4702 31.9518 43.0021 32.2782 42.6067 32.6915C42.2113 33.1049 41.8962 33.5972 41.6795 34.1402C41.4628 34.6833 41.3487 35.2665 41.3438 35.8565ZM4.185 29.1517V26.9612H2.15156V29.1517H4.185Z" fill="#00B5D6"/>
<path d="M22.4636 6.74667C24.6053 6.74667 26.747 6.7302 28.8874 6.76314C29.2234 6.76314 29.6552 6.91287 29.8605 7.15542C30.0658 7.39798 30.122 7.87111 30.0756 8.21848C30.0152 8.67814 29.6411 8.92219 29.2024 8.97609C28.975 8.99433 28.7468 8.99832 28.5189 8.98807H16.3028C16.1453 8.98807 15.9864 8.98807 15.8289 8.98807C15.2186 8.95064 14.7841 8.50146 14.77 7.89806C14.7658 7.74816 14.7902 7.59891 14.8418 7.45935C14.8933 7.31979 14.971 7.19283 15.07 7.08616C15.169 6.97949 15.2873 6.89532 15.4177 6.83877C15.5482 6.78222 15.6881 6.75445 15.8289 6.75715C16.847 6.73619 17.8652 6.75715 18.8833 6.75715L22.4636 6.74667Z" fill="#00B5D6"/>
<path d="M24.5656 13.4754C23.1271 13.4754 21.6885 13.4754 20.2499 13.4754C19.475 13.4754 18.9997 13.0532 18.9842 12.3749C18.9688 11.6966 19.4652 11.2295 20.2639 11.2295C23.1411 11.2295 26.0183 11.2295 28.8955 11.2295C29.6661 11.2295 30.1471 11.6562 30.1611 12.3285C30.171 13.0262 29.6717 13.4754 28.8814 13.4754C27.4428 13.4754 26.0042 13.4754 24.5656 13.4754Z" fill="#00B5D6"/>
<path d="M12.6566 7.8622C12.6579 8.08461 12.597 8.3024 12.4815 8.48774C12.3661 8.67308 12.2013 8.81756 12.0083 8.90272C11.8154 8.98787 11.6029 9.00984 11.3982 8.96581C11.1934 8.92177 11.0056 8.81374 10.8588 8.65552C10.712 8.49729 10.6129 8.29606 10.574 8.07753C10.5351 7.859 10.5584 7.63309 10.6407 7.42869C10.723 7.22428 10.8607 7.05064 11.0362 6.92997C11.2117 6.8093 11.4169 6.74707 11.6258 6.75123C11.8989 6.75967 12.1583 6.87983 12.3503 7.08675C12.5423 7.29366 12.652 7.57139 12.6566 7.8622Z" fill="#00B5D6"/>
<path d="M14.7656 35.8954C14.7656 36.3401 14.6417 36.7747 14.4094 37.1443C14.1772 37.5138 13.8472 37.8017 13.4612 37.9714C13.0752 38.141 12.6505 38.1849 12.2411 38.0974C11.8317 38.0099 11.4558 37.7949 11.1612 37.4798C10.8666 37.1646 10.6665 36.7635 10.5862 36.3271C10.5059 35.8908 10.5491 35.4389 10.7103 35.0287C10.8714 34.6185 11.1433 34.2685 11.4915 34.023C11.8397 33.7774 12.2485 33.6475 12.6661 33.6496C13.2238 33.6523 13.7578 33.8902 14.1513 34.3111C14.5447 34.7319 14.7656 35.3016 14.7656 35.8954Z" fill="#00B5D6"/>
<path d="M47.6719 35.8819C47.6738 36.3265 47.5518 36.7618 47.3212 37.1325C47.0906 37.5032 46.7618 37.7927 46.3766 37.9643C45.9913 38.1359 45.5669 38.1818 45.157 38.0964C44.7472 38.0109 44.3704 37.7978 44.0744 37.4842C43.7785 37.1705 43.5766 36.7703 43.4944 36.3344C43.4122 35.8984 43.4534 35.4463 43.6127 35.0353C43.7721 34.6244 44.0425 34.273 44.3896 34.0257C44.7367 33.7785 45.1449 33.6465 45.5625 33.6465C46.1202 33.6465 46.6553 33.8817 47.0506 34.3006C47.4459 34.7195 47.6693 35.2881 47.6719 35.8819Z" fill="#00B5D6"/>
</svg>
