<svg width="54" height="54" viewBox="0 0 54 54" fill="none" xmlns="http://www.w3.org/2000/svg">
<path d="M8.10283 29.6885H6.29639V29.0977C6.29639 20.682 6.29639 12.2653 6.29639 3.84754C6.30388 1.52194 7.815 0.00902865 10.1371 0.00752923C19.2468 0.00752923 28.3575 0.00752923 37.4692 0.00752923C37.6926 -0.00161611 37.9153 0.03744 38.1222 0.122043C38.3292 0.206647 38.5155 0.334815 38.6685 0.497839C41.5108 3.35573 44.3592 6.20462 47.2135 9.04452C47.3768 9.19722 47.5049 9.38358 47.589 9.5907C47.6731 9.79781 47.7113 10.0207 47.7007 10.2441C47.6842 12.4752 47.6932 14.7063 47.6932 16.9375V17.4188C48.3574 17.0529 48.975 16.5761 49.6736 16.3542C51.1127 15.9044 52.6314 16.5386 53.4394 17.7936C53.8465 18.4088 54.0407 19.1405 53.9922 19.8766C53.9438 20.6127 53.6553 21.3126 53.171 21.869C52.5459 22.5888 51.8383 23.2395 51.1637 23.9172C50.1053 24.9788 49.0365 26.0314 47.9916 27.105C47.8272 27.2712 47.7263 27.4898 47.7067 27.7228C47.6902 32.203 47.6947 36.6833 47.6962 41.1635C47.6962 41.219 47.7097 41.273 47.7277 41.4079H48.3139C49.8325 41.4079 51.3496 41.4079 52.8682 41.4079C53.6748 41.4079 53.9896 41.7258 53.9911 42.534C53.9911 44.7831 53.9911 47.0323 53.9911 49.2814C53.9911 50.0866 53.6718 50.4044 52.8637 50.4044H28.1207C27.3156 50.4044 27.0053 50.0866 27.0008 49.2769C26.9963 48.4672 27.0008 47.6725 27.0008 46.8283H22.5454V45.0125H26.9993C26.9993 44.1504 26.9993 43.3512 26.9993 42.5505C26.9993 41.7048 27.3066 41.4004 28.1536 41.4004H45.8523V29.2552C45.6754 29.4186 45.527 29.546 45.3891 29.684C42.5647 32.5059 39.7479 35.3368 36.907 38.1422C36.5998 38.4344 36.2215 38.6412 35.8097 38.742C34.4799 39.0554 33.1352 39.3043 31.795 39.5652C30.9975 39.7151 30.4848 39.1918 30.6422 38.3851C30.9015 37.0626 31.1399 35.7341 31.4517 34.4237C31.5552 33.9954 31.7686 33.6016 32.0709 33.2811C36.5223 28.7978 40.9877 24.3291 45.467 19.8748C45.6154 19.7388 45.7316 19.5715 45.8073 19.3851C45.883 19.1986 45.9163 18.9976 45.9048 18.7967C45.8853 16.3602 45.8958 13.9236 45.8958 11.4856V10.8048H45.2587C43.6831 10.8048 42.1105 10.8153 40.5334 10.8048C38.4691 10.7868 36.916 9.22895 36.901 7.16275C36.8875 5.40393 36.901 3.64362 36.901 1.80983H10.2301C8.78344 1.80983 8.10283 2.49356 8.10283 3.9465V29.6885ZM52.1531 48.5707V43.2267H50.3857V44.9571H48.5717V43.2357H46.7728V44.9676H44.9813V43.2447H43.1749V44.9586H41.3849V43.2327H39.577V44.9706H37.787V43.2417H35.9791V44.9616H34.1711V43.2312H32.3812V44.9526H30.5732V43.2402H28.8267V48.5707H52.1531ZM47.7382 20.3006L33.8233 34.2122C34.5339 34.92 35.2835 35.6682 35.9641 36.3444L49.867 22.4373L47.7382 20.3006ZM38.697 3.19379C38.697 4.53427 38.6895 5.82227 38.697 7.11177C38.7075 8.24683 39.4615 8.99654 40.6114 9.00403C41.7612 9.01153 42.932 9.00403 44.0923 9.00403C44.2179 8.9978 44.343 8.98479 44.4671 8.96505L38.697 3.19379ZM49.0754 18.8222L51.3781 21.1238C51.9358 20.6815 52.3345 20.1012 52.1456 19.284C52.0862 18.9779 51.9363 18.6966 51.7153 18.4765C51.4942 18.2565 51.2123 18.1079 50.9059 18.05C50.0888 17.8641 49.5132 18.2674 49.0754 18.8222ZM32.66 37.5469L34.0422 37.268L32.9403 36.0775C32.8429 36.5858 32.7605 37.0221 32.66 37.5469Z" fill="#DA0C67"/>
<path d="M0 40.4843C0 36.3989 0 32.3129 0 28.2265C0 27.7287 0.0509703 27.2804 0.581661 27.0675C1.11235 26.8546 1.43166 27.147 1.76297 27.4798C10.0052 35.7236 18.2504 43.9664 26.4985 52.2082C26.8433 52.5531 27.1522 52.9009 26.9228 53.4362C26.6934 53.9715 26.2407 53.9955 25.7475 53.9955C17.5952 53.9955 9.44249 53.9955 1.28925 53.9955C0.266844 53.9955 0.00899475 53.7301 0.00899475 52.6895C0.00299825 48.6221 0 44.5537 0 40.4843ZM23.6997 52.1797L1.83943 30.3107V52.1797H23.6997Z" fill="#DA0C67"/>
<path opacity="0.5" d="M35.9963 22.0534C35.9963 23.6263 35.9858 25.2022 35.9963 26.7751C35.9963 27.3329 35.7879 27.6852 35.2737 27.9117C32.6892 29.0497 30.1167 30.2193 27.5232 31.3363C27.182 31.4668 26.8046 31.4668 26.4633 31.3363C23.8683 30.2193 21.2958 29.0527 18.7099 27.9147C18.2226 27.7002 17.9873 27.3779 17.9888 26.8351C17.9988 23.6503 17.9988 20.4651 17.9888 17.2793C17.9888 16.765 18.1927 16.4306 18.6589 16.2297C21.2869 15.0602 23.8938 13.8861 26.5203 12.7451C26.8289 12.6279 27.1697 12.6279 27.4782 12.7451C30.1047 13.8816 32.7147 15.0572 35.3322 16.2162C35.7984 16.4216 36.0053 16.7575 36.0008 17.2658C35.9873 18.8672 35.9963 20.4596 35.9963 22.0534ZM19.8222 18.5253V26.4272L26.099 29.2117C26.099 26.6776 26.087 24.2636 26.1095 21.8435C26.1095 21.4252 25.9956 21.2183 25.6073 21.0518C23.8534 20.3021 22.1144 19.5104 20.3694 18.7367C20.2045 18.6648 20.0336 18.6063 19.8222 18.5253ZM27.946 21.2692V29.1727C28.1214 29.1067 28.2458 29.0677 28.3612 29.0227C30.1602 28.225 31.9486 27.4169 33.7581 26.6372C34.1044 26.4872 34.2168 26.3058 34.2078 25.9279C34.1883 23.6413 34.1988 21.3547 34.1973 19.0681C34.1973 18.9092 34.1793 18.7487 34.1658 18.5163L27.946 21.2692ZM21.1219 17.1024C23.1248 17.993 24.9792 18.8267 26.8441 19.6334C26.994 19.6979 27.2414 19.6094 27.4168 19.5329C29.0823 18.8057 30.7313 18.065 32.3804 17.3258C32.5048 17.2703 32.6202 17.1908 32.8166 17.0784C30.8917 16.2222 29.0538 15.4005 27.2099 14.5923C27.0753 14.5406 26.9263 14.5406 26.7916 14.5923C24.9522 15.399 23.1113 16.2192 21.1219 17.1024Z" fill="#F8B32D"/>
<path d="M26.1392 6.33203H27.8706V10.7589H26.1392V6.33203Z" fill="#F8B32D"/>
<path d="M27.8841 34.2362V38.6541H26.1392V34.2362H27.8841Z" fill="#F8B32D"/>
<path d="M15.8502 15.3987L15.0737 17.0162L11.3169 15.2173C11.5807 14.6611 11.8251 14.1439 12.0874 13.5922L15.8502 15.3987Z" fill="#F8B32D"/>
<path d="M15.0683 27.9867C15.3276 28.5204 15.569 29.0196 15.8493 29.5997L12.088 31.3987L11.3145 29.7751L15.0683 27.9867Z" fill="#F8B32D"/>
<path d="M38.9053 17.0102C38.6325 16.439 38.3941 15.9368 38.1333 15.3881L41.8916 13.5892C42.1495 14.1304 42.3953 14.6386 42.6666 15.2067L38.9053 17.0102Z" fill="#F8B32D"/>
<path d="M11.6755 3.63611V5.3661H9.93506V3.63611H11.6755Z" fill="#DA0C67"/>
<path d="M13.5254 5.37807V3.64508H15.2689V5.37807H13.5254Z" fill="#DA0C67"/>
<path d="M18.866 5.39759H17.145V3.64661H18.866V5.39759Z" fill="#DA0C67"/>
<path d="M9.90362 48.5976C8.76279 48.5976 7.62046 48.5976 6.47962 48.5976C5.74055 48.5976 5.40775 48.2692 5.40625 47.5405C5.40625 45.2389 5.40625 42.9373 5.40625 40.6342C5.40625 40.2024 5.54567 39.8665 5.95793 39.6821C6.37019 39.4976 6.72098 39.6416 7.02381 39.943L14.0472 46.9677C14.347 47.2676 14.4969 47.608 14.326 48.0308C14.1551 48.4537 13.7804 48.6036 13.3291 48.6006C12.1868 48.5916 11.046 48.5976 9.90362 48.5976ZM11.1374 46.7818L7.23968 42.8743V46.7818H11.1374Z" fill="#DA0C67"/>
</svg>
