<svg width="155" height="55" viewBox="0 0 155 55" fill="none" xmlns="http://www.w3.org/2000/svg">
<g clip-path="url(#clip0_314_790)">
<path d="M101.921 39.7717C95.5109 44.4041 87.9385 49.2523 79.8025 54.3523L79.4855 54.5319C79.3799 54.6037 79.345 54.7477 79.4151 54.891C79.4855 54.9987 79.6268 55.0343 79.7673 54.9628L80.0494 54.8192C86.9523 51.1561 94.9122 46.7747 102.872 42.2856C102.907 42.2493 102.942 42.2493 103.013 42.2138C102.555 41.4596 102.168 40.6336 101.921 39.7717ZM143.904 5.11593C133.831 -6.2325 68.9898 3.96672 41.4121 10.1078L40.7781 10.2515C40.6372 10.2874 40.5664 10.3951 40.5664 10.5388C40.602 10.6824 40.7073 10.7542 40.8482 10.7542L41.4825 10.6106C64.3054 6.48061 111.818 0.734576 122.067 11.0774C125.202 14.2378 124.427 18.2959 120.835 23.0723C122.772 24.3652 124.18 26.3763 124.814 28.8902C138.903 19.3015 148.377 10.1796 143.904 5.11593Z" fill="white"/>
<path d="M106.007 36.791C106.148 40.7773 108.613 44.045 111.854 44.045C118.123 44.045 120.765 36.216 120.589 30.9731C120.448 26.9868 117.911 23.7187 114.707 23.7187C109.282 23.7187 105.831 31.5118 106.007 36.791ZM102.696 36.5755C102.45 29.7521 107.697 22.8209 115.305 22.8209C120.377 22.8209 123.722 26.2685 123.899 31.5477C124.145 38.7302 119.249 45.3023 111.29 45.3023C106.218 45.3023 102.872 41.8547 102.696 36.5755ZM30.7404 34.7798C30.4583 34.8876 30.1061 34.9957 29.6838 35.0671C29.2612 35.1752 28.4511 35.3185 27.3241 35.4981C26.5492 35.6418 25.9857 35.7854 25.6687 36.0368C25.3517 36.2526 25.1756 36.5396 25.1404 36.8628C25.0699 37.2219 25.1756 37.5096 25.4926 37.7247C25.8096 37.9398 26.3027 38.0479 27.0071 38.0479C27.5354 38.0479 28.0637 37.9761 28.592 37.7965C29.1203 37.617 29.5429 37.4011 29.8952 37.1142C30.1417 36.8987 30.3178 36.6118 30.4587 36.2882C30.4939 36.0368 30.5996 35.534 30.7404 34.7798ZM37.3619 30.5781C37.3264 31.1886 37.221 31.7635 37.0802 32.6969L35.9531 39.0894C35.8474 39.6643 36.0588 40.0949 36.5871 40.4181L36.5518 40.6695H30.1417L30.0713 39.0535C29.1555 39.6281 28.0285 40.0946 27.0071 40.3822C25.986 40.6333 25.1756 40.7773 23.9429 40.7773C21.8652 40.7773 20.7029 40.5618 19.8925 39.8435C19.0472 39.0894 18.6598 38.5866 18.695 37.5451C18.7302 36.9346 19.0116 36.1804 19.4699 35.6418C19.9277 35.1031 20.5265 34.7439 21.1604 34.4207C21.8293 34.0979 22.6045 33.882 23.7316 33.7025C24.8586 33.5229 26.4435 33.3433 28.5568 33.1638C29.6486 33.056 30.353 32.8046 30.67 32.6969C31.1279 32.5173 31.2688 32.3378 31.3388 31.9787C31.4449 31.3319 31.2688 30.9372 30.3882 30.7576C28.0989 30.2908 23.7668 31.0449 21.5479 31.6195L22.7454 28.2793C25.6687 27.8487 28.4511 27.561 31.3388 27.561C35.9179 27.5255 37.3971 28.8542 37.3619 30.5781ZM55.888 40.6695L58.1069 27.8846H64.2352L62.0163 40.6695H55.888ZM58.4591 24.9398C58.6352 23.8983 60.2557 23.0364 62.0871 23.0364C63.9183 23.0364 65.2214 23.8983 65.0453 24.9398C64.8692 25.9812 63.2138 26.8431 61.4176 26.8431C59.5861 26.8431 58.2477 25.9812 58.4591 24.9398ZM86.0016 34.8158C85.7198 34.9235 85.3676 35.0312 84.945 35.1031C84.5223 35.2108 83.7122 35.3545 82.5499 35.534C81.7751 35.6773 81.2116 35.8213 80.8946 36.0727C80.6128 36.2882 80.4367 36.5751 80.3663 36.8987C80.2958 37.2578 80.4367 37.5451 80.7185 37.7602C81.0355 37.9761 81.5286 38.0835 82.2682 38.0835C82.7965 38.0835 83.3248 38.0116 83.8531 37.8321C84.3814 37.6525 84.8041 37.437 85.1563 37.1501C85.4025 36.9343 85.5786 36.6473 85.6846 36.3237C85.755 36.0727 85.8607 35.5699 86.0016 34.8158ZM92.5878 30.614C92.5526 31.2245 92.4469 31.7991 92.2708 32.7325L91.179 39.1253C91.0733 39.6999 91.2847 40.1308 91.813 40.4537L91.7778 40.6695H85.3676L85.3324 39.0535C84.3814 39.6281 83.2544 40.0946 82.2682 40.3822C81.2468 40.6695 80.4367 40.7773 79.204 40.7773C77.126 40.7773 75.9637 40.5618 75.1536 39.8435C74.3083 39.089 73.9209 38.5866 73.9561 37.5451C73.9917 36.9346 74.2731 36.1804 74.731 35.6418C75.1889 35.1031 75.7876 34.7439 76.4216 34.4207C77.0908 34.0979 77.866 33.882 78.993 33.6666C80.1197 33.487 81.7047 33.3074 83.8179 33.1279C84.9101 33.0201 85.5789 32.7687 85.8959 32.661C86.3538 32.4814 86.5299 32.3019 86.6003 31.9065C86.706 31.26 86.4947 30.8654 85.6494 30.6858C83.3248 30.2186 79.0279 30.9731 76.809 31.5473L78.0061 28.2075C80.9647 27.7765 83.677 27.4892 86.6 27.4892C91.1438 27.5614 92.623 28.8902 92.5878 30.614ZM17.8497 36.0727C15.8421 36.4677 14.7503 36.6473 12.7783 36.6473C9.85463 36.6473 7.53007 35.1749 7.63573 32.4455C7.74139 30.6499 9.81941 26.8072 15.1729 26.8072C16.8635 26.8072 18.1667 27.0945 19.9277 28.136L20.7026 23.7187C18.3076 22.785 16.7226 22.6413 14.6446 22.6773C7.63573 22.7491 0.908598 25.9812 0.0985241 32.5892C-0.74677 39.3048 7.28353 40.9927 10.8408 40.9568C12.8836 40.9568 15.0317 40.8491 17.0396 40.6695L17.8497 36.0727ZM67.6164 27.8128L68.0391 25.2271L74.4492 23.7906L73.78 27.8128H76.9147L76.3159 30.3985H73.2869L71.4555 40.6699C71.4555 40.6699 65.2919 40.6336 65.2566 40.6699L67.0878 30.4348H64.7632L65.2211 27.849H67.6161V27.8128H67.6164ZM98.8219 40.6695H92.5526L95.6869 22.8568L101.78 23.0364L98.8219 40.6695ZM47.7872 30.9013C46.9771 30.9013 46.2727 31.1527 45.6035 31.6554C44.9696 32.1582 44.5469 32.8765 44.4064 33.8465C44.2303 34.9598 44.336 35.7499 44.7586 36.2526C45.1812 36.755 45.8152 37.0068 46.6602 37.0068C47.224 37.0068 47.7872 36.8991 48.2099 36.6836C48.7382 36.3963 49.0904 36.109 49.4074 35.6425C49.7596 35.1397 49.9709 34.601 50.0762 33.9546C50.2523 32.949 50.1118 32.1948 49.6536 31.6921C49.196 31.1527 48.5973 30.9013 47.7872 30.9013ZM36.6223 45.0868L39.616 27.9564H45.0048L44.5821 30.1475C45.04 29.5007 45.7793 28.962 46.8359 28.5314C47.8573 28.1004 49.0552 27.7769 50.3227 27.7769C51.7316 27.7769 52.5769 27.8487 53.6335 28.4233C54.6901 28.9983 55.3945 29.7883 55.8168 30.8657C56.2049 31.9068 56.3106 33.056 56.0993 34.3489C55.7471 36.4677 54.7257 38.1197 53.07 39.3408C51.4142 40.5618 49.9357 40.885 47.8573 40.885C47.1177 40.885 46.4837 40.8132 45.9554 40.6695C45.4627 40.5259 45.0397 40.3822 44.7227 40.1668C44.4409 39.9513 44.1243 39.6999 43.7016 39.233L42.7155 45.0868H36.6223ZM147.849 32.4814C147.813 31.44 147.32 30.7573 146.264 30.7573C143.763 30.7573 141.087 35.785 140.628 37.7965C144.714 37.7965 147.919 35.2826 147.849 32.4814ZM148.377 40.3463L148.87 40.6695C147.637 43.2193 145.137 45.2664 142.213 45.2664C139.818 45.2664 137.846 43.6503 137.741 40.5977C137.565 35.139 142.566 30.0394 146.686 30.0394C148.447 30.0394 150.103 30.8294 150.173 32.7691C150.314 37.1145 144.326 38.4433 140.382 38.551C140.241 39.0179 140.206 39.4489 140.241 40.1671C140.311 41.9628 141.368 43.507 143.587 43.507C145.489 43.4348 147.391 41.8906 148.377 40.3463Z" fill="white"/>
<path d="M123.793 32.3377C124.216 32.2659 124.92 32.194 125.202 32.194C125.66 32.194 126.083 32.2659 126.083 32.7327C126.083 33.0204 125.625 34.9593 125.519 35.3903L124.568 39.6998C124.18 41.4595 123.758 43.2911 123.406 44.7635H125.871L127.244 37.9764C131.471 33.5232 133.091 32.0508 134.077 32.0508C134.535 32.0508 134.817 32.3021 134.852 32.8408C134.887 33.6306 134.394 35.4262 134.218 35.9293L132.809 40.8853C132.492 41.9989 132.245 43.0041 132.281 43.7224C132.316 44.7998 132.985 45.3022 133.936 45.3022C135.733 45.3022 137.036 43.3988 138.163 41.5314L137.846 40.9208C137.388 41.675 136.332 43.3266 135.486 43.3266C135.205 43.3266 134.958 43.1471 134.958 42.6802C134.923 42.1056 135.169 41.2437 135.346 40.6691L136.895 34.8512C137.318 33.2352 137.529 32.2296 137.494 31.655C137.458 30.5776 136.825 30.0752 135.874 30.0752C134.253 30.0752 132.105 31.2603 127.561 36.6113H127.491L128.055 34.0256C128.372 32.5891 128.653 31.1163 128.971 30.1111C127.386 30.6861 125.167 31.3321 123.758 31.6194L123.793 32.3377Z" fill="white"/>
<path d="M150.561 27.7051C150.561 26.4122 151.582 25.4785 152.78 25.4785C153.977 25.4785 154.964 26.4122 154.964 27.7051C154.964 28.998 153.943 29.9317 152.78 29.9317C151.547 29.9317 150.561 28.998 150.561 27.7051ZM152.78 29.5726C153.766 29.5726 154.541 28.7825 154.541 27.7051C154.541 26.6636 153.766 25.8736 152.78 25.8736C151.793 25.8736 151.019 26.6636 151.019 27.7051C150.984 28.7825 151.759 29.5726 152.78 29.5726ZM152.287 28.998H151.899V26.4482H152.85C153.449 26.4482 153.731 26.6636 153.731 27.1664C153.731 27.6333 153.449 27.8128 153.062 27.8847L153.766 28.998H153.343L152.674 27.8847H152.252V28.998H152.287ZM152.745 27.5615C153.061 27.5615 153.343 27.5255 153.343 27.1305C153.343 26.8073 153.062 26.7714 152.78 26.7714H152.251V27.5615H152.745Z" fill="white"/>
</g>
<defs>
<clipPath id="clip0_314_790">
<rect width="155" height="55" fill="white"/>
</clipPath>
</defs>
</svg>
