<svg width="270" height="42" viewBox="0 0 270 42" fill="none" xmlns="http://www.w3.org/2000/svg">
<path d="M189.187 6.19038H194.019C195.191 6.19038 196.172 6.57113 196.948 7.33264C197.724 8.09414 198.105 9.04603 198.105 10.1883C198.105 11.3305 197.71 12.2824 196.934 13.0439C196.157 13.8054 195.176 14.2008 194.005 14.2008H190.549V18.931H189.187V6.19038ZM194.019 7.46444H190.563V12.9121H194.019C194.839 12.9121 195.498 12.6632 195.996 12.1653C196.494 11.6674 196.743 11.0084 196.743 10.1883C196.743 9.3682 196.494 8.7092 195.996 8.21129C195.498 7.71339 194.839 7.46444 194.019 7.46444ZM202.381 17.6569H209.938V18.931H201.019V6.19038H209.747V7.46444H202.381V11.6527H208.283V12.9268H202.381V17.6569ZM212.647 6.19038H217.743C218.871 6.19038 219.808 6.55648 220.54 7.27406C221.287 8.00627 221.653 8.91423 221.653 9.99791C221.653 10.5397 221.565 11.0377 221.375 11.4916C221.185 11.9456 220.965 12.2971 220.716 12.546C220.467 12.795 220.203 13.0146 219.94 13.1904C219.676 13.3661 219.457 13.4833 219.281 13.5418L219.003 13.6297L222.005 18.9017H220.452L217.626 13.8054H213.994V18.9017H212.632C212.647 18.931 212.647 6.19038 212.647 6.19038ZM217.743 7.46444H214.024V12.546H217.743C218.519 12.546 219.134 12.3264 219.603 11.8577C220.072 11.4038 220.291 10.7741 220.291 9.99791C220.291 9.22176 220.057 8.60669 219.603 8.13807C219.134 7.69874 218.519 7.46444 217.743 7.46444ZM224.934 6.19038H233.574V7.46444H226.295V11.8285H232.109V13.1025H226.295V18.9163H224.934V6.19038ZM237.484 17.6569H245.04V18.931H236.122V6.19038H244.85V7.46444H237.484V11.6527H243.385V12.9268H237.484V17.6569ZM248.848 17.1883C247.574 15.9142 246.944 14.3619 246.944 12.546C246.944 10.7301 247.574 9.17782 248.848 7.90376C250.122 6.62971 251.674 6 253.49 6C254.134 6 254.749 6.08786 255.35 6.27824C255.936 6.45397 256.434 6.67364 256.814 6.93724C257.21 7.18619 257.547 7.44979 257.839 7.71339C258.132 7.97698 258.337 8.19665 258.469 8.38703L258.674 8.66527L257.766 9.48536C257.737 9.42678 257.678 9.35356 257.605 9.25105C257.532 9.14854 257.371 8.9728 257.107 8.73849C256.844 8.48954 256.565 8.26987 256.258 8.0795C255.95 7.88912 255.555 7.71339 255.057 7.5523C254.559 7.39122 254.032 7.31799 253.49 7.31799C252.026 7.31799 250.81 7.83054 249.8 8.841C248.804 9.85146 248.306 11.1109 248.306 12.59C248.306 14.0837 248.804 15.3431 249.8 16.3536C250.795 17.364 252.026 17.8766 253.49 17.8766C254.032 17.8766 254.559 17.8033 255.057 17.6569C255.555 17.5105 255.965 17.3201 256.302 17.1151C256.624 16.8954 256.917 16.6904 257.166 16.4854C257.415 16.2803 257.59 16.09 257.693 15.9289L257.869 15.7092L258.777 16.5293C258.733 16.6025 258.66 16.6904 258.557 16.8075C258.454 16.9247 258.235 17.1297 257.913 17.4372C257.576 17.7448 257.224 18.0084 256.858 18.2427C256.492 18.477 255.994 18.6967 255.394 18.8724C254.779 19.0628 254.164 19.1506 253.519 19.1506C251.674 19.0921 250.122 18.4623 248.848 17.1883ZM259.846 6.19038H269.218V7.46444H265.206V18.9163H263.844V7.46444H259.831C259.846 7.46444 259.846 6.19038 259.846 6.19038ZM195.747 26.8096L200.155 21.2594H202.572V34H199.848V25.5063L195.747 30.7197L191.662 25.5356V33.9854H188.923V21.2448H191.383L195.747 26.8096ZM208.561 31.5397H215.385V33.9854H205.823V21.2448H215.195V23.705H208.561V26.2531H213.745V28.6987H208.561C208.561 28.7134 208.561 31.5397 208.561 31.5397ZM217.919 21.2448H222.649C224.494 21.2448 226.061 21.8598 227.306 23.09C228.565 24.3201 229.195 25.8285 229.195 27.6151C229.195 29.4017 228.565 30.91 227.306 32.1402C226.047 33.3703 224.494 33.9854 222.649 33.9854H217.919V21.2448ZM222.664 23.705H220.657V31.5251H222.664C223.718 31.5251 224.611 31.1444 225.358 30.3828C226.105 29.6213 226.471 28.6987 226.471 27.6004C226.471 26.5167 226.105 25.5795 225.388 24.818C224.655 24.0858 223.747 23.705 222.664 23.705ZM231.743 33.9854V21.2448H234.482V33.9854H231.743ZM244.293 28.6255L242.741 24.4372L241.189 28.6255H244.293ZM245.201 30.9833H240.295L239.212 33.9854H236.298L241.306 21.2448H244.206L249.214 33.9854H246.3L245.201 30.9833Z" fill="#7C8187"/>
<path fill-rule="evenodd" clip-rule="evenodd" d="M146.37 6.67072L164.498 16.667L169.31 19.321L164.367 21.9749L161.987 23.253L157.377 25.7243L146.37 31.6256L141.662 34.1557V28.9195V18.1733V13.4849L146.37 15.7476L153.314 19.0862L151.593 20.0057L148.704 21.5576L146.37 20.4425V26.396L151.097 23.8594L152.225 23.253L155.147 21.688L156.836 20.7751L157.559 20.3904L159.555 19.321L146.37 12.0503L141.662 9.45508L138.715 7.83142V12.0699V16.7583V30.5041V35.7402V42H134V33.0276V14.4956V9.8072V5.23616V0H134.274L141.662 4.07547L146.37 6.67072Z" fill="#7C8187"/>
<path fill-rule="evenodd" clip-rule="evenodd" d="M159.307 13.8044L171.286 7.83142C171.286 21.3424 171.286 28.489 171.286 42H176C176 29.1476 176 22.6596 176 9.8072V5.22964V0H175.726L154.182 10.9744L159.307 13.8044Z" fill="#7C8187"/>
<path d="M4.74984 26.126C3.97518 26.126 3.27518 26.028 2.64984 25.832C2.02451 25.6267 1.48318 25.3327 1.02584 24.95L1.43184 24.026C1.90784 24.39 2.40718 24.6607 2.92984 24.838C3.45251 25.0153 4.05918 25.104 4.74984 25.104C5.58984 25.104 6.21051 24.95 6.61184 24.642C7.02251 24.3247 7.22784 23.9093 7.22784 23.396C7.22784 22.9853 7.07851 22.6587 6.77984 22.416C6.49051 22.1733 6.00051 21.982 5.30984 21.842L3.85384 21.548C2.97651 21.3613 2.31851 21.058 1.87984 20.638C1.45051 20.2087 1.23584 19.6393 1.23584 18.93C1.23584 18.342 1.38518 17.8287 1.68384 17.39C1.99184 16.9513 2.41651 16.6107 2.95784 16.368C3.49918 16.1253 4.12451 16.004 4.83384 16.004C5.49651 16.004 6.11251 16.1113 6.68184 16.326C7.25118 16.5313 7.73184 16.83 8.12384 17.222L7.71784 18.118C7.29784 17.7353 6.85451 17.46 6.38784 17.292C5.92118 17.1147 5.39851 17.026 4.81984 17.026C4.08251 17.026 3.49451 17.1987 3.05584 17.544C2.61718 17.88 2.39784 18.328 2.39784 18.888C2.39784 19.336 2.53318 19.6907 2.80384 19.952C3.08384 20.2133 3.53651 20.4047 4.16184 20.526L5.61784 20.834C6.56051 21.03 7.25584 21.3287 7.70384 21.73C8.16118 22.122 8.38984 22.6587 8.38984 23.34C8.38984 23.8907 8.24051 24.376 7.94184 24.796C7.65251 25.216 7.23251 25.5427 6.68184 25.776C6.14051 26.0093 5.49651 26.126 4.74984 26.126ZM12.1591 26.126C11.6925 26.126 11.2725 26.0373 10.8991 25.86C10.5351 25.6733 10.2458 25.4213 10.0311 25.104C9.81646 24.7867 9.70913 24.432 9.70913 24.04C9.70913 23.5453 9.83513 23.1533 10.0871 22.864C10.3485 22.5747 10.7731 22.3693 11.3611 22.248C11.9585 22.1173 12.7705 22.052 13.7971 22.052H14.2451V21.618C14.2451 21.0393 14.1238 20.624 13.8811 20.372C13.6478 20.1107 13.2698 19.98 12.7471 19.98C12.3365 19.98 11.9398 20.0407 11.5571 20.162C11.1745 20.274 10.7825 20.4607 10.3811 20.722L9.98913 19.896C10.3438 19.644 10.7731 19.4433 11.2771 19.294C11.7905 19.1447 12.2805 19.07 12.7471 19.07C13.6245 19.07 14.2731 19.2847 14.6931 19.714C15.1225 20.1433 15.3371 20.8107 15.3371 21.716V26H14.2731V24.824C14.0958 25.2253 13.8205 25.5427 13.4471 25.776C13.0831 26.0093 12.6538 26.126 12.1591 26.126ZM12.3411 25.272C12.9011 25.272 13.3585 25.0807 13.7131 24.698C14.0678 24.306 14.2451 23.8113 14.2451 23.214V22.794H13.8111C13.0551 22.794 12.4578 22.8313 12.0191 22.906C11.5898 22.9713 11.2865 23.0927 11.1091 23.27C10.9411 23.438 10.8571 23.6713 10.8571 23.97C10.8571 24.3527 10.9878 24.6653 11.2491 24.908C11.5198 25.1507 11.8838 25.272 12.3411 25.272ZM18.1566 28.52L19.3186 25.888L16.4486 19.196H17.6806L19.9346 24.712L22.2026 19.196H23.3926L19.3466 28.52H18.1566ZM27.4307 26.126C26.6281 26.126 26.0261 25.916 25.6247 25.496C25.2234 25.0667 25.0227 24.4507 25.0227 23.648V20.078H23.6927V19.196H25.0227V17.11H26.1567V19.196H28.3127V20.078H26.1567V23.536C26.1567 24.068 26.2687 24.474 26.4927 24.754C26.7167 25.0247 27.0807 25.16 27.5847 25.16C27.7341 25.16 27.8834 25.1413 28.0327 25.104C28.1821 25.0667 28.3174 25.0293 28.4387 24.992L28.6347 25.86C28.5134 25.9253 28.3361 25.986 28.1027 26.042C27.8694 26.098 27.6454 26.126 27.4307 26.126ZM33.051 17.502V16.228H34.451V17.502H33.051ZM33.191 26V19.196H34.325V26H33.191ZM38.7409 26.126C38.2089 26.126 37.7049 26.0513 37.2289 25.902C36.7529 25.7527 36.3609 25.5427 36.0529 25.272L36.4169 24.474C36.7529 24.7447 37.1215 24.9453 37.5229 25.076C37.9335 25.1973 38.3489 25.258 38.7689 25.258C39.3009 25.258 39.7022 25.16 39.9729 24.964C40.2435 24.768 40.3789 24.502 40.3789 24.166C40.3789 23.9047 40.2902 23.6993 40.1129 23.55C39.9355 23.3913 39.6555 23.27 39.2729 23.186L37.9989 22.906C36.8415 22.654 36.2629 22.0567 36.2629 21.114C36.2629 20.498 36.5055 20.0033 36.9909 19.63C37.4855 19.2567 38.1295 19.07 38.9229 19.07C39.3895 19.07 39.8329 19.1447 40.2529 19.294C40.6822 19.434 41.0369 19.644 41.3169 19.924L40.9389 20.722C40.6682 20.47 40.3509 20.2787 39.9869 20.148C39.6322 20.008 39.2775 19.938 38.9229 19.938C38.4002 19.938 38.0035 20.0407 37.7329 20.246C37.4622 20.4513 37.3269 20.722 37.3269 21.058C37.3269 21.5807 37.6722 21.9167 38.3629 22.066L39.6369 22.332C40.2342 22.4627 40.6869 22.6727 40.9949 22.962C41.3029 23.242 41.4569 23.6247 41.4569 24.11C41.4569 24.7353 41.2095 25.23 40.7149 25.594C40.2202 25.9487 39.5622 26.126 38.7409 26.126ZM43.1851 26V16.13H44.3191V20.316C44.5431 19.9053 44.8558 19.5973 45.2571 19.392C45.6678 19.1773 46.1251 19.07 46.6291 19.07C48.2438 19.07 49.0511 19.966 49.0511 21.758V26H47.9171V21.828C47.9171 21.1933 47.7911 20.7313 47.5391 20.442C47.2964 20.1433 46.9044 19.994 46.3631 19.994C45.7378 19.994 45.2384 20.19 44.8651 20.582C44.5011 20.9647 44.3191 21.478 44.3191 22.122V26H43.1851ZM53.2281 26.126C52.5375 26.126 52.0148 25.9253 51.6601 25.524C51.3148 25.1133 51.1421 24.5207 51.1421 23.746V16.13H52.2761V23.662C52.2761 24.6607 52.6728 25.16 53.4661 25.16C53.6995 25.16 53.9095 25.132 54.0961 25.076L54.0681 26.028C53.7788 26.0933 53.4988 26.126 53.2281 26.126ZM57.4267 26.126C56.96 26.126 56.54 26.0373 56.1667 25.86C55.8027 25.6733 55.5134 25.4213 55.2987 25.104C55.084 24.7867 54.9767 24.432 54.9767 24.04C54.9767 23.5453 55.1027 23.1533 55.3547 22.864C55.616 22.5747 56.0407 22.3693 56.6287 22.248C57.226 22.1173 58.038 22.052 59.0647 22.052H59.5127V21.618C59.5127 21.0393 59.3914 20.624 59.1487 20.372C58.9154 20.1107 58.5374 19.98 58.0147 19.98C57.604 19.98 57.2074 20.0407 56.8247 20.162C56.442 20.274 56.05 20.4607 55.6487 20.722L55.2567 19.896C55.6114 19.644 56.0407 19.4433 56.5447 19.294C57.058 19.1447 57.548 19.07 58.0147 19.07C58.892 19.07 59.5407 19.2847 59.9607 19.714C60.39 20.1433 60.6047 20.8107 60.6047 21.716V26H59.5407V24.824C59.3634 25.2253 59.088 25.5427 58.7147 25.776C58.3507 26.0093 57.9214 26.126 57.4267 26.126ZM57.6087 25.272C58.1687 25.272 58.626 25.0807 58.9807 24.698C59.3354 24.306 59.5127 23.8113 59.5127 23.214V22.794H59.0787C58.3227 22.794 57.7254 22.8313 57.2867 22.906C56.8574 22.9713 56.554 23.0927 56.3767 23.27C56.2087 23.438 56.1247 23.6713 56.1247 23.97C56.1247 24.3527 56.2554 24.6653 56.5167 24.908C56.7874 25.1507 57.1514 25.272 57.6087 25.272ZM66.1525 26.126C65.6112 26.126 65.1352 26.0047 64.7245 25.762C64.3232 25.5193 64.0199 25.188 63.8145 24.768V26H62.7085V16.13H63.8425V20.372C64.0385 19.9707 64.3419 19.6533 64.7525 19.42C65.1632 19.1867 65.6299 19.07 66.1525 19.07C66.7592 19.07 67.2865 19.2147 67.7345 19.504C68.1919 19.784 68.5419 20.19 68.7845 20.722C69.0365 21.2447 69.1625 21.87 69.1625 22.598C69.1625 23.3167 69.0365 23.942 68.7845 24.474C68.5419 24.9967 68.1919 25.4027 67.7345 25.692C67.2865 25.9813 66.7592 26.126 66.1525 26.126ZM65.9145 25.216C66.5492 25.216 67.0579 24.992 67.4405 24.544C67.8232 24.0867 68.0145 23.438 68.0145 22.598C68.0145 21.7487 67.8232 21.1 67.4405 20.652C67.0579 20.204 66.5492 19.98 65.9145 19.98C65.2799 19.98 64.7712 20.204 64.3885 20.652C64.0059 21.1 63.8145 21.7487 63.8145 22.598C63.8145 23.438 64.0059 24.0867 64.3885 24.544C64.7712 24.992 65.2799 25.216 65.9145 25.216ZM77.3503 26.126C76.669 26.126 76.081 25.9813 75.5863 25.692C75.0917 25.3933 74.709 24.978 74.4383 24.446C74.177 23.9047 74.0463 23.2747 74.0463 22.556C74.0463 21.4733 74.3403 20.624 74.9283 20.008C75.5163 19.3827 76.3237 19.07 77.3503 19.07C77.7703 19.07 78.1857 19.1447 78.5963 19.294C79.007 19.4433 79.3477 19.6533 79.6183 19.924L79.2263 20.75C78.9557 20.4887 78.657 20.2973 78.3303 20.176C78.013 20.0547 77.7097 19.994 77.4203 19.994C76.711 19.994 76.165 20.218 75.7823 20.666C75.3997 21.1047 75.2083 21.7393 75.2083 22.57C75.2083 23.382 75.3997 24.026 75.7823 24.502C76.165 24.9687 76.711 25.202 77.4203 25.202C77.7097 25.202 78.013 25.1413 78.3303 25.02C78.657 24.8987 78.9557 24.7027 79.2263 24.432L79.6183 25.258C79.3477 25.5287 79.0023 25.7433 78.5823 25.902C78.1717 26.0513 77.761 26.126 77.3503 26.126ZM80.9468 26V16.13H82.0808V20.316C82.3048 19.9053 82.6175 19.5973 83.0188 19.392C83.4295 19.1773 83.8868 19.07 84.3908 19.07C86.0055 19.07 86.8128 19.966 86.8128 21.758V26H85.6788V21.828C85.6788 21.1933 85.5528 20.7313 85.3008 20.442C85.0581 20.1433 84.6661 19.994 84.1248 19.994C83.4995 19.994 83.0001 20.19 82.6268 20.582C82.2628 20.9647 82.0808 21.478 82.0808 22.122V26H80.9468ZM88.7638 17.502V16.228H90.1638V17.502H88.7638ZM88.9038 26V19.196H90.0378V26H88.9038ZM97.0578 28.52V24.81C96.8618 25.2113 96.5584 25.5333 96.1478 25.776C95.7464 26.0093 95.2798 26.126 94.7478 26.126C94.1411 26.126 93.6091 25.9813 93.1517 25.692C92.7038 25.4027 92.3538 24.9967 92.1018 24.474C91.8591 23.942 91.7378 23.3167 91.7378 22.598C91.7378 21.87 91.8591 21.2447 92.1018 20.722C92.3538 20.19 92.7038 19.784 93.1517 19.504C93.6091 19.2147 94.1411 19.07 94.7478 19.07C95.2891 19.07 95.7651 19.1913 96.1758 19.434C96.5864 19.6767 96.8898 20.008 97.0858 20.428V19.196H98.1918V28.52H97.0578ZM94.9858 25.216C95.6204 25.216 96.1291 24.992 96.5118 24.544C96.8944 24.0867 97.0858 23.438 97.0858 22.598C97.0858 21.7487 96.8944 21.1 96.5118 20.652C96.1291 20.204 95.6204 19.98 94.9858 19.98C94.3418 19.98 93.8284 20.204 93.4458 20.652C93.0724 21.1 92.8858 21.7487 92.8858 22.598C92.8858 23.438 93.0724 24.0867 93.4458 24.544C93.8284 24.992 94.3418 25.216 94.9858 25.216ZM100.18 17.502V16.228H101.58V17.502H100.18ZM100.32 26V19.196H101.454V26H100.32ZM105.66 26.126C104.969 26.126 104.446 25.9253 104.092 25.524C103.746 25.1133 103.574 24.5207 103.574 23.746V16.13H104.708V23.662C104.708 24.6607 105.104 25.16 105.898 25.16C106.131 25.16 106.341 25.132 106.528 25.076L106.5 26.028C106.21 26.0933 105.93 26.126 105.66 26.126ZM110.238 26.126C109.631 26.126 109.099 25.9813 108.642 25.692C108.194 25.4027 107.844 24.9967 107.592 24.474C107.349 23.942 107.228 23.3167 107.228 22.598C107.228 21.87 107.349 21.2447 107.592 20.722C107.844 20.19 108.194 19.784 108.642 19.504C109.099 19.2147 109.631 19.07 110.238 19.07C110.77 19.07 111.237 19.1867 111.638 19.42C112.049 19.6533 112.352 19.9753 112.548 20.386V16.13H113.682V26H112.576V24.754C112.38 25.1833 112.077 25.5193 111.666 25.762C111.255 26.0047 110.779 26.126 110.238 26.126ZM110.476 25.216C111.111 25.216 111.619 24.992 112.002 24.544C112.385 24.0867 112.576 23.438 112.576 22.598C112.576 21.7487 112.385 21.1 112.002 20.652C111.619 20.204 111.111 19.98 110.476 19.98C109.832 19.98 109.319 20.204 108.936 20.652C108.563 21.1 108.376 21.7487 108.376 22.598C108.376 23.438 108.563 24.0867 108.936 24.544C109.319 24.992 109.832 25.216 110.476 25.216ZM115.67 17.502V16.228H117.07V17.502H115.67ZM115.81 26V19.196H116.944V26H115.81Z" fill="#7C8187"/>
</svg>
