<svg width="21" height="25" viewBox="0 0 21 25" fill="none" xmlns="http://www.w3.org/2000/svg">
<path d="M21 10.2555C20.9852 12.3129 20.3774 14.2139 19.3839 16.0082C17.8213 18.8341 15.6206 21.1417 13.1196 23.1863C12.4131 23.7638 11.6647 24.2932 10.9262 24.833C10.6161 25.0592 10.362 25.052 10.0487 24.833C7.02134 22.7323 4.35589 20.2795 2.3237 17.2226C1.24386 15.5975 0.403348 13.8618 0.130305 11.9287C-0.47335 7.65581 1.0177 4.18908 4.65937 1.7667C10.654 -2.22301 18.8666 0.876357 20.6595 7.73682C20.8711 8.56124 20.9853 9.40654 21 10.2563V10.2555ZM15.0909 10.2699C15.0938 9.38119 14.8264 8.51162 14.3225 7.7712C13.8185 7.03078 13.1007 6.45281 12.2598 6.1104C11.419 5.768 10.4929 5.67657 9.59871 5.84767C8.70455 6.01877 7.88252 6.44471 7.23665 7.07161C6.59078 7.6985 6.15009 8.49816 5.97035 9.36941C5.7906 10.2407 5.87988 11.1443 6.22689 11.9661C6.5739 12.7878 7.16305 13.4907 7.91977 13.9858C8.67649 14.4808 9.56677 14.7459 10.478 14.7473C11.6974 14.7467 12.867 14.2754 13.7313 13.4365C14.5956 12.5976 15.0844 11.4592 15.0909 10.2699Z" fill="#F8B32D"/>
</svg>
