<svg width="18" height="17" viewBox="0 0 18 17" fill="none" xmlns="http://www.w3.org/2000/svg">
<path d="M17.1685 8.8128C17.9631 9.73112 17.6651 11.2649 16.3368 11.7033C16.5301 13.0189 16.3055 13.4675 15.2081 14.0248C15.2179 14.3672 15.28 14.6955 15.2262 15.0033C15.0853 15.8095 14.3549 16.4299 13.505 16.4358C11.8528 16.448 10.1987 16.4505 8.54749 16.3962C7.25049 16.3536 6.01611 15.9632 4.79983 15.5312C4.7558 15.5155 4.72498 15.4455 4.70198 15.3947C4.69384 15.3565 4.69284 15.3172 4.69905 15.2787C4.69905 12.4867 4.69791 9.69459 4.69563 6.90228C4.69563 6.74621 4.73672 6.66255 4.88447 6.59307C5.46815 6.31909 6.02736 6.00598 6.51465 5.57152C7.07974 5.06906 7.3904 4.41543 7.63552 3.7251C7.99335 2.72514 8.19148 1.67507 8.22262 0.613475C8.23191 0.288614 8.42566 0.0449674 8.73046 0.0185479C9.55485 -0.0538609 10.3298 0.0704086 10.9629 0.665335C11.4497 1.12327 11.734 1.6864 11.7344 2.35667C11.7344 3.38066 11.6209 4.39488 11.343 5.38512C11.3 5.54021 11.2364 5.68943 11.1689 5.87828H11.4062C12.7989 5.87828 14.1918 5.87828 15.5848 5.87828C16.1592 5.87828 16.6754 6.02506 17.0966 6.43749C17.3889 6.72088 17.5692 7.10014 17.6044 7.50571C17.6396 7.91127 17.5274 8.31594 17.2884 8.64547C17.2483 8.6988 17.2111 8.75213 17.1685 8.8128Z" fill="#F8B32D"/>
<path d="M0.000782462 11.1764V6.64689C0.000782462 6.07643 0.196482 5.87975 0.758628 5.87926C1.44358 5.87926 2.12511 5.87926 2.80859 5.87926C3.30664 5.87926 3.52386 6.09844 3.52386 6.59405C3.52386 9.64011 3.52386 12.686 3.52386 15.7318C3.52386 16.2288 3.30518 16.4475 2.81153 16.448C2.10212 16.448 1.3927 16.448 0.683294 16.448C0.224868 16.448 0.00225116 16.2274 0.00176191 15.7631C-0.00019508 14.2346 -0.000522202 12.7057 0.000782462 11.1764Z" fill="#F8B32D"/>
</svg>
