<svg width="35" height="21" viewBox="0 0 35 21" fill="none" xmlns="http://www.w3.org/2000/svg">
<path d="M0 9.36809C0.200872 8.90296 0.410875 8.44049 0.601703 7.9718C1.56772 5.59761 2.53099 3.22223 3.49152 0.845665C3.81657 0.0467701 4.31327 -0.172482 5.13502 0.135536C5.95677 0.443554 6.78217 0.771101 7.60849 1.08445C8.12071 1.27884 8.39098 1.62592 8.38915 2.17272C8.39583 2.22029 8.41352 2.26577 8.44088 2.30574C8.46824 2.34571 8.50456 2.37914 8.54711 2.40351C9.18882 2.71182 9.89393 2.87507 10.6097 2.88107C12.0386 2.90592 13.484 2.88107 14.8728 3.31957C14.924 3.32674 14.9763 3.32392 15.0265 3.31127C15.0766 3.29862 15.1237 3.2764 15.1649 3.2459C15.2892 3.14952 15.4044 3.04258 15.5092 2.92634C16.204 2.22509 17.0467 1.97743 18.0283 2.13899C18.5761 2.22775 19.1285 2.31119 19.6791 2.3973C20.0489 2.45499 20.2552 2.66359 20.2269 2.95652C20.195 3.26365 19.9347 3.43852 19.5458 3.38615C18.9267 3.30182 18.3095 3.20063 17.6904 3.10742C17.4477 3.06375 17.1976 3.07933 16.9625 3.15276C16.7275 3.22619 16.5148 3.35519 16.3437 3.52817C14.8618 4.9582 13.2977 6.29235 11.5538 7.41702C11.2488 7.61408 11.2498 7.7996 11.5291 8.02417C12.1217 8.49907 12.791 8.54079 13.495 8.33486C14.408 8.06856 15.1558 7.52353 15.8689 6.92791C16.5363 6.3678 17.1088 6.37934 17.727 6.96963C19.1632 8.34107 20.8706 8.96243 22.8848 8.69613C23.0183 8.67581 23.1547 8.68326 23.2851 8.718C23.4154 8.75274 23.5366 8.81396 23.6408 8.89763C24.9921 9.87406 26.3499 10.8452 27.7277 11.8322L29.9263 10.4599C28.9539 8.06323 27.9888 5.6843 27.0118 3.27608C26.6767 3.39325 26.3599 3.48202 26.0632 3.6125C25.0711 4.05374 23.9557 4.15906 22.8949 3.91164C22.6292 3.85306 22.3552 3.8282 22.0868 3.78205C21.7398 3.72168 21.56 3.51575 21.5928 3.21661C21.6257 2.91746 21.8585 2.75591 22.211 2.79585C22.5835 2.83757 22.956 2.88995 23.3231 2.9654C24.0167 3.11717 24.7418 3.05512 25.3975 2.78787C25.7436 2.64762 26.1033 2.54021 26.4485 2.3973C26.4906 2.37371 26.5265 2.34089 26.5533 2.30144C26.5801 2.26199 26.597 2.217 26.6028 2.17005C26.6028 1.6419 26.852 1.29482 27.3588 1.10486C28.2381 0.772876 29.1109 0.424913 29.9902 0.0929284C30.6293 -0.14674 31.1827 0.0849395 31.4365 0.698313C31.8738 1.75463 32.3012 2.8145 32.7275 3.87436C32.8691 4.22943 32.7613 4.50726 32.4591 4.61645C32.177 4.71942 31.9177 4.58272 31.7771 4.23919C31.3854 3.28407 31 2.32717 30.6111 1.37116C30.5618 1.24955 30.5052 1.12972 30.444 0.990353L27.6263 2.07152L31.1452 10.7422L33.9757 9.66102C33.6105 8.76715 33.2608 7.89546 32.9074 7.02378C32.8362 6.84625 32.7559 6.67759 32.6965 6.49917C32.6491 6.37882 32.6512 6.24537 32.7021 6.12642C32.7531 6.00747 32.8492 5.91211 32.9704 5.86006C33.0335 5.83278 33.1017 5.81856 33.1707 5.8183C33.2398 5.81803 33.3081 5.83174 33.3714 5.85854C33.4347 5.88533 33.4915 5.92464 33.5384 5.97396C33.5852 6.02327 33.6209 6.08152 33.6433 6.145C34.0853 7.21019 34.5244 8.27538 34.939 9.35478C35.0242 9.57663 35.02 9.82161 34.9272 10.0406C34.8344 10.2596 34.6599 10.4363 34.4386 10.5354C33.4562 10.9419 32.4582 11.3165 31.4584 11.6831C31.1324 11.8029 30.8129 11.7168 30.5189 11.5242C30.4376 11.471 30.276 11.4355 30.2048 11.4807C29.5939 11.8429 28.995 12.2255 28.3988 12.5974C28.7777 14.4943 27.8874 15.5267 26.0139 15.3953C25.6185 16.7738 25.0853 17.1751 23.5568 17.223C23.4938 17.8701 23.229 18.4276 22.6492 18.8021C22.0832 19.167 21.4668 19.2273 20.7976 19.0321C20.6003 19.9534 20.0744 20.5553 19.1194 20.755C18.1479 20.9574 17.4759 20.3999 16.7564 19.8558C16.6194 20.0085 16.487 20.1541 16.3565 20.2996C15.8442 20.8793 15.206 21.126 14.4345 20.9379C13.663 20.7497 13.2128 20.2544 13.0421 19.5025C13.0238 19.4226 12.9197 19.3037 12.8513 19.3001C11.7337 19.2513 11.1393 18.6441 10.9284 17.6242C9.60899 17.4573 9.09129 17.0251 8.87307 15.9164C7.07344 15.6261 6.40052 14.5946 7.07983 13.106C6.96387 13.0226 6.84426 12.9285 6.71461 12.8477C6.05173 12.4376 5.39068 12.0249 4.71867 11.6316C4.62097 11.5739 4.4621 11.6059 4.33245 11.6103C4.03479 11.6201 3.707 11.7266 3.44678 11.6396C2.51181 11.3272 1.6015 10.9472 0.679313 10.6002C0.332352 10.4697 0.160698 10.1918 0.000913055 9.89803L0 9.36809ZM7.97371 3.29294L5.00263 10.6161L7.76097 12.316C8.04128 12.0018 8.3088 11.6831 8.59367 11.3866C8.81752 11.1563 9.09954 10.987 9.41164 10.8956C9.72373 10.8042 10.055 10.7939 10.3725 10.8658C10.6899 10.9376 10.9825 11.0891 11.221 11.3051C11.4595 11.521 11.6356 11.794 11.7318 12.0968C11.7738 12.2317 11.8012 12.3719 11.8332 12.5024C13.0914 12.6001 13.5616 12.9889 13.9131 14.2076C15.08 14.228 15.763 14.8112 15.9693 15.9306C16.8459 15.9066 17.4978 16.2466 17.8502 17.0162C18.2027 17.7858 17.9872 18.4817 17.4028 19.127C17.7681 19.3445 18.0849 19.5895 18.4455 19.7369C18.9085 19.9259 19.4353 19.6845 19.6553 19.2549C19.8754 18.8252 19.7676 18.4009 19.3531 18.0885C19.092 17.8923 18.8272 17.7006 18.5715 17.4973C18.2976 17.2763 18.2465 17.0082 18.4273 16.773C18.6081 16.5377 18.913 16.512 19.2107 16.7224C19.3394 16.8111 19.4618 16.9141 19.5887 17.0073C20.0251 17.3269 20.4515 17.6615 20.9017 17.9606C21.0104 18.0373 21.1336 18.0924 21.2642 18.1228C21.3948 18.1532 21.5304 18.1582 21.663 18.1376C21.7956 18.117 21.9228 18.0711 22.0372 18.0027C22.1516 17.9342 22.251 17.8446 22.3297 17.7387C22.6547 17.2949 22.547 16.7348 22.0658 16.3726C21.6421 16.0548 21.2148 15.7415 20.7948 15.4184C20.5209 15.208 20.4689 14.9257 20.6414 14.6941C20.824 14.4464 21.1181 14.4215 21.4221 14.6346C21.57 14.7384 21.7106 14.8512 21.8558 14.9586C22.3543 15.3261 22.841 15.7122 23.3569 16.0548C23.4673 16.129 23.5917 16.1811 23.7229 16.2083C23.8541 16.2355 23.9895 16.2371 24.1214 16.2132C24.2533 16.1893 24.379 16.1402 24.4913 16.0689C24.6036 15.9975 24.7003 15.9053 24.7758 15.7974C25.0889 15.3456 24.9812 14.821 24.5018 14.4606C23.9969 14.0816 23.4893 13.707 22.9889 13.3226C22.7935 13.1726 22.6812 12.9516 22.8282 12.7403C22.9444 12.5891 23.112 12.4828 23.3012 12.4403C23.4235 12.4154 23.5961 12.5291 23.7184 12.6178C24.4206 13.1273 25.1099 13.6555 25.813 14.1641C26.3544 14.5556 26.9589 14.4863 27.3232 14.0132C27.6683 13.5694 27.545 12.9383 27.0173 12.5575C25.7451 11.6444 24.4699 10.7351 23.1916 9.82968C23.0635 9.74572 22.9102 9.70574 22.7561 9.71606C20.5437 9.91578 18.6592 9.21453 17.0741 7.73036C16.8513 7.52265 16.7226 7.51466 16.4925 7.71349C15.7219 8.37924 14.8846 8.94912 13.8894 9.2598C12.8668 9.58024 11.8907 9.5261 11.0005 8.88254C10.0409 8.19372 10.0874 7.21108 11.0489 6.53468C12.0258 5.84852 12.9581 5.10377 13.9131 4.38743C13.998 4.33449 14.0875 4.28903 14.1807 4.25162L14.0957 4.09184C13.3982 4.03503 12.7006 3.96757 12.0021 3.92407C11.1521 3.87081 10.2938 3.8859 9.45103 3.77761C8.95616 3.71458 8.49141 3.4687 7.97371 3.29294ZM7.36835 2.06886L4.53788 0.983252C3.36278 3.8859 2.19133 6.76547 1.01988 9.65836L3.85035 10.7422L7.36835 2.06886ZM8.75529 14.8956C8.84659 14.86 9.06755 14.8334 9.18351 14.7109C9.69664 14.1659 10.2016 13.6093 10.6645 13.0244C10.9174 12.7039 10.7887 12.2397 10.4609 11.9885C10.1486 11.7488 9.67382 11.7373 9.39899 12.0249C8.90503 12.5433 8.43572 13.0856 7.9801 13.6369C7.78106 13.8783 7.79201 14.1774 7.9381 14.4535C8.08419 14.7296 8.33071 14.8716 8.75529 14.8956ZM9.861 15.7592C9.91213 16.1143 10.1194 16.4117 10.4307 16.5342C10.5944 16.6042 10.7773 16.6195 10.9508 16.5776C11.1243 16.5357 11.2786 16.4389 11.3894 16.3025C11.8113 15.8391 12.2246 15.3684 12.6294 14.8902C12.9626 14.4943 12.9206 14.0026 12.5499 13.7079C12.1792 13.4132 11.6871 13.4638 11.3383 13.849C10.932 14.2928 10.5294 14.7482 10.1468 15.2142C10.0153 15.3705 9.9523 15.5764 9.861 15.7592ZM14.9942 20.0058C15.08 19.9668 15.2946 19.9277 15.4124 19.8025C15.91 19.2699 16.3985 18.7329 16.8523 18.1675C17.1079 17.8497 17.0029 17.3783 16.6906 17.12C16.3784 16.8617 15.8844 16.8395 15.6023 17.1351C15.101 17.6615 14.6244 18.2127 14.1679 18.7764C13.9716 19.0179 13.998 19.3214 14.1569 19.5922C14.3158 19.8629 14.5651 19.9943 14.9915 20.0058H14.9942ZM12.8485 18.337C13.0266 18.2482 13.2493 18.2056 13.3744 18.0707C13.8583 17.5585 14.3277 17.0313 14.7705 16.4845C15.0389 16.1525 14.9458 15.6785 14.618 15.4113C14.2902 15.1441 13.8227 15.1281 13.5324 15.4326C13.0375 15.9492 12.5691 16.4925 12.1153 17.0446C11.9072 17.2976 11.919 17.6047 12.0916 17.8879C12.2514 18.1586 12.4988 18.2944 12.8458 18.337H12.8485Z" fill="#00B5D6"/>
</svg>
