<svg width="29" height="44" viewBox="0 0 29 44" fill="none" xmlns="http://www.w3.org/2000/svg">
<path d="M26.3308 0C26.9943 0.215221 27.5654 0.538053 27.9047 1.18372C28.0765 1.50811 28.1632 1.86998 28.1568 2.23614C28.1504 2.6023 28.0512 2.961 27.8682 3.27935C27.6853 3.59769 27.4244 3.86547 27.1096 4.05811C26.7948 4.25075 26.4361 4.36209 26.0665 4.38191C25.7957 4.3959 25.5227 4.38191 25.1268 4.38191C25.1268 5.25248 25.1801 6.08215 25.117 6.90215C24.77 11.4218 23.0112 15.3313 19.9363 18.6758C19.6122 19.0422 19.2684 19.391 18.9063 19.7207C17.4227 21.0185 17.4618 22.9544 18.89 24.2641C20.5723 25.806 21.9664 27.6296 23.0079 29.651C24.4658 32.4649 25.2182 35.5844 25.2018 38.7463V39.6072C25.4955 39.6072 25.7511 39.5986 26.0078 39.6072C26.5699 39.6244 27.1044 39.8525 27.5027 40.2453C27.9011 40.638 28.1334 41.1661 28.1527 41.7221C28.1719 42.2782 27.9766 42.8207 27.6063 43.2395C27.2361 43.6583 26.7186 43.9221 26.159 43.9773C26.0143 43.9902 25.8691 43.9956 25.7239 43.9934H2.44734C1.22804 43.9934 0.380729 43.4037 0.0870526 42.3599C0.0028074 42.0487 -0.0107782 41.723 0.0472706 41.4061C0.105319 41.0891 0.233563 40.7888 0.422799 40.5267C0.612035 40.2646 0.857569 40.0472 1.14178 39.8901C1.426 39.7329 1.74184 39.64 2.06665 39.6179C2.34075 39.6029 2.61593 39.6179 2.96399 39.6179C2.96399 39.3425 2.96399 39.0928 2.96399 38.8421C2.9374 35.9407 3.55565 33.069 4.775 30.4301C5.81265 28.1918 7.25493 26.2398 9.01046 24.5008C9.38571 24.1295 9.77184 23.7378 10.0242 23.2837C10.5963 22.2431 10.4799 21.2004 9.74248 20.2706C9.33242 19.7584 8.82773 19.3172 8.37525 18.8319C5.19702 15.455 3.39145 11.4713 3.04557 6.86233C2.98466 6.06601 3.03687 5.26216 3.03687 4.38729C2.72144 4.38729 2.49302 4.38729 2.27549 4.38729C1.09534 4.36684 0.170805 3.59312 0.0217912 2.51594C-0.129398 1.414 0.51669 0.441204 1.63157 0.0850124C1.69984 0.060398 1.76665 0.032016 1.83171 0L26.3308 0ZM4.45086 4.42818C4.3421 7.86634 5.03931 11.0688 6.68172 14.0593C7.66608 15.8511 8.96587 17.3953 10.4255 18.82C11.6949 20.0543 12.1376 21.5329 11.6481 23.2547C11.3784 24.2049 10.7312 24.8914 10.0481 25.5608C6.61972 28.9161 4.75904 32.9751 4.46609 37.738C4.42911 38.3449 4.46065 38.9551 4.46065 39.5674H23.6845C23.6996 39.5184 23.7109 39.4684 23.7182 39.4178C23.7976 36.3627 23.2233 33.4432 21.8691 30.6841C20.8456 28.5975 19.4175 26.8101 17.7533 25.196C15.8966 23.386 15.8194 20.9615 17.526 19.0449C18.0426 18.466 18.6267 17.9452 19.1412 17.3641C21.6667 14.5479 23.2313 11.0161 23.6127 7.27018C23.7139 6.33934 23.7095 5.3956 23.7541 4.43248L4.45086 4.42818ZM14.0378 2.92809H25.5466C25.7059 2.93405 25.8654 2.92973 26.0241 2.91517C26.1993 2.89799 26.3622 2.81828 26.4823 2.69093C26.6024 2.56359 26.6715 2.39733 26.6767 2.22324C26.6865 2.0552 26.6337 1.88944 26.5283 1.75736C26.4228 1.62527 26.2721 1.53603 26.1046 1.50655C25.9491 1.47418 25.7902 1.46117 25.6315 1.46781C17.9299 1.46781 10.2279 1.46781 2.52565 1.46781C2.38002 1.46061 2.23404 1.47 2.09058 1.49579C1.70554 1.58295 1.48582 1.82615 1.48473 2.22431C1.4897 2.40523 1.56347 2.57764 1.6913 2.7071C1.81914 2.83657 1.99163 2.91356 2.17433 2.92271C2.3179 2.9367 2.46366 2.93024 2.60941 2.93024L14.0378 2.92809ZM14.0824 41.0718H2.61593C2.45665 41.0658 2.29715 41.0701 2.13844 41.0847C1.96324 41.1023 1.80049 41.1823 1.68045 41.3098C1.56041 41.4373 1.49124 41.6035 1.48582 41.7777C1.47573 41.9446 1.52748 42.1095 1.63139 42.2414C1.7353 42.3733 1.88424 42.4633 2.05033 42.4944C2.20576 42.5271 2.3647 42.5405 2.52348 42.5342H25.6336C25.7792 42.5412 25.9251 42.5322 26.0687 42.5073C26.4537 42.419 26.6735 42.1758 26.6745 41.7788C26.6701 41.5976 26.5965 41.4248 26.4686 41.295C26.3407 41.1653 26.1679 41.0882 25.985 41.0793C25.8414 41.0653 25.6956 41.0718 25.5499 41.0718H14.0824Z" fill="white"/>
<path d="M14.0749 38.1384H7.08434C6.14893 38.1384 5.90746 37.8457 6.02276 36.9213C6.16968 35.5869 6.76889 34.3409 7.72282 33.3863C8.11765 32.9871 8.4842 32.5642 8.89426 32.1768C9.73613 31.374 10.7433 30.8768 11.9148 30.8392C13.3462 30.7929 14.7797 30.8015 16.2111 30.8392C17.2249 30.8618 18.1744 31.2007 18.901 31.8905C19.7646 32.7108 20.5689 33.59 21.3081 34.5216C21.8867 35.2544 22.0618 36.182 22.1554 37.1043C22.2293 37.836 21.9498 38.1373 21.1971 38.1384C18.8231 38.142 16.449 38.142 14.0749 38.1384ZM20.6315 36.6598C20.4923 36.2843 20.4009 35.955 20.253 35.6515C19.7799 34.6755 18.975 33.962 18.2136 33.2217C17.6402 32.6416 16.8582 32.3094 16.0382 32.2973C14.7221 32.2801 13.4027 32.2392 12.0921 32.3221C11.4882 32.3584 10.9051 32.5534 10.4029 32.887C9.4419 33.5579 8.63682 34.4241 8.04151 35.4277C7.82397 35.7936 7.7065 36.2143 7.52268 36.6598H20.6315Z" fill="white"/>
<path d="M11.191 9.74219C11.6935 9.90468 12.2634 9.96925 12.6876 10.248C14.3529 11.3434 16.2237 11.5931 18.1446 11.6975C18.5916 11.7222 19.0419 11.7244 19.4868 11.7728C20.2264 11.8535 20.6506 12.4895 20.2993 13.1308C19.9536 13.723 19.5325 14.2687 19.0463 14.7547C18.2849 15.5553 17.4582 16.3 16.661 17.0705C15.5374 18.1563 14.8989 19.4616 14.838 21.0284C14.8305 21.1569 14.8127 21.2847 14.7847 21.4104C14.7622 21.5765 14.6771 21.7281 14.5463 21.8347C14.4156 21.9412 14.249 21.995 14.0799 21.9851C13.7111 21.9851 13.4403 21.7892 13.3772 21.4104C13.2989 20.9315 13.2848 20.4419 13.1804 19.9674C12.9249 18.8417 12.3275 17.8203 11.4683 17.0403C10.2369 15.8673 9.1902 14.5183 8.36297 13.0383C8.26993 12.8857 8.21007 12.7156 8.18722 12.5388C8.16437 12.3621 8.17904 12.1825 8.23027 12.0117C8.58051 10.7268 9.78785 9.82505 11.191 9.74219ZM14.0646 18.0992C15.1447 16.0632 17.0286 14.8763 18.448 13.2288C18.3867 13.2031 18.3229 13.1837 18.2577 13.1707C15.9735 13.0846 13.7884 12.7187 11.8164 11.4575C11.1877 11.0561 10.2838 11.3499 9.88248 11.9288C9.72802 12.1505 9.64101 12.3647 9.83788 12.6272C10.4633 13.4634 11.0267 14.349 11.7 15.1464C12.4929 16.0858 13.4947 16.8542 14.0646 18.0992Z" fill="white"/>
<path d="M14.7931 24.5753C14.7985 25.3092 14.5538 25.6644 14.0545 25.6514C13.5553 25.6385 13.316 25.2845 13.3181 24.5517C13.3128 24.4079 13.3197 24.2639 13.3388 24.1212C13.3616 23.9426 13.4483 23.778 13.5832 23.6572C13.7181 23.5364 13.8922 23.4674 14.0741 23.4626C14.4602 23.4626 14.7561 23.7607 14.7909 24.1815C14.7931 24.3203 14.7931 24.4473 14.7931 24.5753Z" fill="white"/>
<path d="M14.7921 28.2442C14.7921 28.9878 14.5572 29.3203 14.0448 29.3203C13.5325 29.3203 13.3096 28.9641 13.3096 28.2238C13.3096 28.1668 13.3096 28.1097 13.3096 28.0527C13.3248 27.4737 13.6022 27.1444 14.071 27.152C14.5397 27.1595 14.7801 27.4694 14.7921 28.0344C14.7921 28.1011 14.7921 28.1732 14.7921 28.2442Z" fill="white"/>
</svg>
