<svg width="40" height="40" viewBox="0 0 40 40" fill="none" xmlns="http://www.w3.org/2000/svg">
<path d="M0 23.0326C0.216893 22.3021 0.706948 21.8456 1.29726 21.4237C3.34342 19.9507 5.34968 18.4162 7.38663 16.9302C7.69355 16.7079 8.07823 16.6162 8.51202 16.4252V16.0615C8.51202 13.1004 8.52429 10.1394 8.50588 7.17827C8.49974 6.21246 8.86293 5.55204 9.63126 5.00493C11.6958 3.53626 13.7236 2.00607 15.7513 0.486681C16.1524 0.186687 16.5698 0 17.0598 0C21.1781 0 25.296 0 29.4135 0C30.6044 0 31.4116 0.863291 31.431 2.15175C31.4443 3.05281 31.431 3.95495 31.431 4.85709C31.431 8.12825 31.431 11.399 31.431 14.6695C31.431 15.3169 31.3922 15.9364 30.9031 16.5407H31.3881C33.1784 16.5407 34.9688 16.586 36.7582 16.5245C37.9951 16.4824 38.8657 16.9108 39.2801 18.182V32.0788C39.1174 32.682 38.744 33.1277 38.3296 33.5594C36.7568 35.196 35.1936 36.842 33.6399 38.4974C33.4085 38.7567 33.1274 38.9612 32.8154 39.0972C32.5034 39.2332 32.1675 39.2976 31.83 39.2862C27.5996 39.27 23.3692 39.2776 19.1439 39.2798C18.3919 39.2798 17.6256 39.365 17.024 38.7402C16.5432 39.1848 16.0204 39.2873 15.4505 39.2798C13.8269 39.2657 12.2043 39.2798 10.5807 39.2798C7.73038 39.2798 4.88043 39.2798 2.03081 39.2798C1.07628 39.2798 0.406162 38.7661 0.0869617 37.8251C0.0620213 37.7654 0.0329559 37.7077 0 37.6525L0 23.0326ZM25.2066 37.9017H31.8812C32.5155 37.9017 32.7436 37.6686 32.7436 37.0082C32.7436 32.5515 32.7436 28.0955 32.7436 23.6402C32.7436 22.9819 32.5124 22.7391 31.8843 22.738C27.4339 22.738 22.9838 22.738 18.5341 22.738C17.9029 22.738 17.6757 22.9776 17.6747 23.6391C17.6747 28.0944 17.6747 32.5504 17.6747 37.0071C17.6747 37.6773 17.8947 37.9017 18.531 37.9017H25.2066ZM8.83735 37.9017H15.5119C16.1524 37.9017 16.359 37.6859 16.359 37.0071C16.359 32.5518 16.359 28.0958 16.359 23.6391C16.359 22.9657 16.1473 22.7391 15.5089 22.738C11.0585 22.738 6.60807 22.738 2.15767 22.738C1.52643 22.738 1.30443 22.9776 1.30443 23.6423C1.30443 28.0976 1.30443 32.5536 1.30443 37.0104C1.30443 37.674 1.52439 37.9017 2.16177 37.9017H8.83735ZM17.3412 6.20383C15.1293 6.20383 12.9171 6.20383 10.7045 6.20383C10.017 6.20383 9.82156 6.41965 9.82156 7.14589V20.3953C9.82156 21.1506 10.0108 21.3578 10.7229 21.3578H23.9963C24.6879 21.3578 24.8741 21.1571 24.8741 20.4168C24.8741 16.0011 24.8741 11.5857 24.8741 7.17071C24.8741 6.38943 24.6971 6.20706 23.939 6.20599L17.3412 6.20383ZM26.1847 19.5546C26.3402 19.4046 26.4333 19.3215 26.5192 19.2309C27.5863 18.1086 28.6431 16.9755 29.7225 15.8651C29.8582 15.7346 29.9651 15.5743 30.0358 15.3955C30.1065 15.2167 30.1392 15.0238 30.1317 14.8303C30.1222 10.8066 30.1201 6.78259 30.1256 2.75822C30.1256 2.62872 30.1133 2.49815 30.1061 2.34815C30.0599 2.36027 30.0152 2.3784 29.9731 2.40211C28.7011 3.56827 27.4311 4.73767 26.1632 5.91031C26.1015 5.99713 26.0747 6.10604 26.0885 6.21354C26.11 6.54591 26.1837 6.87827 26.1837 7.21064C26.1912 11.1537 26.1929 15.0972 26.1888 19.041L26.1847 19.5546ZM37.9787 18.8165C37.8253 18.9503 37.7363 19.0226 37.6513 19.1003C36.5444 20.1179 35.4476 21.1506 34.3243 22.1467C34.0082 22.4283 33.8496 22.6862 34.0071 23.1179C34.0767 23.3099 34.0532 23.543 34.0532 23.7578C34.0532 27.6872 34.0532 31.6166 34.0532 35.546V36.118C35.2962 34.8101 36.4431 33.5853 37.6053 32.3734C37.7307 32.2516 37.8295 32.1026 37.8951 31.9366C37.9606 31.7706 37.9912 31.5916 37.9849 31.4119C37.976 27.3609 37.974 23.3103 37.9787 19.26V18.8165ZM36.9004 17.9532C36.7674 17.9338 36.7203 17.9208 36.6723 17.9208C34.398 17.9208 32.1247 17.9144 29.8514 17.9284C29.6804 17.9453 29.5202 18.0243 29.3982 18.1518C28.6564 18.9072 27.9311 19.6884 27.1975 20.4568C26.9397 20.7276 26.6747 20.9898 26.4128 21.2553L26.4609 21.3514H26.864C28.5009 21.3514 30.1379 21.3438 31.7697 21.3589C32.1083 21.3589 32.4469 21.4603 32.7866 21.5003C32.8886 21.5228 32.9948 21.5064 33.0864 21.4539C34.3417 20.3165 35.5888 19.1651 36.9004 17.9575V17.9532ZM19.7055 4.7276L19.7331 4.82256H20.1055C21.3946 4.82256 22.6847 4.81609 23.9738 4.82796C24.2663 4.82298 24.5579 4.86334 24.8393 4.94774C24.925 4.98436 25.0192 4.9923 25.1092 4.97048C25.1993 4.94867 25.2808 4.89815 25.3427 4.8258C26.4824 3.76719 27.6282 2.71721 28.771 1.66291C28.8478 1.59169 28.9122 1.50644 29.0288 1.37803C27.572 1.37803 26.1918 1.41688 24.8158 1.36292C24.4841 1.33828 24.151 1.38361 23.836 1.49626C23.5211 1.60891 23.2305 1.78663 22.9814 2.01902C21.9215 2.96109 20.8012 3.8287 19.7055 4.7276ZM12.2636 4.7794C12.4089 4.80098 12.4805 4.8204 12.5511 4.82148C14.1083 4.82148 15.6664 4.82148 17.2235 4.81393C17.3848 4.80454 17.5395 4.74398 17.6675 4.64019C18.9034 3.64201 20.1291 2.63196 21.3598 1.62838C21.4388 1.57247 21.5216 1.5227 21.6074 1.47947C20.037 1.38235 18.5433 1.37911 17.0506 1.38882C16.8993 1.39483 16.7528 1.4461 16.6281 1.53666C15.4976 2.3665 14.3773 3.20713 13.2519 4.04452L12.2636 4.7794ZM3.73321 21.3265H8.53248V17.9619L8.41892 17.868L3.73321 21.3265Z" fill="white"/>
<path d="M21.5639 36.5237C21.1424 36.5237 20.7219 36.5312 20.3004 36.5237C19.5842 36.5075 19.0553 36.0046 19.0052 35.2589C18.9719 34.7362 18.9719 34.2116 19.0052 33.6888C19.0512 32.9194 19.5822 32.4079 20.3168 32.4004C21.1714 32.3903 22.0263 32.3903 22.8816 32.4004C23.6632 32.4079 24.2024 32.9572 24.2331 33.7827C24.2495 34.2381 24.2515 34.6967 24.2331 35.1521C24.1993 35.9733 23.6561 36.5139 22.8704 36.5258C22.4315 36.5291 21.9967 36.5247 21.5639 36.5237ZM20.3311 33.7924V35.1165H22.9011V33.7924H20.3311Z" fill="white"/>
<path d="M28.3261 34.3772C28.0058 34.3772 27.6856 34.3891 27.3664 34.3772C26.9735 34.3589 26.7086 34.0664 26.7147 33.6833C26.7146 33.5952 26.7309 33.508 26.7628 33.4266C26.7946 33.3451 26.8414 33.2711 26.9004 33.2088C26.9594 33.1465 27.0295 33.097 27.1067 33.0633C27.1838 33.0295 27.2665 33.0121 27.35 33.0121C28.014 32.996 28.68 32.996 29.344 33.0121C29.5129 33.0124 29.6747 33.0834 29.7941 33.2094C29.9134 33.3355 29.9804 33.5063 29.9804 33.6844C29.9813 33.7757 29.965 33.8663 29.9322 33.9508C29.8995 34.0353 29.851 34.1121 29.7897 34.1766C29.7284 34.241 29.6555 34.2919 29.5753 34.3262C29.495 34.3604 29.4091 34.3774 29.3225 34.3761C28.9911 34.3891 28.6575 34.3783 28.3261 34.3772Z" fill="white"/>
<path d="M28.3661 34.5763C28.6864 34.5763 29.0056 34.5655 29.3248 34.5763C29.4963 34.5739 29.6616 34.6434 29.7845 34.7696C29.9074 34.8958 29.9777 35.0683 29.9801 35.2492C29.9824 35.43 29.9164 35.6045 29.7968 35.7341C29.6772 35.8637 29.5136 35.9379 29.3422 35.9403C28.6772 35.9598 28.0125 35.9598 27.3482 35.9403C27.2614 35.9398 27.1755 35.9205 27.096 35.8838C27.0165 35.847 26.9449 35.7934 26.8857 35.7265C26.8265 35.6595 26.7809 35.5804 26.7517 35.4942C26.7225 35.4079 26.7103 35.3163 26.7159 35.2249C26.7313 34.8569 26.9891 34.5914 27.3697 34.5774C27.7011 34.5655 28.0336 34.5763 28.3661 34.5763Z" fill="white"/>
<path d="M5.23011 37.1298C4.79632 37.1298 4.36254 37.1384 3.92875 37.1298C3.58646 37.1335 3.25667 36.9942 3.01148 36.7422C2.76629 36.4903 2.62562 36.1462 2.62023 35.7852C2.60182 35.3158 2.60386 34.8442 2.62023 34.3748C2.61961 34.192 2.65384 34.011 2.72089 33.8425C2.78793 33.674 2.88643 33.5214 3.01051 33.3938C3.13459 33.2663 3.28172 33.1664 3.44316 33.1C3.6046 33.0336 3.77704 33.0022 3.95024 33.0076C4.81781 32.9975 5.68538 32.9975 6.55295 33.0076C7.29775 33.0173 7.82566 33.5633 7.85328 34.35C7.86965 34.8323 7.87067 35.3212 7.85328 35.8003C7.82361 36.5794 7.28752 37.1157 6.54067 37.1308C6.09768 37.1373 5.66389 37.1308 5.23011 37.1298ZM3.94307 35.7323H6.51509V34.4082H3.94307V35.7323Z" fill="white"/>
<path d="M14.1879 35.949C13.8687 35.949 13.5484 35.9598 13.2292 35.949C12.8282 35.9329 12.5714 35.6577 12.5714 35.266C12.5685 35.1746 12.5835 35.0836 12.6156 34.9987C12.6477 34.9137 12.6962 34.8368 12.7579 34.7726C12.8196 34.7084 12.8932 34.6584 12.9742 34.6257C13.0552 34.5931 13.1416 34.5785 13.2282 34.5829C13.8799 34.5688 14.5326 34.5667 15.1843 34.5829C15.3558 34.5829 15.5203 34.6547 15.6416 34.7826C15.7628 34.9105 15.8309 35.084 15.8309 35.2649C15.8309 35.4458 15.7628 35.6192 15.6416 35.7471C15.5203 35.875 15.3558 35.9469 15.1843 35.9469C14.8529 35.9609 14.5204 35.949 14.1879 35.949Z" fill="white"/>
<path d="M14.1955 33.0056C14.528 33.0056 14.8605 32.9938 15.192 33.0056C15.3573 33.0114 15.5141 33.0837 15.6303 33.2078C15.7464 33.3319 15.813 33.4983 15.8162 33.6727C15.8195 33.847 15.7593 34.016 15.6479 34.1449C15.5365 34.2738 15.3825 34.3527 15.2176 34.3653C14.5417 34.3876 13.8644 34.3876 13.1858 34.3653C13.102 34.3645 13.0193 34.3459 12.9426 34.3105C12.8659 34.2751 12.7968 34.2237 12.7394 34.1594C12.682 34.095 12.6376 34.0191 12.6088 33.9362C12.58 33.8532 12.5675 33.765 12.5719 33.6768C12.5719 33.284 12.8297 33.0175 13.2359 33.0024C13.5561 32.9959 13.8763 33.0045 14.1955 33.0056Z" fill="white"/>
<path d="M13.7562 19.9756C13.3224 19.9756 12.8886 19.9842 12.4549 19.9756C11.6927 19.9583 11.1535 19.4026 11.133 18.6084C11.1208 18.1389 11.1187 17.6685 11.133 17.198C11.1365 16.8433 11.2714 16.5042 11.5088 16.2531C11.7463 16.002 12.0675 15.859 12.4037 15.8545C13.2958 15.8343 14.1886 15.8343 15.0821 15.8545C15.4184 15.853 15.7415 15.9925 15.9803 16.2422C16.2192 16.4919 16.3542 16.8314 16.3559 17.1861C16.3722 17.6825 16.3743 18.18 16.3559 18.6763C16.3478 19.0231 16.2114 19.3528 15.9759 19.5948C15.7403 19.8368 15.4243 19.972 15.0954 19.9713C14.6494 19.9875 14.2033 19.9756 13.7562 19.9756ZM15.0248 18.5792V17.2552H12.4589V18.5792H15.0248Z" fill="white"/>
<path d="M21.928 17.2213C21.6088 17.2213 21.2886 17.2299 20.9694 17.2213C20.5683 17.2061 20.3095 16.9321 20.3085 16.5425C20.3056 16.4509 20.3206 16.3597 20.3527 16.2746C20.3847 16.1895 20.4331 16.1122 20.4947 16.0477C20.5564 15.9832 20.63 15.9328 20.711 15.8996C20.7919 15.8665 20.8785 15.8513 20.9653 15.8551C21.6037 15.8389 22.2431 15.8411 22.8825 15.8551C23.304 15.8637 23.5711 16.1572 23.5618 16.5608C23.5526 16.9644 23.2958 17.2083 22.8866 17.2245C22.5674 17.2299 22.2472 17.2213 21.928 17.2213Z" fill="white"/>
<path d="M21.9277 19.9744C21.6085 19.9744 21.2883 19.9852 20.9691 19.9744C20.5773 19.9593 20.3297 19.7111 20.3102 19.3366C20.3012 19.2456 20.3104 19.1537 20.3371 19.0667C20.3638 18.9796 20.4074 18.8995 20.4652 18.8313C20.523 18.7631 20.5937 18.7084 20.6727 18.6707C20.7518 18.6331 20.8374 18.6132 20.9241 18.6125C21.6003 18.5888 22.2787 18.5888 22.9539 18.6125C23.0376 18.615 23.1199 18.6352 23.196 18.672C23.2721 18.7088 23.3404 18.7614 23.3968 18.8267C23.4531 18.892 23.4964 18.9686 23.524 19.0519C23.5517 19.1353 23.563 19.2237 23.5575 19.3118C23.5483 19.6884 23.3038 19.9528 22.9201 19.97C22.5927 19.9862 22.2592 19.9744 21.9277 19.9744Z" fill="white"/>
</svg>
