<svg width="39" height="29" viewBox="0 0 39 29" fill="none" xmlns="http://www.w3.org/2000/svg">
<path fill-rule="evenodd" clip-rule="evenodd" d="M18.6988 0.0260703C18.5573 0.0459313 18.3007 0.104017 18.1287 0.155206C17.8992 0.223419 2.67088 7.1487 0.901431 7.98956C0.574033 8.14514 0.25155 8.44719 0.114764 8.72631C-0.0281952 9.01807 -0.038811 9.44236 0.0897577 9.72377C0.18931 9.94168 0.410708 10.1955 0.637846 10.3521C0.856609 10.503 17.7781 18.2371 18.123 18.3438C18.5603 18.4792 19.1758 18.5308 19.6814 18.4744C19.9182 18.4481 20.2323 18.3895 20.3793 18.3442C20.6982 18.2462 37.5502 10.5518 37.8156 10.3831C38.0587 10.2286 38.3074 9.95362 38.41 9.72589C38.5384 9.4409 38.5284 9.01681 38.3865 8.72607C38.2458 8.43793 37.9403 8.15822 37.568 7.97683C37.4085 7.89912 33.5271 6.12058 28.9427 4.02454C22.25 0.964579 20.5341 0.19481 20.2356 0.118479C19.8123 0.0102289 19.1117 -0.0318968 18.6988 0.0260703ZM19.7224 1.71933C19.8518 1.74396 22.6779 3.0153 27.2669 5.11335C31.3025 6.95841 34.9803 8.63867 35.4397 8.84721C35.899 9.05575 36.275 9.23631 36.2752 9.24844C36.2756 9.28651 20.0279 16.7017 19.821 16.7579C19.5665 16.8269 18.9323 16.8264 18.6808 16.7569C18.5727 16.7271 15.3172 15.2544 11.4463 13.4843C7.57552 11.7143 3.91749 10.0419 3.31742 9.76794C2.71732 9.49398 2.22683 9.26007 2.22738 9.24813C2.22793 9.23615 2.60388 9.05555 3.06288 8.84681C3.52183 8.63803 7.20145 6.95691 11.2398 5.11098C15.2782 3.26506 18.6575 1.73986 18.7495 1.7217C18.9882 1.67449 19.4802 1.67331 19.7224 1.71933Z" fill="white"/>
<path d="M0.684263 15.5906C0.302922 15.1887 0.426733 14.5474 0.9357 14.2882C1.06667 14.2216 1.15572 14.2058 1.33961 14.2168C1.53805 14.2286 1.70664 14.2908 2.40119 14.6087C2.8553 14.8166 4.42998 15.5362 5.90046 16.2078C7.37094 16.8794 10.8122 18.4535 13.5477 19.7058C16.6421 21.1223 18.6105 22.0023 18.7573 22.0347C19.0566 22.1007 19.4379 22.1011 19.7403 22.0357C19.8925 22.0028 22.9831 20.6091 28.4491 18.1084C37.4792 13.9774 37.1216 14.1304 37.4742 14.247C37.5557 14.2739 37.6951 14.3691 37.7841 14.4584C38.1123 14.7878 38.1245 15.2616 37.8133 15.5915C37.686 15.7265 36.6835 16.1949 29.2551 19.5904C24.6274 21.7058 20.7328 23.478 20.6004 23.5287C20.1427 23.7038 19.7695 23.7545 19.0964 23.7329C18.6355 23.7181 18.4123 23.6927 18.2026 23.6312C18.0489 23.5861 14.0768 21.7927 9.37582 19.6459C1.86576 16.2162 0.810984 15.7241 0.684263 15.5906Z" fill="white"/>
<path d="M0.684263 20.7363C0.302922 20.3345 0.426733 19.6931 0.9357 19.434C1.06667 19.3673 1.15572 19.3516 1.33961 19.3625C1.53805 19.3743 1.70664 19.4366 2.40119 19.7545C2.8553 19.9624 4.42998 20.6819 5.90046 21.3536C7.37094 22.0252 10.8122 23.5993 13.5477 24.8515C16.6421 26.2681 18.6105 27.148 18.7573 27.1804C19.0566 27.2464 19.4379 27.2468 19.7403 27.1814C19.8925 27.1485 22.9831 25.7548 28.4491 23.2542C37.4792 19.1232 37.1216 19.2761 37.4742 19.3927C37.5557 19.4197 37.6951 19.5148 37.7841 19.6042C38.1123 19.9335 38.1245 20.4074 37.8133 20.7372C37.686 20.8723 36.6835 21.3406 29.2551 24.7362C24.6274 26.8515 20.7328 28.6237 20.6004 28.6744C20.1427 28.8495 19.7695 28.9002 19.0964 28.8786C18.6355 28.8638 18.4123 28.8385 18.2026 28.7769C18.0489 28.7319 14.0768 26.9385 9.37582 24.7916C1.86576 21.362 0.810984 20.8699 0.684263 20.7363Z" fill="white"/>
</svg>
