<svg width="116" height="77" viewBox="0 0 116 77" fill="none" xmlns="http://www.w3.org/2000/svg">
<path fill-rule="evenodd" clip-rule="evenodd" d="M30.9085 55.3972C30.0905 56.6172 29.2117 57.6455 28.272 58.4123C26.2446 60.0593 23.8517 61.0441 21.2413 61.2009L21.0064 61.2183H20.7627C18.3525 61.1922 16.0466 60.5212 14.0279 59.1966C8.51998 55.5802 4.07361 43.6153 0.949835 37.5763L0.85412 37.3933L0.767107 37.2016C-0.720818 33.8466 -0.0769202 30.0994 2.62049 27.5722C5.04815 25.2978 8.7027 24.2695 11.9831 24.2782C14.4369 24.2869 16.3512 25.2194 17.8826 26.6485C18.4569 25.8729 19.1269 25.1845 19.9013 24.5919C18.8049 20.47 21.4327 16.2523 25.4614 15.4244C26.2184 9.10652 31.5872 4.20906 38.1044 4.20906C43.4209 4.20906 47.9804 7.47694 49.886 12.1217C53.41 12.3221 56.499 15.1543 56.7339 19.3459L65.5658 20.3742C65.705 19.738 65.9225 19.1106 66.2532 18.5093L66.8188 13.6554C67.2625 9.82981 68.9854 6.21336 72.6486 4.5402C75.929 3.05005 79.6358 3.73848 82.4115 5.94321C82.9075 6.33536 83.36 6.77979 83.7863 7.26779C84.8653 7.38979 85.9007 7.65122 86.8666 8.02594C90.06 6.49222 93.8189 6.63164 96.6904 8.81023C99.9012 11.2415 100.789 15.1543 100.388 18.9799L100.162 21.1236C102.251 21.6988 104.13 22.8055 105.679 24.4002C107.967 26.7531 108.977 29.838 109.212 33.0536C109.299 34.1951 109.264 35.3541 109.142 36.5132C110.621 37.158 111.987 38.0294 113.092 39.2407C115.276 41.6459 115.929 44.9138 114.824 47.9812C114.328 49.3581 113.623 50.6304 112.753 51.8068C111.387 53.6456 109.681 54.9266 107.75 55.5627C107.202 56.6172 106.401 57.5757 105.339 58.3949C104.6 58.97 103.825 59.4929 103.025 59.9809C101.842 60.7042 100.589 61.2706 99.2399 61.5756C95.8377 62.3425 92.4006 60.9569 90.6778 57.872L90.643 57.811L90.6082 57.75C90.1209 56.835 89.651 55.9113 89.1898 54.9789C87.4496 55.9462 85.3613 56.1292 83.4383 55.4843C81.0889 56.774 78.0957 56.7217 75.6767 54.9353C75.4679 54.7784 75.2677 54.6129 75.0676 54.4473C74.8066 55.2054 74.4759 55.9374 74.0931 56.6433C71.0215 62.2728 64.5999 62.7433 58.9441 62.0113C55.2721 61.5408 51.6437 60.4863 48.0326 60.0506C44.7174 59.6585 41.6198 58.2816 40.01 55.1706C38.8615 55.1619 37.7303 54.883 36.7035 54.3427C34.9459 55.3362 32.9707 55.7719 30.891 55.371L30.9085 55.3972Z" fill="#006873"/>
<path fill-rule="evenodd" clip-rule="evenodd" d="M31.5437 51.65C30.7258 52.87 29.847 53.8983 28.9072 54.6651C26.8798 56.3121 24.4869 57.2969 21.8766 57.4537L21.6416 57.4712H21.398C18.9877 57.445 16.6819 56.774 14.6632 55.4494C9.15523 51.833 4.70886 39.8682 1.58509 33.8291L1.48937 33.6461L1.40236 33.4544C-0.0855638 30.0994 0.558334 26.3522 3.25574 23.825C5.68341 21.5506 9.33796 20.5223 12.6184 20.531C15.0721 20.5397 16.9864 21.4722 18.5178 22.9013C19.0921 22.1257 19.7621 21.4373 20.5366 20.8447C19.4402 16.7228 22.068 12.5051 26.0967 11.6772C26.8537 5.35933 32.2224 0.461863 38.7397 0.461863C44.0562 0.461863 48.6157 3.72975 50.5213 8.37449C54.054 8.57493 57.1343 11.4071 57.3692 15.5987L66.201 16.627C66.3403 15.9908 66.5578 15.3634 66.8885 14.7621L67.454 9.90822C67.8978 6.08262 69.6207 2.46616 73.2839 0.793008C76.5643 -0.697146 80.2711 -0.00871207 83.0468 2.19602C83.5428 2.58816 83.9952 3.0326 84.4216 3.5206C85.5006 3.6426 86.536 3.90403 87.5106 4.27875C90.7039 2.74502 94.4629 2.88445 97.3344 5.06304C100.545 7.49435 101.433 11.4071 101.032 15.2327L100.806 17.3764C102.894 17.9516 104.765 19.0583 106.323 20.653C108.611 23.0059 109.621 26.0908 109.856 29.3064C109.943 30.448 109.908 31.607 109.786 32.766C111.265 33.4108 112.631 34.2823 113.736 35.4936C115.92 37.8987 116.573 41.1666 115.468 44.2341C114.972 45.6109 114.267 46.8832 113.397 48.0597C112.031 49.8984 110.325 51.1794 108.394 51.8155C107.846 52.87 107.045 53.8286 105.983 54.6477C105.244 55.2229 104.469 55.7457 103.669 56.2337C102.486 56.957 101.233 57.5234 99.8838 57.8284C96.4816 58.5953 93.0446 57.2097 91.3217 54.1248L91.2869 54.0638L91.2521 54.0028C90.7649 53.0878 90.295 52.1641 89.8338 51.2317C88.0936 52.199 86.0052 52.382 84.0822 51.7371C81.7329 53.0268 78.7396 52.9746 76.3207 51.1881C76.1118 51.0312 75.9117 50.8657 75.7116 50.7001C75.4505 51.4583 75.1199 52.1903 74.737 52.8961C71.6655 58.5256 65.2439 58.9962 59.5881 58.2642C55.9161 57.7936 52.2876 56.7304 48.6766 56.3034C45.3614 55.9113 42.2637 54.5344 40.654 51.4234C39.5054 51.4147 38.3742 51.1358 37.3475 50.5955C35.5898 51.589 33.6146 52.0247 31.535 51.6238L31.5437 51.65Z" fill="#FEFEFE"/>
<path d="M95.1763 30.2214C94.7847 30.3347 94.6542 30.5264 94.776 30.7791L96.2814 34.1167C96.4902 34.5001 96.7686 34.535 97.1254 34.23C97.4735 33.925 97.7867 33.4805 98.039 32.8793C98.3001 32.278 98.3784 31.7202 98.2827 31.2061C98.187 30.8662 97.952 30.6048 97.5692 30.4305C97.195 30.2562 96.7773 30.1517 96.3249 30.1168C95.8637 30.0819 95.4809 30.1168 95.1676 30.2127L95.1763 30.2214ZM93.5579 24.3653C95.0893 23.8338 96.5511 23.6333 97.952 23.764C99.3442 23.9035 100.51 24.4525 101.45 25.4111C102.39 26.3783 102.929 27.8424 103.077 29.8118C103.216 31.7725 102.799 34.3345 101.807 37.4717C103.817 38.1689 110.16 38.9183 109.081 41.9248C108.82 42.6306 108.446 43.319 107.95 43.9988C105.775 46.9181 103.73 44.8005 100.023 43.4846C101.311 45.7242 103.66 47.8505 101.85 49.2448C101.337 49.637 100.78 50.0291 100.145 50.4212C99.5183 50.8047 98.9353 51.0661 98.3958 51.1881C97.8563 51.3101 97.4909 51.1881 97.2733 50.8047C95.6984 47.8505 94.3149 44.8441 93.1402 41.7853C91.9655 38.7353 90.843 35.6678 89.8076 32.5917C88.1195 27.6419 87.232 26.6049 93.5753 24.3566L93.5579 24.3653Z" fill="#9EC400"/>
<path fill-rule="evenodd" clip-rule="evenodd" d="M84.3604 32.5481C84.256 32.1995 87.0404 32.7833 86.6054 31.2148C86.2399 29.8902 85.3089 29.0187 85.2132 27.5896C85.0391 24.8881 89.616 23.3108 90.6167 21.9166C91.1127 21.2368 90.9734 20.6443 90.0163 21.0277C85.6221 22.7618 80.9147 24.3653 73.4838 18.0212C72.9878 17.5942 72.7181 17.8034 72.8573 19.2064C72.9965 20.0865 75.6591 22.6921 76.2421 23.6681C78.7481 27.8336 74.528 30.6048 75.4068 31.8161C75.7287 32.2518 76.8947 31.9206 76.973 32.5481C77.1993 34.3606 77.7474 43.7896 80.3665 45.7154C81.6456 46.6566 81.402 41.8288 81.3411 39.3017C81.2976 37.4194 82.3069 38.7091 82.4287 38.9705C86.5358 48.2077 88.9547 48.4169 84.3691 32.5393L84.3604 32.5481Z" fill="#DA0C67"/>
<path fill-rule="evenodd" clip-rule="evenodd" d="M83.0551 10.2655C80.0358 10.2655 77.582 12.7142 77.582 15.7468C77.582 18.7707 80.0271 21.2282 83.0551 21.2282C86.0745 21.2282 88.5283 18.7707 88.5283 15.7468C88.5283 12.7229 86.0832 10.2655 83.0551 10.2655ZM86.7706 18.1868L78.7567 16.7054C79.1744 19.0757 81.4367 20.653 83.8035 20.2347C85.0913 20.0081 86.1441 19.2326 86.7706 18.1868Z" fill="#DA0C67"/>
<path fill-rule="evenodd" clip-rule="evenodd" d="M94.2712 14.5181C94.7323 10.1522 92.3221 9.53347 90.4687 10.431C89.0939 11.0933 88.3804 12.7055 88.3804 12.7055C88.3804 12.7055 92.0871 10.248 94.2712 14.5094V14.5181Z" fill="#DA0C67"/>
<path fill-rule="evenodd" clip-rule="evenodd" d="M74.2236 10.6925C74.7283 6.33536 77.2169 6.25693 78.8353 7.53793C80.0274 8.4878 80.3668 10.222 80.3668 10.222C80.3668 10.222 77.2865 7.01507 74.2236 10.6925Z" fill="#DA0C67"/>
<path d="M53.14 21.9689C52.0088 21.8207 51.2866 22.056 50.9733 22.6835C50.2685 24.0691 51.4432 28.3478 52.557 28.6877L59.5267 29.3238C60.5709 29.3499 61.18 29.4981 61.3627 29.7595C61.5367 30.021 61.4584 30.3608 61.1104 30.7791C60.7623 31.1887 60.3272 31.6244 59.8052 32.095C59.4571 32.4174 59.1439 32.7224 58.8393 33.0274L50.982 40.7396C50.2598 41.4367 49.4941 42.2385 48.7023 43.1622C47.9105 44.0859 47.2927 45.0096 46.8576 45.9246C46.4225 46.8396 46.3703 47.6327 46.701 48.2949C47.0403 48.9572 47.9714 49.3755 49.4854 49.5585C55.4458 50.2731 66.3572 54.0638 68.7588 49.6457C69.0808 49.0618 69.3244 48.4431 69.4897 47.7895C69.6551 47.1359 69.6289 46.5434 69.4201 45.9944C69.2026 45.4453 68.6892 45.0358 67.88 44.7482L60.4404 44.0162C59.4919 43.9116 58.9611 43.685 58.8654 43.319C58.761 42.953 58.9002 42.5348 59.2831 42.0729C59.6659 41.611 60.101 41.1753 60.5883 40.7745L69.6812 30.997C71.0212 29.7769 71.8391 28.6354 72.1349 27.5635C72.4308 26.5004 72.2045 25.6115 71.4649 24.9143C70.734 24.2172 69.4984 23.7989 67.7669 23.6769L53.1487 21.9689H53.14Z" fill="#F8B32D"/>
<path fill-rule="evenodd" clip-rule="evenodd" d="M32.5269 44.8703C32.5269 44.8703 31.2565 44.4607 32.5269 42.2124C33.7973 39.9641 38.8267 26.4307 31.6742 22.5877C30.9259 22.1868 28.3068 20.7228 27.3931 19.5638C26.8275 18.8492 27.0538 18.0737 28.0979 18.4832C32.8575 20.3655 41.437 22.396 49.4771 15.5378C50.0165 15.0759 50.73 14.9016 50.5734 16.4267C50.2254 18.6401 43.8386 22.3524 43.9865 25.1584C44.0387 26.2216 45.8486 39.1101 41.4457 44.1644C40.0448 45.7679 39.5663 42.9444 39.6272 40.2168C39.6707 38.1777 38.3307 39.5284 38.1566 39.7811C36.1901 42.622 34.389 45.5239 32.5356 44.8877L32.5269 44.8703Z" fill="#00B5D6"/>
<path fill-rule="evenodd" clip-rule="evenodd" d="M38.7483 7.28528C42.02 7.28528 44.6739 9.94316 44.6739 13.2198C44.6739 16.4963 42.02 19.1542 38.7483 19.1542C35.4767 19.1542 32.8228 16.4963 32.8228 13.2198C32.8228 9.94316 35.4767 7.28528 38.7483 7.28528ZM35.1547 16.4963L43.421 13.394C43.421 15.9996 41.3152 18.1172 38.7048 18.1172C37.2865 18.1172 36.0161 17.4898 35.1547 16.4963Z" fill="#00B5D6"/>
<path d="M7.64102 30.6833C9.79895 34.8574 14.9936 47.4932 18.4045 49.7328C19.3095 50.3254 20.3449 50.6304 21.4848 50.6391C22.616 50.5694 23.6601 50.1424 24.626 49.3581C28.3066 46.3778 31.3434 33.498 32.0047 28.3827C32.2483 27.5025 32.1265 26.8402 31.6566 26.3871C30.5864 25.3501 28.4633 25.2978 27.0537 25.4285C20.2144 26.1344 23.869 36.3563 21.6849 40.391C21.4848 40.757 21.2151 40.9836 20.9018 41.0359C20.5712 41.0795 20.2579 40.9662 19.9795 40.6873C17.7258 38.5175 16.0465 27.3369 12.6269 27.3369C11.1477 27.3282 9.04193 27.7552 7.92817 28.7922C7.40609 29.289 7.31037 29.9077 7.64972 30.6745L7.64102 30.6833Z" fill="#A3057F"/>
<path d="M24.9308 76.9041C24.7829 76.9041 24.635 76.878 24.4957 76.817C24.3565 76.756 24.2347 76.6775 24.1303 76.5817C24.0259 76.4771 23.9389 76.3551 23.8779 76.2244C23.817 76.0849 23.7822 75.9455 23.7822 75.7974V66.8477C23.7822 66.5427 23.8953 66.29 24.1303 66.0634C24.2347 65.9589 24.3565 65.8804 24.4957 65.8194C24.635 65.7672 24.7829 65.7323 24.9308 65.7323C25.2527 65.7323 25.5138 65.8369 25.7313 66.0547C25.9402 66.2726 26.0446 66.534 26.0446 66.839L26.0359 71.3879L28.5244 69.1048C28.742 68.9043 28.9856 68.8085 29.2641 68.8085C29.412 68.8085 29.5599 68.8346 29.6991 68.8956C29.8383 68.9566 29.9602 69.035 30.0646 69.1396C30.169 69.2529 30.256 69.3836 30.3169 69.5143C30.3778 69.6538 30.4126 69.8019 30.4126 69.95C30.4213 70.0982 30.3865 70.2376 30.3256 70.377C30.2647 70.5165 30.1777 70.6385 30.0646 70.7431L27.9937 72.6428L30.5431 74.9782C30.7433 75.1612 30.8477 75.3965 30.8477 75.6754C30.8477 75.8322 30.8216 75.9804 30.7607 76.1198C30.6998 76.2592 30.6215 76.3899 30.517 76.5032C30.2908 76.7472 30.0298 76.8692 29.7339 76.8692C29.4207 76.8692 29.1422 76.756 28.8986 76.5294L26.0185 73.8976V75.7887C26.0185 75.9455 25.9924 76.0849 25.9315 76.2244C25.8705 76.3551 25.7922 76.4771 25.6965 76.573C25.479 76.7908 25.2179 76.8954 24.9134 76.8954L24.9308 76.9041ZM33.2928 67.998C32.9621 67.998 32.6837 67.876 32.44 67.6407C32.3269 67.5275 32.2399 67.3967 32.1703 67.2486C32.1094 67.1004 32.0746 66.9436 32.0746 66.7867C32.0746 66.4556 32.1964 66.168 32.44 65.924C32.675 65.6887 32.9534 65.5754 33.2928 65.5754C33.4581 65.5754 33.6147 65.6103 33.7626 65.6626C33.9106 65.7236 34.0411 65.8107 34.1542 65.924C34.3891 66.1593 34.5109 66.4469 34.5109 66.7867C34.5109 67.1179 34.3891 67.3967 34.1542 67.632C34.0411 67.7453 33.9106 67.8325 33.7626 67.8935C33.6147 67.9545 33.4581 67.9893 33.2928 67.9893V67.998ZM33.2928 77C33.1448 77 32.9969 76.9738 32.8577 76.9128C32.7185 76.8518 32.5967 76.7734 32.5009 76.6688C32.3965 76.5642 32.3095 76.4422 32.2486 76.3028C32.1877 76.1634 32.1529 76.0239 32.1529 75.8758V69.8106C32.1529 69.6625 32.1877 69.5143 32.2486 69.3836C32.3095 69.2442 32.3965 69.1222 32.5009 69.0176C32.6054 68.913 32.7272 68.8346 32.8664 68.7736C33.0143 68.7126 33.1622 68.6865 33.3102 68.6865C33.4581 68.6865 33.5973 68.7126 33.7365 68.7736C33.8758 68.8346 33.9976 68.913 34.102 69.0176C34.2064 69.1222 34.2847 69.2355 34.3369 69.3749C34.3891 69.5143 34.4152 69.6538 34.4152 69.8106V75.8758C34.4152 76.0239 34.3891 76.1634 34.3282 76.3028C34.2673 76.4422 34.189 76.5642 34.0846 76.6688C33.9802 76.7734 33.867 76.8518 33.7278 76.9128C33.5886 76.9738 33.4494 77 33.2928 77ZM39.8361 77C39.2706 77 38.7398 76.8954 38.2438 76.6775C37.7391 76.4684 37.3041 76.1634 36.9125 75.7799C36.5296 75.3965 36.2251 74.9608 36.0076 74.4554C35.79 73.9499 35.6856 73.4184 35.6856 72.8519C35.6856 72.2942 35.79 71.7539 36.0076 71.2485C36.2251 70.7431 36.5209 70.2986 36.9125 69.9065C37.2954 69.523 37.7391 69.218 38.2438 69.0089C38.7485 68.791 39.2793 68.6865 39.8361 68.6865C40.3147 68.6865 40.6976 68.7475 40.9934 68.8607C41.2893 68.9827 41.5329 69.1658 41.7243 69.4098V66.839C41.7243 66.5079 41.8288 66.2203 42.0463 65.9937C42.2551 65.7759 42.5249 65.6626 42.8468 65.6626C42.9947 65.6626 43.1426 65.6887 43.2906 65.7497C43.4298 65.8107 43.5516 65.8892 43.656 65.9937C43.7604 66.0983 43.8388 66.229 43.8997 66.3684C43.9606 66.5166 43.9867 66.6647 43.9867 66.8303V72.8432C43.9867 73.4096 43.8823 73.9412 43.6647 74.4379C43.4559 74.9434 43.1514 75.3791 42.7685 75.7712C42.3943 76.1547 41.9506 76.451 41.4372 76.6688C40.9325 76.8867 40.393 76.9912 39.8361 76.9912V77ZM39.8361 74.7255C40.0885 74.7255 40.3321 74.6732 40.5671 74.5774C40.802 74.4815 41.0021 74.3508 41.1675 74.1765C41.3415 74.0022 41.4807 73.8018 41.5764 73.5752C41.6721 73.3486 41.7243 73.1046 41.7243 72.8519C41.7243 72.5992 41.6721 72.3552 41.5764 72.1286C41.4807 71.9021 41.3415 71.7016 41.1675 71.5273C40.9934 71.3618 40.7933 71.2223 40.5671 71.1265C40.3321 71.0306 40.0885 70.9783 39.8361 70.9783C39.5838 70.9783 39.3489 71.0306 39.1139 71.1265C38.8877 71.2223 38.6876 71.3531 38.5135 71.5273C38.3395 71.7016 38.2003 71.9021 38.1046 72.1286C38.0089 72.3552 37.9567 72.5992 37.9567 72.8519C37.9567 73.1046 38.0089 73.3486 38.1046 73.5752C38.209 73.8018 38.3395 74.0022 38.5135 74.1765C38.6876 74.3508 38.8877 74.4815 39.1139 74.5774C39.3402 74.6732 39.5838 74.7255 39.8361 74.7255ZM46.2142 76.9041C45.9184 76.9041 45.6747 76.7995 45.4746 76.5817C45.2745 76.3638 45.1788 76.0849 45.1788 75.7451C45.1788 75.4052 45.2745 75.1438 45.4659 74.9434C45.6573 74.7429 45.901 74.6384 46.2142 74.6384H49.2597C49.3902 74.6384 49.4946 74.6122 49.5729 74.5599C49.6773 74.4902 49.7382 74.3856 49.7382 74.2462C49.7382 74.0981 49.686 73.9935 49.5729 73.9412C49.512 73.9064 49.3989 73.8889 49.251 73.8889H47.8675C47.502 73.8889 47.1714 73.8192 46.8581 73.6711C46.5449 73.5229 46.2751 73.3312 46.0489 73.0698C45.8227 72.8171 45.6486 72.5208 45.5181 72.1983C45.3876 71.8759 45.3267 71.5361 45.3267 71.1962C45.3267 70.865 45.3963 70.5426 45.5268 70.2289C45.6573 69.9152 45.8401 69.6538 46.075 69.4272C46.3099 69.1919 46.5884 69.0089 46.8929 68.8782C47.1975 68.7475 47.5281 68.6865 47.8675 68.6865H50.504C50.8259 68.6865 51.0956 68.7823 51.2958 68.9653C51.5133 69.1658 51.6264 69.4446 51.6264 69.7845C51.6264 70.1156 51.522 70.3858 51.3219 70.6123C51.2262 70.7169 51.1218 70.804 50.9825 70.8651C50.852 70.9261 50.7128 70.9522 50.5736 70.9522H47.911C47.824 70.9522 47.7543 70.9871 47.6847 71.0481C47.6238 71.1091 47.589 71.1875 47.589 71.2833C47.589 71.4053 47.6151 71.4925 47.6847 71.5361C47.7456 71.5883 47.8153 71.6145 47.8936 71.6145H49.4424C49.8079 71.6145 50.1472 71.6842 50.4605 71.8236C50.7737 71.9631 51.0521 72.1635 51.2871 72.4162C51.5133 72.6689 51.6873 72.9565 51.8179 73.2789C51.9397 73.6014 52.0006 73.9412 52.0006 74.2898C52.0006 74.6384 51.9397 74.9608 51.8266 75.2745C51.7047 75.5795 51.5394 75.8584 51.3132 76.0937C51.0869 76.3377 50.8172 76.5294 50.5127 76.6688C50.2081 76.8082 49.8775 76.8867 49.5207 76.8954H46.2229L46.2142 76.9041ZM60.0145 77C59.5968 77 59.2053 76.9215 58.8398 76.7647C58.4744 76.6078 58.1524 76.3812 57.874 76.1024C57.5955 75.8235 57.3693 75.5011 57.2127 75.1351C57.056 74.7691 56.9777 74.3769 56.9777 73.9586V69.9326C56.9777 69.6189 57.0909 69.3488 57.3084 69.1309C57.5259 68.9218 57.7957 68.8172 58.1089 68.8172C58.4134 68.8172 58.6745 68.9218 58.892 69.1309C59.1096 69.3488 59.214 69.6189 59.2227 69.9326L59.2575 73.8889C59.2575 73.9238 59.2488 73.9761 59.2401 74.0632C59.2836 74.2462 59.388 74.4031 59.5359 74.5164C59.6838 74.6297 59.8666 74.6906 60.058 74.6906C60.2929 74.6906 60.4844 74.6035 60.641 74.4292C60.7976 74.2462 60.8672 74.0458 60.8672 73.8192V69.9413C60.8672 69.6276 60.9803 69.3662 61.1979 69.1396C61.4154 68.9217 61.6851 68.8085 61.9984 68.8085C62.155 68.8085 62.2942 68.8346 62.4335 68.8956C62.564 68.9566 62.6858 69.035 62.7902 69.1396C63.0077 69.3662 63.1122 69.6363 63.1122 69.9413V73.8541V73.9325C63.1035 73.9499 63.1035 73.9761 63.1035 74.0109C63.1296 74.1939 63.2253 74.3595 63.3732 74.4815C63.5211 74.6035 63.6951 74.6732 63.8953 74.6732C63.9997 74.6732 64.1041 74.6558 64.2085 74.6122C64.3129 74.5687 64.4087 74.5164 64.4957 74.4379C64.6784 74.2898 64.7741 74.1068 64.7741 73.8889V69.9326C64.7741 69.6189 64.8872 69.3488 65.1048 69.1309C65.3223 68.9218 65.592 68.8172 65.9053 68.8172C66.2011 68.8172 66.4622 68.9218 66.6884 69.1309C66.9146 69.3488 67.019 69.6189 67.019 69.9326V73.9586C67.019 74.3769 66.932 74.7691 66.7754 75.1351C66.6101 75.5011 66.3839 75.8235 66.088 76.1024C65.7922 76.3812 65.4615 76.6078 65.0787 76.7647C64.6958 76.9215 64.3042 77 63.8866 77C63.1818 77 62.5379 76.7647 61.9549 76.3028C61.3719 76.7647 60.728 77 60.0145 77ZM71.9527 77C71.3958 77 70.8563 76.8954 70.3517 76.6775C69.8383 76.4597 69.3945 76.1634 69.0117 75.7799C68.6288 75.3965 68.3242 74.9521 68.1067 74.4466C67.8892 73.9412 67.7761 73.4096 67.7761 72.8519C67.7761 72.2855 67.8892 71.7452 68.1067 71.2398C68.3242 70.7343 68.6288 70.2899 69.0117 69.8978C69.3945 69.5143 69.8383 69.218 70.3517 69.0089C70.8563 68.791 71.3958 68.6865 71.9614 68.6865C72.5183 68.6865 73.0491 68.791 73.5537 69.0002C74.0584 69.2093 74.5022 69.5056 74.885 69.8803C75.2679 70.2638 75.5637 70.6995 75.79 71.2049C76.0075 71.7016 76.1293 72.2332 76.138 72.7909C76.138 73.1134 76.0336 73.3748 75.8248 73.5665C75.6159 73.7582 75.3462 73.8628 75.0243 73.8628H70.3081C70.4996 74.1591 70.7345 74.3944 71.0217 74.5599C71.3088 74.7342 71.622 74.8127 71.9614 74.8127C72.1702 74.8127 72.3443 74.7952 72.4835 74.7604C72.6227 74.7255 72.7445 74.6732 72.8576 74.6035C73.0752 74.4641 73.2927 74.4031 73.5102 74.4031C73.8148 74.4031 74.0758 74.5164 74.302 74.7516C74.3978 74.8562 74.4761 74.9869 74.5283 75.1264C74.5892 75.2658 74.6153 75.4139 74.6153 75.5708C74.6153 75.7712 74.5631 75.9542 74.45 76.1198C74.3369 76.2941 74.1802 76.4422 73.9627 76.5642C73.4667 76.8431 72.8054 76.9912 71.9614 76.9912L71.9527 77ZM73.8061 71.9805C73.6494 71.6319 73.4058 71.3618 73.0839 71.1613C72.7619 70.9609 72.4052 70.8563 71.9962 70.8563C71.5872 70.8563 71.2305 70.9609 70.9259 71.1613C70.6214 71.3705 70.3865 71.6406 70.2298 71.9805H73.8061ZM81.0282 77C80.4626 77 79.9318 76.8954 79.4358 76.6775C78.9311 76.4684 78.4961 76.1634 78.1045 75.7799C77.7217 75.3965 77.4171 74.9608 77.1996 74.4554C76.9821 73.9499 76.8776 73.4184 76.8776 72.8519C76.8776 72.2942 76.9821 71.7539 77.1996 71.2485C77.4171 70.7431 77.713 70.2986 78.1045 69.9065C78.4874 69.523 78.9311 69.218 79.4358 69.0089C79.9405 68.791 80.4713 68.6865 81.0282 68.6865C81.585 68.6865 82.1071 68.791 82.6118 69.0002C83.1165 69.2093 83.5515 69.5056 83.9344 69.889C84.3086 70.2638 84.6131 70.6995 84.8306 71.1962C85.0482 71.6929 85.1613 72.2245 85.17 72.7822V75.8409C85.17 76.1634 85.0569 76.4335 84.8393 76.6601C84.7349 76.7647 84.6044 76.8518 84.4652 76.9128C84.326 76.9738 84.178 77 84.0127 77C83.8039 77 83.6212 76.9564 83.4558 76.8605C83.2905 76.7647 83.16 76.634 83.0643 76.4684C82.4204 76.8257 81.7417 77 81.0195 77H81.0282ZM81.0282 74.7255C81.2805 74.7255 81.5241 74.6732 81.7591 74.5774C81.994 74.4815 82.1941 74.3508 82.3595 74.1765C82.5335 74.0022 82.6727 73.8018 82.7684 73.5752C82.8641 73.3486 82.9164 73.1046 82.9164 72.8519C82.9164 72.5992 82.8641 72.3552 82.7684 72.1286C82.6727 71.9021 82.5335 71.7016 82.3595 71.5273C82.1854 71.3618 81.9853 71.2223 81.7591 71.1265C81.5241 71.0306 81.2805 70.9783 81.0282 70.9783C80.7758 70.9783 80.5409 71.0306 80.306 71.1265C80.0797 71.2223 79.8796 71.3531 79.7056 71.5273C79.5315 71.7016 79.3923 71.9021 79.2966 72.1286C79.2009 72.3552 79.1487 72.5992 79.1487 72.8519C79.1487 73.1046 79.2009 73.3486 79.2966 73.5752C79.401 73.8018 79.5315 74.0022 79.7056 74.1765C79.8796 74.3508 80.0797 74.4815 80.306 74.5774C80.5322 74.6732 80.7758 74.7255 81.0282 74.7255ZM87.85 76.9041C87.6934 76.9041 87.5541 76.878 87.4062 76.817C87.267 76.756 87.1452 76.6775 87.0408 76.5817C86.9364 76.4771 86.8493 76.3551 86.7884 76.2244C86.7275 76.0849 86.6927 75.9455 86.6927 75.7887V72.9304C86.7101 72.3639 86.8319 71.8236 87.0582 71.3095C87.2844 70.7953 87.5977 70.3422 87.9979 69.95C88.3895 69.5666 88.8419 69.2616 89.3553 69.0438C89.8687 68.8259 90.4082 68.7039 90.9825 68.6952H91.0521C91.4175 68.6952 91.7047 68.7998 91.9135 69.0089C92.1223 69.218 92.2268 69.4882 92.2268 69.8193C92.2268 70.133 92.1136 70.4032 91.8874 70.6298C91.783 70.7343 91.6525 70.8128 91.5045 70.8651C91.3653 70.9173 91.2087 70.9522 91.0521 70.9522H90.9999C90.7214 70.9609 90.4604 71.0132 90.2168 71.1265C89.9731 71.2311 89.7556 71.3879 89.5729 71.5796C89.3814 71.7713 89.2335 71.9979 89.1204 72.2419C89.016 72.4946 88.9551 72.7561 88.9464 73.0349V75.8061C88.9464 75.9629 88.9203 76.1111 88.8594 76.2505C88.7984 76.3812 88.7201 76.5032 88.6244 76.5991C88.4069 76.817 88.1458 76.9215 87.8413 76.9215L87.85 76.9041Z" fill="#B9B9B9"/>
</svg>
