<svg width="21" height="17" viewBox="0 0 21 17" fill="none" xmlns="http://www.w3.org/2000/svg">
<path d="M20.9168 4.9665V13.4478C20.9169 14.3125 20.586 15.1444 19.9922 15.773C19.3983 16.4015 18.5864 16.779 17.7231 16.828L17.5314 16.8332H3.46891C2.60419 16.8332 1.77222 16.5024 1.14367 15.9085C0.515128 15.3146 0.137661 14.5028 0.0887045 13.6394L0.0834961 13.4478V4.9665L10.1377 10.2332C10.2495 10.2918 10.3739 10.3224 10.5002 10.3224C10.6264 10.3224 10.7508 10.2918 10.8627 10.2332L20.9168 4.9665ZM3.46891 0.166504H17.5314C18.3706 0.166403 19.1798 0.477958 19.8023 1.04074C20.4247 1.60352 20.816 2.37742 20.9002 3.21234L10.5002 8.66025L0.100163 3.21234C0.180916 2.41058 0.545007 1.66392 1.12699 1.10657C1.70896 0.549221 2.47066 0.21774 3.27516 0.171712L3.46891 0.166504H17.5314H3.46891Z" fill="#F8B32D"/>
</svg>
