<svg width="60" height="60" viewBox="0 0 60 60" fill="none" xmlns="http://www.w3.org/2000/svg">
<rect width="60" height="60" rx="8.8" fill="#A3057F"/>
<path d="M42.3308 8C42.9943 8.21522 43.5654 8.53805 43.9047 9.18372C44.0765 9.50811 44.1632 9.86998 44.1568 10.2361C44.1504 10.6023 44.0512 10.961 43.8682 11.2793C43.6853 11.5977 43.4244 11.8655 43.1096 12.0581C42.7948 12.2508 42.4361 12.3621 42.0665 12.3819C41.7957 12.3959 41.5227 12.3819 41.1268 12.3819C41.1268 13.2525 41.1801 14.0822 41.117 14.9021C40.77 19.4218 39.0112 23.3313 35.9363 26.6758C35.6122 27.0422 35.2684 27.391 34.9063 27.7207C33.4227 29.0185 33.4618 30.9544 34.89 32.2641C36.5723 33.806 37.9664 35.6296 39.0079 37.651C40.4658 40.4649 41.2182 43.5844 41.2018 46.7463V47.6072C41.4955 47.6072 41.7511 47.5986 42.0078 47.6072C42.5699 47.6244 43.1044 47.8525 43.5027 48.2453C43.9011 48.638 44.1334 49.1661 44.1527 49.7221C44.1719 50.2782 43.9766 50.8207 43.6063 51.2395C43.2361 51.6583 42.7186 51.9221 42.159 51.9773C42.0143 51.9902 41.8691 51.9956 41.7239 51.9934H18.4473C17.228 51.9934 16.3807 51.4037 16.0871 50.3599C16.0028 50.0487 15.9892 49.723 16.0473 49.4061C16.1053 49.0891 16.2336 48.7888 16.4228 48.5267C16.612 48.2646 16.8576 48.0472 17.1418 47.8901C17.426 47.7329 17.7418 47.64 18.0666 47.6179C18.3407 47.6029 18.6159 47.6179 18.964 47.6179C18.964 47.3425 18.964 47.0928 18.964 46.8421C18.9374 43.9407 19.5557 41.069 20.775 38.4301C21.8127 36.1918 23.2549 34.2398 25.0105 32.5008C25.3857 32.1295 25.7718 31.7378 26.0242 31.2837C26.5963 30.2431 26.4799 29.2004 25.7425 28.2706C25.3324 27.7584 24.8277 27.3172 24.3753 26.8319C21.197 23.455 19.3915 19.4713 19.0456 14.8623C18.9847 14.066 19.0369 13.2622 19.0369 12.3873C18.7214 12.3873 18.493 12.3873 18.2755 12.3873C17.0953 12.3668 16.1708 11.5931 16.0218 10.5159C15.8706 9.414 16.5167 8.4412 17.6316 8.08501C17.6998 8.0604 17.7667 8.03202 17.8317 8H42.3308ZM20.4509 12.4282C20.3421 15.8663 21.0393 19.0688 22.6817 22.0593C23.6661 23.8511 24.9659 25.3953 26.4255 26.82C27.6949 28.0543 28.1376 29.5329 27.6481 31.2547C27.3784 32.2049 26.7312 32.8914 26.0481 33.5608C22.6197 36.9161 20.759 40.9751 20.4661 45.738C20.4291 46.3449 20.4607 46.9551 20.4607 47.5674H39.6845C39.6996 47.5184 39.7109 47.4684 39.7182 47.4178C39.7976 44.3627 39.2233 41.4432 37.8691 38.6841C36.8456 36.5975 35.4175 34.8101 33.7533 33.196C31.8966 31.386 31.8194 28.9615 33.526 27.0449C34.0426 26.466 34.6267 25.9452 35.1412 25.3641C37.6667 22.5479 39.2313 19.0161 39.6127 15.2702C39.7139 14.3393 39.7095 13.3956 39.7541 12.4325L20.4509 12.4282ZM30.0378 10.9281H41.5466C41.7059 10.934 41.8654 10.9297 42.0241 10.9152C42.1993 10.898 42.3622 10.8183 42.4823 10.6909C42.6024 10.5636 42.6715 10.3973 42.6767 10.2232C42.6865 10.0552 42.6337 9.88944 42.5283 9.75736C42.4228 9.62527 42.2721 9.53603 42.1046 9.50655C41.9491 9.47418 41.7902 9.46117 41.6315 9.46781C33.9299 9.46781 26.2279 9.46781 18.5257 9.46781C18.38 9.46061 18.234 9.47 18.0906 9.49579C17.7055 9.58295 17.4858 9.82615 17.4847 10.2243C17.4897 10.4052 17.5635 10.5776 17.6913 10.7071C17.8191 10.8366 17.9916 10.9136 18.1743 10.9227C18.3179 10.9367 18.4637 10.9302 18.6094 10.9302L30.0378 10.9281ZM30.0824 49.0718H18.6159C18.4567 49.0658 18.2972 49.0701 18.1384 49.0847C17.9632 49.1023 17.8005 49.1823 17.6804 49.3098C17.5604 49.4373 17.4912 49.6035 17.4858 49.7777C17.4757 49.9446 17.5275 50.1095 17.6314 50.2414C17.7353 50.3733 17.8842 50.4633 18.0503 50.4944C18.2058 50.5271 18.3647 50.5405 18.5235 50.5342H41.6336C41.7792 50.5412 41.9251 50.5322 42.0687 50.5073C42.4537 50.419 42.6735 50.1758 42.6745 49.7788C42.6701 49.5976 42.5965 49.4248 42.4686 49.295C42.3407 49.1653 42.1679 49.0882 41.985 49.0793C41.8414 49.0653 41.6956 49.0718 41.5499 49.0718H30.0824Z" fill="white"/>
<path d="M30.0749 46.1384H23.0843C22.1489 46.1384 21.9075 45.8457 22.0228 44.9213C22.1697 43.5869 22.7689 42.3409 23.7228 41.3863C24.1176 40.9871 24.4842 40.5642 24.8943 40.1768C25.7361 39.374 26.7433 38.8768 27.9148 38.8392C29.3462 38.7929 30.7797 38.8015 32.2111 38.8392C33.2249 38.8618 34.1744 39.2007 34.901 39.8905C35.7646 40.7108 36.5689 41.59 37.3081 42.5216C37.8867 43.2544 38.0618 44.182 38.1554 45.1043C38.2293 45.836 37.9498 46.1373 37.1971 46.1384C34.8231 46.142 32.449 46.142 30.0749 46.1384ZM36.6315 44.6598C36.4923 44.2843 36.4009 43.955 36.253 43.6515C35.7799 42.6755 34.975 41.962 34.2136 41.2217C33.6402 40.6416 32.8582 40.3094 32.0382 40.2973C30.7221 40.2801 29.4027 40.2392 28.0921 40.3221C27.4882 40.3584 26.9051 40.5534 26.4029 40.887C25.4419 41.5579 24.6368 42.4241 24.0415 43.4277C23.824 43.7936 23.7065 44.2143 23.5227 44.6598H36.6315Z" fill="white"/>
<path d="M27.191 17.7422C27.6935 17.9047 28.2634 17.9692 28.6876 18.248C30.3529 19.3434 32.2237 19.5931 34.1446 19.6975C34.5916 19.7222 35.0419 19.7244 35.4868 19.7728C36.2264 19.8535 36.6506 20.4895 36.2993 21.1308C35.9536 21.723 35.5325 22.2687 35.0463 22.7547C34.2849 23.5553 33.4582 24.3 32.661 25.0705C31.5374 26.1563 30.8989 27.4616 30.838 29.0284C30.8305 29.1569 30.8127 29.2847 30.7847 29.4104C30.7622 29.5765 30.6771 29.7281 30.5463 29.8347C30.4156 29.9412 30.249 29.995 30.0799 29.9851C29.7111 29.9851 29.4403 29.7892 29.3772 29.4104C29.2989 28.9315 29.2848 28.4419 29.1804 27.9674C28.9249 26.8417 28.3275 25.8203 27.4683 25.0403C26.2369 23.8673 25.1902 22.5183 24.363 21.0383C24.2699 20.8857 24.2101 20.7156 24.1872 20.5388C24.1644 20.3621 24.179 20.1825 24.2303 20.0117C24.5805 18.7268 25.7878 17.825 27.191 17.7422ZM30.0646 26.0992C31.1447 24.0632 33.0286 22.8763 34.448 21.2288C34.3867 21.2031 34.3229 21.1837 34.2577 21.1707C31.9735 21.0846 29.7884 20.7187 27.8164 19.4575C27.1877 19.0561 26.2838 19.3499 25.8825 19.9288C25.728 20.1505 25.641 20.3647 25.8379 20.6272C26.4633 21.4634 27.0267 22.349 27.7 23.1464C28.4929 24.0858 29.4947 24.8542 30.0646 26.0992Z" fill="white"/>
<path d="M30.7931 32.5753C30.7985 33.3092 30.5538 33.6644 30.0545 33.6514C29.5553 33.6385 29.316 33.2845 29.3181 32.5517C29.3128 32.4079 29.3197 32.2639 29.3388 32.1212C29.3616 31.9426 29.4483 31.778 29.5832 31.6572C29.7181 31.5364 29.8922 31.4674 30.0741 31.4626C30.4602 31.4626 30.7561 31.7607 30.7909 32.1815C30.7931 32.3203 30.7931 32.4473 30.7931 32.5753Z" fill="white"/>
<path d="M30.7921 36.2442C30.7921 36.9878 30.5572 37.3203 30.0448 37.3203C29.5325 37.3203 29.3096 36.9641 29.3096 36.2238C29.3096 36.1668 29.3096 36.1097 29.3096 36.0527C29.3248 35.4737 29.6022 35.1444 30.071 35.152C30.5397 35.1595 30.7801 35.4694 30.7921 36.0344C30.7921 36.1011 30.7921 36.1732 30.7921 36.2442Z" fill="white"/>
</svg>
