<svg width="60" height="60" viewBox="0 0 60 60" fill="none" xmlns="http://www.w3.org/2000/svg">
<rect width="60" height="60" rx="8.8" fill="#00B5D6"/>
<path fill-rule="evenodd" clip-rule="evenodd" d="M29.6988 16.0261C29.5573 16.0459 29.3007 16.104 29.1287 16.1552C28.8992 16.2234 13.6709 23.1487 11.9014 23.9896C11.574 24.1451 11.2515 24.4472 11.1148 24.7263C10.9718 25.0181 10.9612 25.4424 11.0898 25.7238C11.1893 25.9417 11.4107 26.1955 11.6378 26.3521C11.8566 26.503 28.7781 34.2371 29.123 34.3438C29.5603 34.4792 30.1758 34.5308 30.6814 34.4744C30.9182 34.4481 31.2323 34.3895 31.3793 34.3442C31.6982 34.2462 48.5502 26.5518 48.8156 26.3831C49.0587 26.2286 49.3074 25.9536 49.41 25.7259C49.5384 25.4409 49.5284 25.0168 49.3865 24.7261C49.2458 24.4379 48.9403 24.1582 48.568 23.9768C48.4085 23.8991 44.5271 22.1206 39.9427 20.0245C33.25 16.9646 31.5341 16.1948 31.2356 16.1185C30.8123 16.0102 30.1117 15.9681 29.6988 16.0261ZM30.7224 17.7193C30.8518 17.744 33.6779 19.0153 38.2669 21.1133C42.3025 22.9584 45.9803 24.6387 46.4397 24.8472C46.899 25.0557 47.275 25.2363 47.2752 25.2484C47.2756 25.2865 31.0279 32.7017 30.821 32.7579C30.5665 32.8269 29.9323 32.8264 29.6808 32.7569C29.5727 32.7271 26.3172 31.2544 22.4463 29.4843C18.5755 27.7143 14.9175 26.0419 14.3174 25.7679C13.7173 25.494 13.2268 25.2601 13.2274 25.2481C13.2279 25.2361 13.6039 25.0555 14.0629 24.8468C14.5218 24.638 18.2015 22.9569 22.2398 21.111C26.2782 19.2651 29.6575 17.7399 29.7495 17.7217C29.9882 17.6745 30.4802 17.6733 30.7224 17.7193Z" fill="white"/>
<path d="M11.6843 31.5906C11.3029 31.1887 11.4267 30.5474 11.9357 30.2882C12.0667 30.2216 12.1557 30.2058 12.3396 30.2168C12.538 30.2286 12.7066 30.2908 13.4012 30.6087C13.8553 30.8166 15.43 31.5362 16.9005 32.2078C18.3709 32.8794 21.8122 34.4535 24.5477 35.7058C27.6421 37.1223 29.6105 38.0023 29.7573 38.0347C30.0566 38.1007 30.4379 38.1011 30.7403 38.0357C30.8925 38.0028 33.9831 36.6091 39.4491 34.1084C48.4792 29.9774 48.1216 30.1304 48.4742 30.247C48.5557 30.2739 48.6951 30.3691 48.7841 30.4584C49.1123 30.7878 49.1245 31.2616 48.8133 31.5915C48.686 31.7265 47.6835 32.1949 40.2551 35.5904C35.6274 37.7058 31.7328 39.478 31.6004 39.5287C31.1427 39.7038 30.7695 39.7545 30.0964 39.7329C29.6355 39.7181 29.4123 39.6927 29.2026 39.6312C29.0489 39.5861 25.0768 37.7927 20.3758 35.6459C12.8658 32.2162 11.811 31.7241 11.6843 31.5906Z" fill="white"/>
<path d="M11.6843 36.7363C11.3029 36.3345 11.4267 35.6931 11.9357 35.434C12.0667 35.3673 12.1557 35.3516 12.3396 35.3625C12.538 35.3743 12.7066 35.4366 13.4012 35.7545C13.8553 35.9624 15.43 36.6819 16.9005 37.3536C18.3709 38.0252 21.8122 39.5993 24.5477 40.8515C27.6421 42.2681 29.6105 43.148 29.7573 43.1804C30.0566 43.2464 30.4379 43.2468 30.7403 43.1814C30.8925 43.1485 33.9831 41.7548 39.4491 39.2542C48.4792 35.1232 48.1216 35.2761 48.4742 35.3927C48.5557 35.4197 48.6951 35.5148 48.7841 35.6042C49.1123 35.9335 49.1245 36.4074 48.8133 36.7372C48.686 36.8723 47.6835 37.3406 40.2551 40.7362C35.6274 42.8515 31.7328 44.6237 31.6004 44.6744C31.1427 44.8495 30.7695 44.9002 30.0964 44.8786C29.6355 44.8638 29.4123 44.8385 29.2026 44.7769C29.0489 44.7319 25.0768 42.9385 20.3758 40.7916C12.8658 37.362 11.811 36.8699 11.6843 36.7363Z" fill="white"/>
</svg>
