<svg width="60" height="60" viewBox="0 0 60 60" fill="none" xmlns="http://www.w3.org/2000/svg">
<rect width="60" height="60" rx="8.8" fill="#9EC400"/>
<path d="M10 33.0326C10.2169 32.3021 10.7069 31.8456 11.2973 31.4237C13.3434 29.9507 15.3497 28.4162 17.3866 26.9302C17.6936 26.7079 18.0782 26.6162 18.512 26.4252V26.0615C18.512 23.1004 18.5243 20.1394 18.5059 17.1783C18.4997 16.2125 18.8629 15.552 19.6313 15.0049C21.6958 13.5363 23.7236 12.0061 25.7513 10.4867C26.1524 10.1867 26.5698 10 27.0598 10C31.1781 10 35.296 10 39.4135 10C40.6044 10 41.4116 10.8633 41.431 12.1518C41.4443 13.0528 41.431 13.955 41.431 14.8571C41.431 18.1282 41.431 21.399 41.431 24.6695C41.431 25.3169 41.3922 25.9364 40.9031 26.5407H41.3881C43.1784 26.5407 44.9688 26.586 46.7582 26.5245C47.9951 26.4824 48.8657 26.9108 49.2801 28.182V42.0788C49.1174 42.682 48.744 43.1277 48.3296 43.5594C46.7568 45.196 45.1936 46.842 43.6399 48.4974C43.4085 48.7567 43.1274 48.9612 42.8154 49.0972C42.5034 49.2332 42.1675 49.2976 41.83 49.2862C37.5996 49.27 33.3692 49.2776 29.1439 49.2798C28.3919 49.2798 27.6256 49.365 27.024 48.7402C26.5432 49.1848 26.0204 49.2873 25.4505 49.2798C23.8269 49.2657 22.2043 49.2798 20.5807 49.2798C17.7304 49.2798 14.8804 49.2798 12.0308 49.2798C11.0763 49.2798 10.4062 48.7661 10.087 47.8251C10.062 47.7654 10.033 47.7077 10 47.6525L10 33.0326ZM35.2066 47.9017H41.8812C42.5155 47.9017 42.7436 47.6686 42.7436 47.0082C42.7436 42.5515 42.7436 38.0955 42.7436 33.6402C42.7436 32.9819 42.5124 32.7391 41.8843 32.738C37.4339 32.738 32.9838 32.738 28.5341 32.738C27.9029 32.738 27.6757 32.9776 27.6747 33.6391C27.6747 38.0944 27.6747 42.5504 27.6747 47.0071C27.6747 47.6773 27.8947 47.9017 28.531 47.9017H35.2066ZM18.8374 47.9017H25.5119C26.1524 47.9017 26.359 47.6859 26.359 47.0071C26.359 42.5518 26.359 38.0958 26.359 33.6391C26.359 32.9657 26.1473 32.7391 25.5089 32.738C21.0585 32.738 16.6081 32.738 12.1577 32.738C11.5264 32.738 11.3044 32.9776 11.3044 33.6423C11.3044 38.0976 11.3044 42.5536 11.3044 47.0104C11.3044 47.674 11.5244 47.9017 12.1618 47.9017H18.8374ZM27.3412 16.2038C25.1293 16.2038 22.9171 16.2038 20.7045 16.2038C20.017 16.2038 19.8216 16.4197 19.8216 17.1459V30.3953C19.8216 31.1506 20.0108 31.3578 20.7229 31.3578H33.9963C34.6879 31.3578 34.8741 31.1571 34.8741 30.4168C34.8741 26.0011 34.8741 21.5857 34.8741 17.1707C34.8741 16.3894 34.6971 16.2071 33.939 16.206L27.3412 16.2038ZM36.1847 29.5546C36.3402 29.4046 36.4333 29.3215 36.5192 29.2309C37.5863 28.1086 38.6431 26.9755 39.7225 25.8651C39.8582 25.7346 39.9651 25.5743 40.0358 25.3955C40.1065 25.2167 40.1392 25.0238 40.1317 24.8303C40.1222 20.8066 40.1201 16.7826 40.1256 12.7582C40.1256 12.6287 40.1133 12.4981 40.1061 12.3482C40.0599 12.3603 40.0152 12.3784 39.9731 12.4021C38.7011 13.5683 37.4311 14.7377 36.1632 15.9103C36.1015 15.9971 36.0747 16.106 36.0885 16.2135C36.11 16.5459 36.1837 16.8783 36.1837 17.2106C36.1912 21.1537 36.1929 25.0972 36.1888 29.041L36.1847 29.5546ZM47.9787 28.8165C47.8253 28.9503 47.7363 29.0226 47.6513 29.1003C46.5444 30.1179 45.4476 31.1506 44.3243 32.1467C44.0082 32.4283 43.8496 32.6862 44.0071 33.1179C44.0767 33.3099 44.0532 33.543 44.0532 33.7578C44.0532 37.6872 44.0532 41.6166 44.0532 45.546V46.118C45.2962 44.8101 46.4431 43.5853 47.6053 42.3734C47.7307 42.2516 47.8295 42.1026 47.8951 41.9366C47.9606 41.7706 47.9912 41.5916 47.9849 41.4119C47.976 37.3609 47.974 33.3103 47.9787 29.26V28.8165ZM46.9004 27.9532C46.7674 27.9338 46.7203 27.9208 46.6723 27.9208C44.398 27.9208 42.1247 27.9144 39.8514 27.9284C39.6804 27.9453 39.5202 28.0243 39.3982 28.1518C38.6564 28.9072 37.9311 29.6884 37.1975 30.4568C36.9397 30.7276 36.6747 30.9898 36.4128 31.2553L36.4609 31.3514H36.864C38.5009 31.3514 40.1379 31.3438 41.7697 31.3589C42.1083 31.3589 42.4469 31.4603 42.7866 31.5003C42.8886 31.5228 42.9948 31.5064 43.0864 31.4539C44.3417 30.3165 45.5888 29.1651 46.9004 27.9575V27.9532ZM29.7055 14.7276L29.7331 14.8226H30.1055C31.3946 14.8226 32.6847 14.8161 33.9738 14.828C34.2663 14.823 34.5579 14.8633 34.8393 14.9477C34.925 14.9844 35.0192 14.9923 35.1092 14.9705C35.1993 14.9487 35.2808 14.8982 35.3427 14.8258C36.4824 13.7672 37.6282 12.7172 38.771 11.6629C38.8478 11.5917 38.9122 11.5064 39.0288 11.378C37.572 11.378 36.1918 11.4169 34.8158 11.3629C34.4841 11.3383 34.151 11.3836 33.836 11.4963C33.5211 11.6089 33.2305 11.7866 32.9814 12.019C31.9215 12.9611 30.8012 13.8287 29.7055 14.7276ZM22.2636 14.7794C22.4089 14.801 22.4805 14.8204 22.5511 14.8215C24.1083 14.8215 25.6664 14.8215 27.2235 14.8139C27.3848 14.8045 27.5395 14.744 27.6675 14.6402C28.9034 13.642 30.1291 12.632 31.3598 11.6284C31.4388 11.5725 31.5216 11.5227 31.6074 11.4795C30.037 11.3823 28.5433 11.3791 27.0506 11.3888C26.8993 11.3948 26.7528 11.4461 26.6281 11.5367C25.4976 12.3665 24.3773 13.2071 23.2519 14.0445L22.2636 14.7794ZM13.7332 31.3265H18.5325V27.9619L18.4189 27.868L13.7332 31.3265Z" fill="white"/>
<path d="M31.5639 46.5237C31.1424 46.5237 30.7219 46.5312 30.3004 46.5237C29.5842 46.5075 29.0553 46.0046 29.0052 45.2589C28.9719 44.7362 28.9719 44.2116 29.0052 43.6888C29.0512 42.9194 29.5822 42.4079 30.3168 42.4004C31.1714 42.3903 32.0263 42.3903 32.8816 42.4004C33.6632 42.4079 34.2024 42.9572 34.2331 43.7827C34.2495 44.2381 34.2515 44.6967 34.2331 45.1521C34.1993 45.9733 33.6561 46.5139 32.8704 46.5258C32.4315 46.5291 31.9967 46.5247 31.5639 46.5237ZM30.3311 43.7924V45.1165H32.9011V43.7924H30.3311Z" fill="white"/>
<path d="M38.3261 44.3772C38.0058 44.3772 37.6856 44.3891 37.3664 44.3772C36.9735 44.3589 36.7086 44.0664 36.7147 43.6833C36.7146 43.5952 36.7309 43.508 36.7628 43.4266C36.7946 43.3451 36.8414 43.2711 36.9004 43.2088C36.9594 43.1465 37.0295 43.097 37.1067 43.0633C37.1838 43.0295 37.2665 43.0121 37.35 43.0121C38.014 42.996 38.68 42.996 39.344 43.0121C39.5129 43.0124 39.6747 43.0834 39.7941 43.2094C39.9134 43.3355 39.9804 43.5063 39.9804 43.6844C39.9813 43.7757 39.965 43.8663 39.9322 43.9508C39.8995 44.0353 39.851 44.1121 39.7897 44.1766C39.7284 44.241 39.6555 44.2919 39.5753 44.3262C39.495 44.3604 39.4091 44.3774 39.3225 44.3761C38.9911 44.3891 38.6575 44.3783 38.3261 44.3772Z" fill="white"/>
<path d="M38.3661 44.5763C38.6864 44.5763 39.0056 44.5655 39.3248 44.5763C39.4963 44.5739 39.6616 44.6434 39.7845 44.7696C39.9074 44.8958 39.9777 45.0683 39.9801 45.2492C39.9824 45.43 39.9164 45.6045 39.7968 45.7341C39.6772 45.8637 39.5136 45.9379 39.3422 45.9403C38.6772 45.9598 38.0125 45.9598 37.3482 45.9403C37.2614 45.9398 37.1755 45.9205 37.096 45.8838C37.0165 45.847 36.9449 45.7934 36.8857 45.7265C36.8265 45.6595 36.7809 45.5804 36.7517 45.4942C36.7225 45.4079 36.7103 45.3163 36.7159 45.2249C36.7313 44.8569 36.9891 44.5914 37.3697 44.5774C37.7011 44.5655 38.0336 44.5763 38.3661 44.5763Z" fill="white"/>
<path d="M15.2301 47.1298C14.7963 47.1298 14.3625 47.1384 13.9288 47.1298C13.5865 47.1335 13.2567 46.9942 13.0115 46.7422C12.7663 46.4903 12.6256 46.1462 12.6202 45.7852C12.6018 45.3158 12.6039 44.8442 12.6202 44.3748C12.6196 44.192 12.6538 44.011 12.7209 43.8425C12.7879 43.674 12.8864 43.5214 13.0105 43.3938C13.1346 43.2663 13.2817 43.1664 13.4432 43.1C13.6046 43.0336 13.777 43.0022 13.9502 43.0076C14.8178 42.9975 15.6854 42.9975 16.5529 43.0076C17.2978 43.0173 17.8257 43.5633 17.8533 44.35C17.8697 44.8323 17.8707 45.3212 17.8533 45.8003C17.8236 46.5794 17.2875 47.1157 16.5407 47.1308C16.0977 47.1373 15.6639 47.1308 15.2301 47.1298ZM13.9431 45.7323H16.5151V44.4082H13.9431V45.7323Z" fill="white"/>
<path d="M24.1879 45.949C23.8687 45.949 23.5484 45.9598 23.2292 45.949C22.8282 45.9329 22.5714 45.6577 22.5714 45.266C22.5685 45.1746 22.5835 45.0836 22.6156 44.9987C22.6477 44.9137 22.6962 44.8368 22.7579 44.7726C22.8196 44.7084 22.8932 44.6584 22.9742 44.6257C23.0552 44.5931 23.1416 44.5785 23.2282 44.5829C23.8799 44.5688 24.5326 44.5667 25.1843 44.5829C25.3558 44.5829 25.5203 44.6547 25.6416 44.7826C25.7628 44.9105 25.8309 45.084 25.8309 45.2649C25.8309 45.4458 25.7628 45.6192 25.6416 45.7471C25.5203 45.875 25.3558 45.9469 25.1843 45.9469C24.8529 45.9609 24.5204 45.949 24.1879 45.949Z" fill="white"/>
<path d="M24.1955 43.0056C24.528 43.0056 24.8605 42.9938 25.192 43.0056C25.3573 43.0114 25.5141 43.0837 25.6303 43.2078C25.7464 43.3319 25.813 43.4983 25.8162 43.6727C25.8195 43.847 25.7593 44.016 25.6479 44.1449C25.5365 44.2738 25.3825 44.3527 25.2176 44.3653C24.5417 44.3876 23.8644 44.3876 23.1858 44.3653C23.102 44.3645 23.0193 44.3459 22.9426 44.3105C22.8659 44.2751 22.7968 44.2237 22.7394 44.1594C22.682 44.095 22.6376 44.0191 22.6088 43.9362C22.58 43.8532 22.5675 43.765 22.5719 43.6768C22.5719 43.284 22.8297 43.0175 23.2359 43.0024C23.5561 42.9959 23.8763 43.0045 24.1955 43.0056Z" fill="white"/>
<path d="M23.7562 29.9756C23.3224 29.9756 22.8886 29.9842 22.4549 29.9756C21.6927 29.9583 21.1535 29.4026 21.133 28.6084C21.1208 28.1389 21.1187 27.6685 21.133 27.198C21.1365 26.8433 21.2714 26.5042 21.5088 26.2531C21.7463 26.002 22.0675 25.859 22.4037 25.8545C23.2958 25.8343 24.1886 25.8343 25.0821 25.8545C25.4184 25.853 25.7415 25.9925 25.9803 26.2422C26.2192 26.4919 26.3542 26.8314 26.3559 27.1861C26.3722 27.6825 26.3743 28.18 26.3559 28.6763C26.3478 29.0231 26.2114 29.3528 25.9759 29.5948C25.7403 29.8368 25.4243 29.972 25.0954 29.9713C24.6494 29.9875 24.2033 29.9756 23.7562 29.9756ZM25.0248 28.5792V27.2552H22.4589V28.5792H25.0248Z" fill="white"/>
<path d="M31.928 27.2213C31.6088 27.2213 31.2886 27.2299 30.9694 27.2213C30.5683 27.2061 30.3095 26.9321 30.3085 26.5425C30.3056 26.4509 30.3206 26.3597 30.3527 26.2746C30.3847 26.1895 30.4331 26.1122 30.4947 26.0477C30.5564 25.9832 30.63 25.9328 30.711 25.8996C30.7919 25.8665 30.8785 25.8513 30.9653 25.8551C31.6037 25.8389 32.2431 25.8411 32.8825 25.8551C33.304 25.8637 33.5711 26.1572 33.5618 26.5608C33.5526 26.9644 33.2958 27.2083 32.8866 27.2245C32.5674 27.2299 32.2472 27.2213 31.928 27.2213Z" fill="white"/>
<path d="M31.9277 29.9744C31.6085 29.9744 31.2883 29.9852 30.9691 29.9744C30.5773 29.9593 30.3297 29.7111 30.3102 29.3366C30.3012 29.2456 30.3104 29.1537 30.3371 29.0667C30.3638 28.9796 30.4074 28.8995 30.4652 28.8313C30.523 28.7631 30.5937 28.7084 30.6727 28.6707C30.7518 28.6331 30.8374 28.6132 30.9241 28.6125C31.6003 28.5888 32.2787 28.5888 32.9539 28.6125C33.0376 28.615 33.1199 28.6352 33.196 28.672C33.2721 28.7088 33.3404 28.7614 33.3968 28.8267C33.4531 28.892 33.4964 28.9686 33.524 29.0519C33.5517 29.1353 33.563 29.2237 33.5575 29.3118C33.5483 29.6884 33.3038 29.9528 32.9201 29.97C32.5927 29.9862 32.2592 29.9744 31.9277 29.9744Z" fill="white"/>
</svg>
