<svg width="21" height="21" viewBox="0 0 21 21" fill="none" xmlns="http://www.w3.org/2000/svg">
<path d="M16.0852 13.8463C15.394 13.1647 14.5311 13.1647 13.8442 13.8463C13.3203 14.3653 12.7964 14.8842 12.2813 15.412C12.1404 15.5571 12.0215 15.5879 11.8498 15.4912C11.5108 15.3064 11.1498 15.1569 10.824 14.9546C9.30505 14.0003 8.03267 12.7732 6.90557 11.3923C6.34643 10.7062 5.84892 9.97176 5.50111 9.14495C5.43067 8.97783 5.44387 8.86788 5.58036 8.73155C6.10428 8.22579 6.61499 7.70683 7.13011 7.18788C7.84775 6.46662 7.84775 5.62222 7.12571 4.89656C6.71626 4.48316 6.3068 4.07855 5.89735 3.66514C5.47469 3.24294 5.05644 2.81634 4.62937 2.39854C3.93815 1.72566 3.07522 1.72566 2.38839 2.40294C1.86007 2.92189 1.35376 3.45404 0.816626 3.9642C0.31912 4.43478 0.0681655 5.01091 0.015333 5.68379C-0.0683185 6.77887 0.200247 7.81238 0.57888 8.81951C1.35376 10.9041 2.53368 12.7556 3.96456 14.4532C5.89735 16.749 8.20437 18.5653 10.9032 19.8759C12.1184 20.4652 13.3776 20.9182 14.7468 20.993C15.689 21.0457 16.5079 20.8082 17.1639 20.0738C17.613 19.5724 18.1193 19.115 18.5948 18.6357C19.2992 17.9232 19.3036 17.0612 18.6036 16.3575C17.7671 15.5175 16.9261 14.6819 16.0852 13.8463Z" fill="#F8B32D"/>
<path d="M16.0038 10.2114H16.0047C16.4934 10.1279 16.7993 9.63488 16.6545 9.16122C16.3076 8.02832 15.6885 7.00185 14.8393 6.14997C13.9305 5.24224 12.829 4.6041 11.6143 4.27425C11.1344 4.14408 10.6483 4.46117 10.5792 4.95329L10.5788 4.95637C10.5211 5.3667 10.7782 5.75503 11.1784 5.8641C12.1193 6.11962 12.9734 6.61263 13.6769 7.31542C14.3325 7.97027 14.8084 8.76233 15.0766 9.6362C15.1985 10.0338 15.5934 10.2814 16.0038 10.2114Z" fill="#F8B32D"/>
<path d="M17.7847 3.28692C16.1187 1.62275 14.0609 0.503476 11.786 0.0183857C11.3184 -0.0814471 10.8645 0.236083 10.798 0.708859L10.7976 0.711498C10.7381 1.1359 11.0142 1.53875 11.4338 1.62846C13.4009 2.04847 15.1822 3.01777 16.6224 4.45237C17.9784 5.80693 18.9228 7.47638 19.3771 9.31603C19.4802 9.73295 19.89 9.99859 20.314 9.92646C20.7851 9.84598 21.0907 9.38332 20.9758 8.92022C20.447 6.78943 19.3538 4.8583 17.7847 3.28692Z" fill="#F8B32D"/>
</svg>
