<svg width="50" height="50" viewBox="0 0 50 50" fill="none" xmlns="http://www.w3.org/2000/svg">
<path fill-rule="evenodd" clip-rule="evenodd" d="M8.11385 0.109246C7.22607 0.40055 6.36616 1.18068 6.02218 2.00678C5.91655 2.26063 5.55555 3.04477 5.22007 3.74922L4.61006 5.03012L3.55053 5.09202C2.70421 5.1413 2.3747 5.20594 1.91375 5.41275C1.23918 5.7154 0.540453 6.41105 0.227279 7.09193C-0.0719089 7.7424 -0.0727891 9.02447 0.225519 9.67279C0.508764 10.2884 1.16934 10.9854 1.76978 11.3022L2.26272 11.5624L6.02795 11.6113L9.79318 11.6602L10.0577 12.1491C10.962 13.8199 11.2537 15.1483 11.1853 17.2829C11.1271 19.1038 10.9742 19.7106 10.1279 21.4796C9.30366 23.2024 9.14776 23.7635 9.14747 25.0079C9.14727 25.7525 9.19969 26.2027 9.33799 26.6458L9.52871 27.257H7.63754C6.49996 27.257 5.7226 27.2186 5.6868 27.1606C5.57266 26.9761 5.48718 25.0077 5.55193 24.0576C5.64338 22.715 5.84114 22.0484 6.66212 20.3142C7.52829 18.4846 7.63353 18.0536 7.57221 16.5863C7.5323 15.6319 7.48105 15.3598 7.2115 14.671C6.80013 13.6198 6.64168 13.4301 6.17495 13.4301C5.90892 13.4301 5.75683 13.4925 5.6244 13.6561C5.37734 13.9612 5.3927 14.1554 5.72446 14.9196C5.88016 15.2783 6.03695 15.7113 6.07294 15.8819L6.13827 16.1922L4.24935 16.2241C2.06094 16.2612 1.77496 16.3422 0.965224 17.1545C0.258479 17.8633 0.0257992 18.4239 0.018855 19.4342C0.0140625 20.1363 0.0533804 20.3511 0.272172 20.8176C0.835534 22.0189 1.8399 22.6532 3.31198 22.7371L4.18891 22.787L4.12249 23.319C4.03819 23.9938 4.03916 26.0301 4.12416 26.7102L4.18891 27.2288L3.31198 27.2788C1.8399 27.3627 0.835534 27.997 0.272172 29.1982C-0.0859929 29.9621 -0.0913722 31.1725 0.26024 31.9018C0.560504 32.5247 1.24456 33.2115 1.87149 33.5195C2.33069 33.7451 2.47564 33.7617 4.24935 33.7917L6.13827 33.8237L6.07646 34.134C6.04252 34.3046 5.73209 35.0383 5.38673 35.7644C5.04138 36.4904 4.6573 37.3705 4.53318 37.7201L4.30754 38.3557L3.28508 38.4113C2.07121 38.4773 1.52233 38.7075 0.856366 39.4299C0.211435 40.1294 0.0151384 40.6432 0.0151384 41.6315C0.0151384 42.6325 0.215934 43.1463 0.888056 43.8647C1.5549 44.5775 2.2324 44.847 3.55053 44.9239L4.61006 44.9858L5.21645 46.2667C5.54997 46.9711 5.93572 47.7951 6.07362 48.0977C6.3687 48.745 7.1001 49.471 7.76752 49.7788C8.13312 49.9475 8.4014 49.99 9.06022 49.9839C10.0658 49.9744 10.5995 49.7669 11.2979 49.1137C12.2547 48.2189 12.575 46.7892 12.0991 45.5374C11.9877 45.2446 11.8967 44.9941 11.8967 44.9807C11.8966 44.9673 12.7485 44.9562 13.7896 44.9562H15.6826L16.1945 46.0074C16.4761 46.5855 16.8422 47.3814 17.0082 47.776C17.385 48.6712 17.966 49.328 18.7093 49.6985C19.2025 49.9445 19.395 49.9842 20.1123 49.9879C20.8128 49.9915 21.0306 49.9514 21.496 49.7332C22.5827 49.2239 23.2908 48.2069 23.4028 46.9949C23.4493 46.4913 23.4152 46.2403 23.2216 45.6652L22.9832 44.9562H24.9023H26.8216L26.9427 45.2911C27.0094 45.4754 27.3928 46.3118 27.7947 47.15C28.6145 48.8597 28.9794 49.3119 29.8784 49.7332C30.3319 49.9456 30.5712 49.9921 31.2153 49.9921C31.9048 49.9922 32.0789 49.9533 32.6538 49.6703C33.7663 49.1228 34.3894 48.1919 34.4685 46.9593C34.5105 46.3049 34.446 45.9543 34.1227 45.0785C34.0876 44.9833 34.4969 44.9565 35.9708 44.9578L37.864 44.9593L38.4696 46.2534C38.8027 46.9652 39.1884 47.7951 39.3268 48.0977C39.6229 48.745 40.3551 49.4714 41.0215 49.7788C41.6607 50.0736 42.9469 50.0737 43.5976 49.779C44.967 49.1587 45.7889 47.6872 45.5381 46.3046C45.4769 45.9671 45.3647 45.5424 45.2887 45.3606C45.2127 45.1788 45.1506 45.0202 45.1506 45.0081C45.1506 44.996 45.6795 44.9594 46.3259 44.927C47.3098 44.8775 47.5962 44.8253 48.0849 44.6061C48.7658 44.3006 49.4627 43.6083 49.7786 42.9239C50.0747 42.2823 50.0736 40.999 49.7764 40.3431C49.4981 39.729 48.8372 39.0308 48.2354 38.7154C47.7767 38.4751 47.6384 38.4547 46.2418 38.4219C44.8988 38.3904 44.7464 38.3697 44.7911 38.2245C44.8185 38.1353 45.0025 37.6975 45.1999 37.2517C45.5719 36.4111 45.9295 34.9378 45.9318 34.2362L45.933 33.8326L46.7967 33.7912C48.2045 33.724 49.0724 33.1704 49.7149 31.9298C49.9434 31.4888 49.9833 31.291 49.9873 30.5817C49.9912 29.8809 49.9514 29.6639 49.733 29.1982C49.4027 28.4938 48.8016 27.8936 48.0992 27.5667C47.5889 27.3292 47.4265 27.3069 45.9679 27.2734L44.389 27.2374L44.2381 26.8804C43.7657 25.7626 43.7155 24.5916 44.0925 23.4913L44.3269 22.8078L45.9368 22.7561C47.408 22.7089 47.5945 22.6823 48.0992 22.4483C48.8011 22.1229 49.4024 21.5227 49.733 20.8176C49.9514 20.352 49.9912 20.135 49.9873 19.4342C49.9833 18.7249 49.9434 18.5271 49.7149 18.0861C49.0795 16.8595 48.1928 16.2913 46.8102 16.2252L45.958 16.1845L45.8929 15.4668C45.8063 14.5111 45.5047 13.3924 45.0947 12.505C44.9103 12.1059 44.7594 11.7455 44.7594 11.7041C44.7594 11.6627 45.4306 11.6131 46.2509 11.5938C47.6378 11.5612 47.7771 11.5406 48.2354 11.3004C48.8372 10.9851 49.4981 10.2869 49.7764 9.67279C50.0736 9.01684 50.0747 7.7336 49.7786 7.09193C49.4627 6.40753 48.7658 5.7153 48.0849 5.40982C47.5962 5.19058 47.3098 5.13837 46.3259 5.08889C45.6795 5.05642 45.1506 5.02552 45.1507 5.02024C45.1507 5.01506 45.2449 4.76874 45.36 4.47293C45.6739 3.6664 45.6547 2.63632 45.3123 1.91818C45.0022 1.26781 44.2579 0.53569 43.6069 0.240964C42.9467 -0.0579674 41.6653 -0.0599231 41.0215 0.237052C40.0766 0.672981 39.7084 1.15066 38.7443 3.19184L37.864 5.05544L35.9813 5.05759C34.9458 5.05867 34.0985 5.04713 34.0985 5.03178C34.0985 5.01652 34.1865 4.75358 34.2941 4.44751C34.5499 3.71998 34.5507 2.78505 34.2961 2.10535C33.6379 0.34755 31.5811 -0.490669 29.8597 0.297288C29.1306 0.631031 28.5666 1.22518 28.1839 2.063C28.0084 2.4473 27.6139 3.27868 27.3074 3.91067L26.75 5.05965H24.8665H22.9832L23.2214 4.3507C23.4075 3.79733 23.4492 3.51004 23.412 3.04145C23.317 1.84895 22.5832 0.792182 21.496 0.28262C20.7329 -0.0750799 19.5218 -0.0807515 18.7919 0.270006C18.0611 0.621252 17.3634 1.36892 17.0601 2.12608C16.92 2.47566 16.5524 3.27877 16.2432 3.91067L15.681 5.05965H13.7784C12.003 5.05965 11.8807 5.04821 11.9503 4.88852C12.178 4.36625 12.3906 3.31046 12.3393 2.95726C12.1694 1.78969 11.4734 0.799516 10.482 0.314498C9.84042 0.000703988 8.73629 -0.0950282 8.11385 0.109246ZM9.79778 1.62541C10.6026 1.99084 11.0316 2.845 10.8242 3.66874C10.7636 3.9091 10.6053 4.32039 10.4723 4.58275L10.2306 5.05965H8.22966H6.22874L6.32479 4.80687C6.3777 4.66792 6.52911 4.36957 6.66134 4.14398C6.79357 3.91839 7.03691 3.40619 7.20201 3.00585C7.54932 2.16392 7.78298 1.87731 8.32668 1.62639C8.82265 1.39748 9.29535 1.39718 9.79778 1.62541ZM21.1173 1.73366C21.6868 2.12373 21.9217 2.56465 21.9217 3.24347C21.9217 3.78012 21.8531 3.98 21.2097 5.318C20.4305 6.93841 20.2136 7.71218 20.2132 8.87329C20.2128 9.93749 20.4211 10.669 21.1832 12.2807C21.5558 13.0689 21.9277 13.9557 22.0095 14.2515C22.1795 14.8653 22.3525 16.0861 22.28 16.1587C22.2533 16.1854 21.4245 16.2072 20.4383 16.2072H18.6452V15.9806C18.6452 15.5529 18.3341 14.6901 17.6693 13.2737C16.8476 11.523 16.6906 10.9289 16.6201 9.30306C16.5237 7.07628 16.7424 6.16854 18.0007 3.57448C18.7406 2.04892 18.9295 1.79928 19.5396 1.54093C19.9225 1.3787 20.7461 1.47932 21.1173 1.73366ZM31.9219 1.59197C32.3913 1.78813 32.6087 1.99201 32.848 2.4606C33.1034 2.96107 33.0479 3.73035 32.701 4.49738L32.4466 5.05965H30.4362C29.3305 5.05965 28.4258 5.04234 28.4258 5.02112C28.4258 4.9999 28.6897 4.4389 29.0121 3.77435C29.3347 3.1098 29.5988 2.52006 29.599 2.46373C29.5997 2.29495 30.3113 1.66834 30.6264 1.55892C31.056 1.4097 31.5135 1.42143 31.9219 1.59197ZM43.0518 1.62541C43.8553 1.99035 44.2856 2.8451 44.0788 3.66601C44.0187 3.9048 43.7566 4.52505 43.4966 5.04439C42.694 6.647 42.4909 7.31146 42.4351 8.51794C42.3708 9.90767 42.4804 10.3672 43.289 12.1002C44.137 13.9177 44.4659 14.9884 44.4659 15.9319V16.2072H42.677H40.8879L40.7227 15.5034C40.6318 15.1162 40.2515 14.1591 39.8775 13.3765C38.9016 11.3341 38.8423 11.0708 38.8422 8.77551C38.8421 6.56868 38.9382 6.12532 39.7813 4.44516C40.0454 3.91888 40.3716 3.21727 40.5063 2.88587C40.7973 2.16969 41.0532 1.86978 41.5807 1.62639C42.0766 1.39748 42.5493 1.39718 43.0518 1.62541ZM15.2327 6.72201C15.2117 6.80268 15.173 7.60667 15.1468 8.50865L15.099 10.1487L8.81023 10.1221C2.60337 10.096 2.51789 10.093 2.2454 9.89105C1.87433 9.61617 1.54756 9.11961 1.47176 8.71566C1.29649 7.78171 1.9514 6.79887 2.86765 6.6207C3.07284 6.5808 5.94755 6.5543 9.25583 6.56174C14.5499 6.57367 15.2663 6.59293 15.2327 6.72201ZM37.3895 7.03981C37.3555 7.32222 37.3274 8.13628 37.327 8.84885L37.3261 10.1445H29.5964C22.3267 10.1445 21.8624 10.1343 21.7964 9.97338C21.7577 9.87921 21.7261 9.34022 21.7261 8.77551C21.7261 7.7821 21.8903 7.03267 22.1919 6.64867C22.2672 6.55274 23.9207 6.52643 29.8696 6.52643H37.4512L37.3895 7.03981ZM47.5468 6.74371C48.142 7.05868 48.5759 7.76245 48.5716 8.40568C48.5672 9.06251 48.0578 9.81644 47.4671 10.0402C47.3129 10.0986 46.4873 10.1445 45.5903 10.1445H43.9889L43.9222 9.70017C43.8011 8.89226 43.922 7.60139 44.1727 7.02817L44.4023 6.50316L45.8278 6.5458C46.8755 6.57719 47.3312 6.6296 47.5468 6.74371ZM15.5675 12.1247C15.6586 12.4071 16.0329 13.2761 16.3993 14.0559C16.7657 14.8358 17.0957 15.6389 17.1326 15.8405L17.1999 16.2072H14.9535H12.7071L12.6416 15.5025C12.5403 14.4121 12.1736 13.1242 11.7007 12.1974C11.5933 11.9869 11.5054 11.7689 11.5054 11.713C11.5054 11.646 12.1703 11.6113 13.4537 11.6113H15.4019L15.5675 12.1247ZM26.6823 12.198C26.7825 12.4938 27.1544 13.344 27.5087 14.0871C27.8629 14.8303 28.176 15.6114 28.2043 15.8228L28.2559 16.2072H26.0443H23.8326L23.7877 15.9872C23.7631 15.8661 23.7164 15.5252 23.684 15.2294C23.5938 14.4069 23.3465 13.501 22.9767 12.638C22.7923 12.2078 22.6174 11.7998 22.5881 11.7315C22.5459 11.6328 22.9434 11.6127 24.5175 11.6337L26.5001 11.6602L26.6823 12.198ZM32.3246 12.3691C33.2163 14.1478 33.473 15.369 33.3863 17.4193C33.3206 18.9707 33.1031 19.8654 32.5002 21.0658C31.6404 22.7774 31.26 24.0115 31.2638 25.0772C31.2654 25.4918 31.4271 26.4025 31.6121 27.037L31.6762 27.257H29.7646H27.853L27.7726 26.6947C27.7284 26.3854 27.6967 25.5384 27.7022 24.8124C27.7154 23.0675 27.9256 22.2115 28.7671 20.4738C29.5129 18.9342 29.7956 17.9497 29.7936 16.9005C29.7915 15.8394 29.5823 15.086 28.87 13.5753C28.1319 12.01 28.0272 11.749 28.1061 11.6703C28.1384 11.6378 29.0154 11.6113 30.0548 11.6113H31.9446L32.3246 12.3691ZM37.8283 12.3773C37.9739 12.7717 38.3574 13.6518 38.6805 14.3331C39.0037 15.0142 39.2967 15.7147 39.3318 15.8894L39.3956 16.2072H37.1479H34.9001L34.8343 15.5961C34.7291 14.6203 34.4338 13.4843 34.0569 12.6049C33.8646 12.1564 33.7073 11.7485 33.7073 11.6983C33.7073 11.6441 34.4893 11.6179 35.6354 11.6337L37.5637 11.6602L37.8283 12.3773ZM6.06834 17.9429C5.99851 18.249 5.55124 19.3027 4.9914 20.4809L4.61006 21.2832L3.77871 21.2855C2.79859 21.2882 2.32248 21.113 1.85105 20.5761C1.32759 19.9801 1.29884 19.1561 1.77623 18.4349C2.20804 17.7826 2.57961 17.6787 4.48966 17.6762L6.12976 17.674L6.06834 17.9429ZM28.1737 18.1577C28.0948 18.4236 27.7491 19.2185 27.4057 19.924C26.7123 21.3482 26.4341 22.2551 26.2657 23.6389C26.1594 24.5132 26.1967 26.2593 26.3366 26.9586L26.3963 27.257H24.2946H22.1928L22.0373 26.8414C21.598 25.6669 21.5709 24.3686 21.9641 23.3299L22.1736 22.7765L23.1937 22.7432C24.3172 22.7065 24.4643 22.6383 24.5712 22.104C24.6214 21.853 24.5854 21.7462 24.3822 21.543L24.1312 21.2921H18.0034C12.2062 21.2921 11.8794 21.2829 11.9451 21.121C12.3295 20.1732 12.679 18.6894 12.679 18.0055V17.674H20.4982H28.3174L28.1737 18.1577ZM47.5648 17.864C48.5813 18.3255 48.8886 19.7397 48.1541 20.5761C47.5016 21.3192 47.8373 21.2875 40.5782 21.2899C37.0144 21.2911 34.0985 21.2726 34.0985 21.2488C34.0985 21.2249 34.2267 20.8179 34.3834 20.3442C34.5401 19.8706 34.7224 19.0761 34.7885 18.5785L34.9087 17.674L41.0322 17.6762C46.8363 17.6782 47.1769 17.688 47.5648 17.864ZM15.244 23.0767C15.1517 23.4904 15.152 26.5267 15.2444 26.9411L15.3157 27.2608L13.1945 27.2344L11.0733 27.2081L10.8364 26.5236C10.4628 25.444 10.5113 24.2078 10.9703 23.1093L11.1168 22.7589H13.2158H15.3149L15.244 23.0767ZM20.5501 22.93C20.1289 23.9288 20.1203 25.7334 20.5312 26.9148C20.6621 27.2912 20.9253 27.9089 21.1162 28.2875C22.0874 30.2139 22.3144 31.16 22.2998 33.2219C22.2868 35.0688 22.1135 35.8263 21.3604 37.3289L20.8458 38.3557L18.903 38.3823L16.9602 38.4088L17.0281 38.1378C17.0653 37.9887 17.3757 37.2947 17.7175 36.5955C18.5532 34.8867 18.6865 34.4017 18.6845 33.0753C18.6828 31.823 18.4892 31.1439 17.6676 29.5071C17.3987 28.9711 17.062 28.1466 16.9196 27.6747C16.6861 26.9011 16.6597 26.6539 16.6504 25.1546C16.6448 24.2403 16.6752 23.3273 16.7179 23.1256L16.7958 22.7589H18.709C20.4934 22.7589 20.6174 22.7704 20.5501 22.93ZM37.375 25.0079V27.257H35.342H33.3091L33.1141 26.8022C32.7837 26.0316 32.6714 25.1126 32.8095 24.3077C32.8756 23.9225 33.0141 23.4165 33.1173 23.1832L33.3051 22.7589H35.3401H37.375V25.0079ZM42.6406 23.1645C42.1125 24.6968 42.3659 26.4831 43.405 28.5558C43.9436 29.6298 44.1363 30.1514 44.3159 31.0209C44.5237 32.0269 44.5245 34.2176 44.3175 35.2201C44.1547 36.0079 43.6776 37.2325 43.2477 37.966L42.9906 38.4046H38.349C35.796 38.4046 33.7073 38.3683 33.7073 38.324C33.7073 38.2797 33.8609 37.8892 34.0485 37.4562C34.4159 36.6085 34.7285 35.4006 34.8343 34.4198L34.9001 33.8087H37.1479H39.3956L39.3285 34.1265C39.2916 34.3013 39.1307 34.7614 38.971 35.149C38.7103 35.7818 38.6939 35.8813 38.8105 36.1245C38.9625 36.4416 39.3411 36.6022 39.7154 36.5082C39.9204 36.4568 40.0446 36.3039 40.2633 35.8341C40.6861 34.9259 40.8516 34.1639 40.8544 33.1132C40.8575 31.8722 40.7521 31.4826 39.9531 29.7841C38.9597 27.6723 38.8553 27.2165 38.8481 24.959C38.8447 23.9372 38.8737 23.0242 38.9124 22.93C38.9759 22.7753 39.1651 22.7589 40.8815 22.7589H42.7803L42.6406 23.1645ZM16.3629 30.215C16.7483 31.0352 17.0928 31.8492 17.1286 32.0241L17.1937 32.3419H10.028C2.92584 32.3419 2.85865 32.34 2.43388 32.1345C1.40858 31.6382 1.11448 30.2785 1.85105 29.4398C2.50273 28.6977 2.18271 28.7284 9.30484 28.7259L15.6623 28.7238L16.3629 30.215ZM38.4258 29.9247C39.0484 31.2489 39.2254 31.6741 39.3201 32.0735L39.384 32.343L31.5821 32.318L23.78 32.293L23.7093 31.5837C23.6298 30.7869 23.4219 29.9172 23.1406 29.2034L22.9515 28.7238L30.4078 28.7268L37.864 28.7298L38.4258 29.9247ZM47.4499 28.9062C48.5373 29.4001 48.8841 30.591 48.2289 31.581C47.8939 32.087 47.3392 32.3369 46.5443 32.3397L45.933 32.3419V32.0104C45.933 31.3265 45.5835 29.8427 45.1991 28.8949C45.1357 28.7388 45.2139 28.724 46.0937 28.7259C46.814 28.7275 47.157 28.7732 47.4499 28.9062ZM11.212 34.0934C11.212 35.0531 10.7615 36.4784 9.95759 38.0623C9.3196 39.3192 9.15284 39.9678 9.15284 41.1915C9.15284 42.4619 9.30542 43.0118 10.1546 44.7996C10.7331 46.0177 10.8487 46.3441 10.8487 46.7599C10.8487 48.0855 9.52343 48.9417 8.32668 48.3895C7.78249 48.1384 7.55998 47.8633 7.171 46.9608C6.98557 46.5306 6.65743 45.8265 6.44167 45.3963C5.66577 43.8485 5.4104 42.3823 5.55134 40.2845C5.64259 38.9271 5.83742 38.262 6.61772 36.6444C6.9973 35.8575 7.37562 34.9111 7.46785 34.5176L7.63392 33.8087H9.42299H11.212V34.0934ZM17.1353 34.1753C17.0997 34.3771 16.7458 35.2241 16.3488 36.0577C15.9518 36.8913 15.5782 37.7605 15.5185 37.989L15.4101 38.4046H13.4577C12.384 38.4046 11.5054 38.3667 11.5054 38.3206C11.5054 38.2743 11.6563 37.91 11.8407 37.5109C12.2523 36.6202 12.5524 35.5041 12.6399 34.5376L12.706 33.8087H14.9529H17.1999L17.1353 34.1753ZM28.2037 34.198C28.1749 34.4122 27.8984 35.1053 27.5891 35.7382C27.2799 36.371 26.9068 37.2189 26.7599 37.6223L26.493 38.3557L24.5253 38.3822C23.443 38.3968 22.5574 38.3919 22.5574 38.3715C22.5574 38.3511 22.7091 38.0062 22.8945 37.6051C23.3016 36.7239 23.6049 35.6663 23.684 34.8514C23.7161 34.5199 23.7628 34.1497 23.7875 34.0287L23.8326 33.8087H26.0443H28.2559L28.2037 34.198ZM33.3704 34.3709C33.2444 35.4424 32.999 36.2111 32.3304 37.6287C31.4891 39.4124 31.3134 40.0382 31.3166 41.2404C31.3198 42.4005 31.4725 42.933 32.3127 44.7118C33.0754 46.3267 33.1806 46.9035 32.8356 47.5795C32.4523 48.3309 31.5573 48.7139 30.715 48.4872C30.2922 48.3733 29.6446 47.8057 29.5433 47.46C29.5101 47.3468 29.1798 46.6161 28.8091 45.8363C28.4385 45.0565 28.0487 44.0785 27.9428 43.6631C27.5305 42.0443 27.5935 39.7207 28.0902 38.2327C28.2205 37.8423 28.5639 37.0502 28.8534 36.4725C29.3329 35.5153 29.5982 34.8024 29.7445 34.0776L29.7988 33.8087H31.6176H33.4364L33.3704 34.3709ZM4.06176 41.0755C4.0598 41.7378 4.08993 42.5588 4.12846 42.9001L4.19869 43.5205L3.44783 43.4571C2.3792 43.3668 1.90866 43.0732 1.58277 42.2933C1.39078 41.834 1.39078 41.429 1.58277 40.9697C1.91238 40.181 2.41275 39.881 3.40841 39.8752L4.06518 39.8714L4.06176 41.0755ZM26.2251 41.1181C26.2251 41.8038 26.2585 42.6179 26.2994 42.9272L26.3735 43.4894H18.7544H11.1354L10.988 43.1211C10.628 42.2215 10.4949 40.9798 10.6723 40.1728L10.7385 39.8714H18.4818L26.2251 39.8713V41.1181ZM47.4671 39.9757C47.8586 40.1239 48.18 40.4456 48.3889 40.8981C48.6179 41.394 48.6182 41.8666 48.3899 42.3689C48.1471 42.9036 47.7017 43.2549 47.1047 43.3829C46.7741 43.4538 44.3851 43.4894 39.9586 43.4894H33.3091L33.1219 43.0527C32.7546 42.196 32.6377 40.674 32.889 40.0193C32.9389 39.8892 33.8012 39.8714 40.0688 39.8714C44.8767 39.8714 47.2813 39.9053 47.4671 39.9757ZM21.6681 45.6828C22.0141 46.514 22.0401 46.8962 21.7882 47.4506C21.2898 48.5474 20.058 48.8955 19.1007 48.21C18.7858 47.9846 18.6006 47.6864 18.0057 46.4475L17.2896 44.9562H19.3276H21.3655L21.6681 45.6828ZM43.7287 45.4378C44.2531 46.4726 44.247 47.2605 43.7094 47.8993C43.181 48.5272 42.3124 48.7271 41.5807 48.3895C41.0496 48.1444 40.7972 47.8458 40.497 47.1071C40.3572 46.7632 40.0702 46.1385 39.8593 45.7191L39.4757 44.9562H41.4801H43.4846L43.7287 45.4378Z" fill="white"/>
</svg>
