<svg width="50" height="50" viewBox="0 0 50 50" fill="none" xmlns="http://www.w3.org/2000/svg">
<path d="M50 23.051C49.82 23.2987 49.6271 23.5368 49.4221 23.7643C46.4244 26.7715 43.4241 29.7749 40.4211 32.7743C40.289 32.9167 40.145 33.0476 39.9906 33.1655C39.8012 33.2954 39.572 33.3543 39.3434 33.3319C39.1148 33.3094 38.9015 33.2071 38.7409 33.0429C38.58 32.8789 38.4838 32.6622 38.4701 32.4328C38.4564 32.2034 38.5262 31.9769 38.6666 31.7949C38.7791 31.6562 38.9011 31.5254 39.0318 31.4037C41.9304 28.5034 44.8264 25.6005 47.7198 22.695C47.9114 22.4917 48.0243 22.2267 48.0381 21.9477C48.0581 17.8964 48.0581 13.845 48.0381 9.79364C48.0381 9.53282 47.9076 9.272 47.8437 9.01119L47.6702 8.98641C46.9527 9.70627 46.2261 10.4209 45.5295 11.159C45.4552 11.2373 45.5295 11.485 45.5765 11.6415C45.797 12.382 45.7181 13.1795 45.3565 13.8623C44.995 14.5452 44.3798 15.0589 43.6432 15.293C42.9135 15.5223 42.1228 15.4557 41.4417 15.1076C40.7607 14.7594 40.2437 14.1577 40.0024 13.432C39.6358 12.3105 39.8719 11.2946 40.6925 10.46C41.513 9.62541 42.5266 9.36851 43.6497 9.72843C43.9733 9.83146 44.1441 9.76886 44.3594 9.54586C44.9803 8.90425 45.6234 8.28351 46.384 7.53105C46.0422 7.40064 45.8009 7.24415 45.5582 7.24415C41.4586 7.2285 37.3582 7.2285 33.2568 7.24415C33.0238 7.25422 32.8019 7.34665 32.6307 7.50497C24.3602 15.7572 16.0984 24.0164 7.84524 32.2826C7.01819 33.1094 7.01558 33.9688 7.83872 34.793C12.0557 39.0182 16.2762 43.2435 20.5002 47.4687C21.2985 48.2655 22.1686 48.2629 22.9787 47.457C26.0651 44.3767 29.1494 41.2934 32.2315 38.2071C32.3345 38.1041 32.435 37.9958 32.5459 37.9006C32.9868 37.5211 33.5242 37.5264 33.9065 37.9085C34.2887 38.2906 34.2861 38.8435 33.9169 39.2738C33.823 39.3847 33.7147 39.4838 33.6103 39.5881C30.6883 42.5106 27.7558 45.4226 24.8493 48.362C24.1045 49.1145 23.3309 49.7743 22.2677 50.0065H21.1928C20.1323 49.7691 19.3587 49.108 18.6125 48.3555C14.5773 44.2867 10.5299 40.2332 6.4703 36.1949C4.85533 34.5791 4.85925 32.5095 6.47813 30.8873C8.17832 29.1832 9.88025 27.4801 11.5839 25.7778C11.7 25.6618 11.807 25.5379 11.9988 25.3292H11.3361C8.79883 25.3292 6.26028 25.3292 3.72303 25.3292C1.47147 25.3227 0 23.8478 0 21.5943C0 15.6399 0 9.68453 0 3.72833C0 1.49312 1.49234 0.0077686 3.73869 0.0077686C15.5835 0.00255225 27.4279 -5.59256e-05 39.2719 -5.59256e-05C39.4976 -0.00826525 39.7226 0.032077 39.9314 0.118244C40.1402 0.204411 40.3282 0.334395 40.4824 0.499409C41.9669 2.00606 43.4628 3.50098 44.9699 4.98417C45.1003 5.11457 45.3247 5.28019 45.4917 5.26324C46.3553 5.17326 47.0571 5.4106 47.5854 6.12003C47.6076 6.15002 47.6702 6.15002 47.708 6.16176C48.9747 5.03633 49.3491 5.00503 50.0026 5.96353V6.54907L49.1247 7.60016C49.4221 7.97313 49.713 8.33437 50.0026 8.6969L50 23.051ZM20.5184 16.9283C20.7115 16.7001 20.8171 16.5553 20.9424 16.4288C24.4958 12.8722 28.0493 9.31591 31.6027 5.7601C31.7512 5.6002 31.9323 5.47394 32.1336 5.38982C32.335 5.30569 32.5521 5.26564 32.7702 5.27237C35.8123 5.28541 38.8557 5.28019 41.9017 5.28019H42.5057C41.3904 4.1665 40.3846 3.14801 39.3566 2.15038C39.1961 2.02497 38.9968 1.95948 38.7931 1.9652C27.0718 1.95912 15.353 1.95607 3.63693 1.95607C2.60899 1.95607 1.95674 2.60812 1.95674 3.63574C1.95674 9.65541 1.95674 15.6751 1.95674 21.6947C1.95674 22.7302 2.59073 23.3705 3.6265 23.3731C6.96253 23.3801 10.2986 23.3774 13.6346 23.3653C13.8534 23.3566 14.0622 23.2712 14.2242 23.124C15.3657 22.0116 16.4875 20.8784 17.6159 19.749C17.6872 19.6636 17.7514 19.5725 17.8077 19.4765C15.654 19.5352 14.6104 17.879 14.6104 16.5736C14.6055 15.8173 14.8932 15.0884 15.4135 14.5394C15.9338 13.9903 16.6463 13.6637 17.402 13.6277C19.1043 13.5233 20.2914 14.7361 20.5132 16.9283H20.5184ZM43.7463 12.5192C43.7443 12.267 43.6473 12.0248 43.4747 11.8409C43.3021 11.657 43.0665 11.5448 42.8149 11.5268C42.6213 11.5183 42.4296 11.5676 42.2643 11.6685C42.0989 11.7694 41.9674 11.9173 41.8865 12.0933C41.8056 12.2693 41.7791 12.4654 41.8102 12.6566C41.8414 12.8477 41.9288 13.0253 42.0614 13.1665C42.1939 13.3078 42.3656 13.4063 42.5544 13.4495C42.7433 13.4928 42.9407 13.4788 43.1216 13.4093C43.3024 13.3398 43.4584 13.218 43.5697 13.0595C43.681 12.9009 43.7425 12.7128 43.7463 12.5192ZM17.5559 17.5125C17.8108 17.5101 18.0543 17.4068 18.2331 17.2251C18.4118 17.0435 18.5112 16.7984 18.5095 16.5436C18.5068 16.2886 18.4042 16.0449 18.2237 15.8647C18.0432 15.6845 17.7992 15.5822 17.5442 15.5799C17.4139 15.5783 17.2847 15.6034 17.1644 15.6534C17.0442 15.7035 16.9353 15.7775 16.8446 15.871C16.7539 15.9644 16.6832 16.0754 16.6369 16.1971C16.5905 16.3188 16.5694 16.4487 16.5749 16.5788C16.5764 16.705 16.6031 16.8296 16.6536 16.9453C16.704 17.061 16.777 17.1654 16.8685 17.2525C16.9599 17.3395 17.0678 17.4073 17.1859 17.452C17.3039 17.4967 17.4298 17.5172 17.5559 17.5125Z" fill="white"/>
<path d="M28.6545 31.2459C28.0701 31.8406 27.4805 32.4196 26.9208 33.0312C26.8269 33.1329 26.8452 33.3585 26.8556 33.5255C26.8556 33.6298 26.9521 33.7276 26.9965 33.8319C27.213 34.3536 27.0369 34.8935 26.5738 35.136C26.4588 35.1993 26.3318 35.2379 26.201 35.2495C26.0702 35.2611 25.9384 35.2453 25.814 35.2033C25.6896 35.1612 25.5754 35.0937 25.4784 35.0051C25.3815 34.9166 25.3041 34.8088 25.2511 34.6887C24.0118 32.2788 22.7869 29.8636 21.5581 27.4458C21.3441 27.0246 21.3728 26.6216 21.7081 26.2787C22.0433 25.9357 22.4751 25.8966 22.9134 26.1196C25.2989 27.3367 27.6844 28.5539 30.0699 29.771C30.6517 30.0683 30.8369 30.5952 30.5917 31.1077C30.3464 31.6202 29.7842 31.7858 29.1776 31.4989L28.6545 31.2459ZM24.7854 29.2611L24.7149 29.342L25.7481 31.3607L26.8308 30.3044L24.7854 29.2611Z" fill="white"/>
<path d="M14.9233 34.5818C14.9233 33.4759 15.1842 32.8122 15.7191 32.2592C16.1696 31.7898 16.6292 31.329 17.0979 30.8769C17.548 30.4426 18.1415 30.4296 18.5329 30.8247C18.9242 31.2199 18.9112 31.7937 18.4637 32.2592C18.0815 32.6583 17.681 33.0417 17.2897 33.4329C16.794 33.935 16.7379 34.5244 17.1397 34.9391C17.5415 35.3538 18.0593 35.3303 18.6111 34.8713C20.4374 33.3351 23.0543 34.2258 23.4808 36.5405C23.5665 36.9743 23.5466 37.4224 23.4226 37.8468C23.2986 38.2712 23.0743 38.6596 22.7686 38.9792C22.3107 39.4865 21.8176 39.9611 21.3245 40.4345C20.894 40.8466 20.307 40.8557 19.9235 40.4828C19.5165 40.0915 19.5321 39.5073 19.9613 39.0483C20.3331 38.6571 20.7205 38.288 21.0988 37.9072C21.6506 37.3478 21.7237 36.817 21.3128 36.3684C20.9018 35.9198 20.3827 35.9472 19.7682 36.4558C18.7977 37.2578 17.7189 37.4325 16.5814 36.8952C15.4856 36.384 14.9573 35.4568 14.9233 34.5818Z" fill="white"/>
<path d="M34.7323 18.8155C35.1236 18.406 35.4797 18.0069 35.8619 17.6327C36.3172 17.188 36.8951 17.1658 37.2969 17.5505C37.6987 17.9352 37.7026 18.5403 37.2304 19.0176C36.8547 19.3958 36.4477 19.7453 36.0641 20.1013L37.5356 21.5554C37.8839 21.1837 38.2387 20.7833 38.6196 20.4065C39.101 19.9305 39.675 19.9135 40.0846 20.3373C40.4668 20.7286 40.442 21.3232 40.0024 21.7718C39.4119 22.3804 38.8136 22.9777 38.2074 23.5636C37.7117 24.0449 37.1925 24.054 36.7059 23.5715C34.8944 21.7736 33.089 19.9687 31.2897 18.1569C30.8227 17.6874 30.8266 17.1658 31.2897 16.6924C31.8985 16.0612 32.5194 15.4405 33.1525 14.8302C33.5791 14.4194 34.1713 14.4194 34.5509 14.7989C34.9305 15.1784 34.9423 15.76 34.5288 16.1969C34.1374 16.6063 33.7108 16.9793 33.3064 17.3705L34.7323 18.8155Z" fill="white"/>
<path d="M32.4599 26.6295C32.9986 26.0635 33.4382 25.5862 33.8948 25.1285C34.3879 24.6343 34.9384 24.5977 35.3585 25.0059C35.7785 25.4141 35.7498 26.0127 35.2645 26.5082C34.6045 27.1803 33.9379 27.8462 33.2648 28.5061C32.7338 29.0277 32.2212 29.0277 31.6928 28.5061C29.9074 26.7317 28.1246 24.9494 26.3444 23.1593C25.8683 22.6807 25.8513 22.1056 26.2713 21.6962C26.6914 21.2867 27.2432 21.3049 27.7363 21.7979C29.1765 23.228 30.6114 24.6625 32.0411 26.1014C32.1768 26.2383 32.2746 26.3922 32.4599 26.6295Z" fill="white"/>
<path d="M36.3368 36.4429C36.2106 36.446 36.085 36.4241 35.9672 36.3786C35.8494 36.333 35.7418 36.2647 35.6505 36.1774C35.5593 36.0902 35.4861 35.9858 35.4353 35.8702C35.3845 35.7546 35.3571 35.6301 35.3545 35.5039C35.3533 35.3762 35.3772 35.2494 35.4249 35.1309C35.4726 35.0124 35.5432 34.9044 35.6327 34.8131C35.7221 34.7219 35.8287 34.6492 35.9462 34.5991C36.0638 34.549 36.1901 34.5226 36.3179 34.5213C36.4457 34.52 36.5725 34.5439 36.6911 34.5916C36.8096 34.6393 36.9176 34.7099 37.0089 34.7993C37.1002 34.8887 37.1729 34.9953 37.223 35.1128C37.2731 35.2303 37.2996 35.3566 37.3009 35.4844C37.3007 35.6106 37.2756 35.7356 37.227 35.8522C37.1785 35.9687 37.1074 36.0745 37.0178 36.1636C36.9283 36.2526 36.822 36.3231 36.7052 36.371C36.5883 36.419 36.4631 36.4434 36.3368 36.4429Z" fill="white"/>
<path d="M17.2195 7.28335C17.1658 7.4628 17.0969 7.63732 17.0134 7.80498C14.974 11.4277 12.9303 15.0487 10.8822 18.668C10.5496 19.2562 10.003 19.4505 9.49945 19.1753C8.97765 18.8897 8.8472 18.3211 9.19029 17.703C11.2383 14.062 13.2886 10.4258 15.341 6.79431C15.6319 6.27268 16.035 6.09532 16.5046 6.22834C16.9468 6.35484 17.2195 6.70564 17.2195 7.28335Z" fill="white"/>
<path d="M12.2154 8.80393C12.2136 9.38353 12.0396 9.94954 11.7156 10.4302C11.3915 10.9108 10.932 11.2844 10.3953 11.5036C9.85857 11.7229 9.26882 11.7778 8.70082 11.6615C8.13282 11.5452 7.61215 11.2629 7.20485 10.8505C6.79754 10.438 6.52194 9.91384 6.41299 9.34456C6.30404 8.77528 6.36665 8.18647 6.59288 7.65281C6.81911 7.11915 7.19877 6.66466 7.68371 6.34698C8.16866 6.02931 8.73705 5.86275 9.31681 5.86843C10.0901 5.87497 10.8293 6.18755 11.3726 6.73773C11.9158 7.28791 12.2189 8.03086 12.2154 8.80393ZM9.28681 7.82456C9.15901 7.82558 9.03267 7.85177 8.915 7.9016C8.79732 7.95144 8.69062 8.02397 8.60098 8.11503C8.51134 8.20609 8.44052 8.31392 8.39257 8.43234C8.34461 8.55077 8.32046 8.67747 8.32148 8.80523C8.32251 8.93299 8.3487 9.05929 8.39856 9.17693C8.44841 9.29457 8.52096 9.40124 8.61205 9.49085C8.70314 9.58046 8.811 9.65125 8.92946 9.69919C9.04792 9.74714 9.17467 9.77128 9.30246 9.77025C9.56056 9.76818 9.80726 9.66369 9.98829 9.47978C10.1693 9.29587 10.2699 9.0476 10.2678 8.78958C10.2657 8.53157 10.1612 8.28494 9.97723 8.10396C9.79326 7.92299 9.54491 7.82248 9.28681 7.82456Z" fill="white"/>
<path d="M20.4649 16.4981C20.4631 17.0777 20.2891 17.6437 19.9651 18.1244C19.641 18.605 19.1815 18.9786 18.6448 19.1978C18.1081 19.4171 17.5183 19.472 16.9503 19.3557C16.3823 19.2394 15.8617 18.9572 15.4544 18.5447C15.0471 18.1322 14.7715 17.608 14.6625 17.0388C14.5536 16.4695 14.6162 15.8807 14.8424 15.347C15.0686 14.8134 15.4483 14.3589 15.9332 14.0412C16.4182 13.7235 16.9866 13.557 17.5663 13.5626C18.3396 13.5692 19.0788 13.8818 19.6221 14.4319C20.1653 14.9821 20.4684 15.7251 20.4649 16.4981ZM17.5363 15.5188C17.4085 15.5198 17.2822 15.546 17.1645 15.5958C17.0468 15.6457 16.9401 15.7182 16.8505 15.8092C16.7609 15.9003 16.69 16.0081 16.6421 16.1266C16.5941 16.245 16.57 16.3717 16.571 16.4994C16.572 16.6272 16.5982 16.7535 16.6481 16.8711C16.6979 16.9888 16.7705 17.0954 16.8616 17.1851C16.9527 17.2747 17.0605 17.3455 17.179 17.3934C17.2974 17.4413 17.4242 17.4655 17.552 17.4645C17.8101 17.4624 18.0568 17.3579 18.2378 17.174C18.4188 16.9901 18.5194 16.7418 18.5173 16.4838C18.5152 16.2258 18.4107 15.9792 18.2267 15.7982C18.0428 15.6172 17.7944 15.5167 17.5363 15.5188Z" fill="white"/>
</svg>
