<svg width="50" height="60" viewBox="0 0 50 60" fill="none" xmlns="http://www.w3.org/2000/svg">
<path fill-rule="evenodd" clip-rule="evenodd" d="M6.51091 0.141562C6.03258 0.415429 5.99033 0.590624 5.98645 2.31445L5.9827 3.98437H3.3926C0.769993 3.98437 0.46645 4.02726 0.146826 4.44292C0.0353151 4.58788 0.00303572 10.6589 0.00010123 31.9532C-0.0020116 46.9817 0.029211 59.363 0.0692374 59.4673C0.282398 60.0218 -0.620483 59.9999 22.0069 59.9999C37.8999 59.9999 43.2716 59.9658 43.4638 59.8636C43.9885 59.5846 44.006 59.483 44.0099 56.6893L44.0136 54.0233H46.5297C49.0708 54.0233 49.551 53.9589 49.84 53.5793C49.9637 53.4168 49.9932 49.7101 49.9962 33.9854L50 14.5919L42.6921 7.29596L35.3841 0L21.0649 0.00351562C10.5158 0.00621093 6.68381 0.042539 6.51091 0.141562ZM34.0364 8.6653V15.3384L34.3196 15.6672L34.6029 15.9961L41.3037 16.0291L48.0046 16.062V34.0467V52.0312H27.9913H7.97815V27.0117V1.99218H21.0073H34.0364V8.6653ZM41.3139 8.73045L46.5364 13.9453H41.2841H36.0318V8.73045C36.0318 5.86229 36.0452 3.51562 36.0617 3.51562C36.0781 3.51562 38.4416 5.86229 41.3139 8.73045ZM5.9827 29.6418V53.3071L6.26593 53.6359L6.54929 53.9647L24.2837 53.9952L42.0182 54.0256V56.0167V58.0077H22.005H1.9918V31.9921V5.97655H3.98725H5.9827V29.6418ZM12.4284 9.17365C12.0013 9.50096 11.9691 9.77471 11.9691 13.0677V16.3071L12.3122 16.6496L12.6553 16.9922H15.9925H19.3297L19.6403 16.7048L19.9509 16.4174V13.008V9.59869L19.6627 9.31112L19.3746 9.02342L15.9946 9.02717C13.5228 9.02987 12.5646 9.06924 12.4284 9.17365ZM17.9554 13.0078V15H15.96H13.9645V13.0078V11.0156H15.96H17.9554V13.0078ZM12.5559 19.1307C11.9344 19.4558 11.8289 20.2591 12.3448 20.7389C12.5716 20.9499 12.7561 20.9765 13.992 20.9765C15.3131 20.9765 15.3983 20.9619 15.6718 20.6888C16.0671 20.2943 16.0608 19.7059 15.6573 19.327C15.3819 19.0684 15.2425 19.04 14.1021 19.01C13.2397 18.9874 12.758 19.025 12.5559 19.1307ZM18.5665 19.1062C18.2045 19.2525 17.9217 19.9353 18.0661 20.3145C18.3335 21.0165 17.5501 20.9765 31.0533 20.9765H43.3947L43.7042 20.6676C44.0944 20.278 44.104 19.8054 43.7304 19.3718L43.4471 19.0429L31.1415 19.0202C23.7882 19.0066 18.7274 19.0413 18.5665 19.1062ZM12.5844 25.1294C11.9377 25.4211 11.8092 26.2075 12.3241 26.7216C12.5293 26.9265 12.7185 26.9531 13.9698 26.9531C15.3145 26.9531 15.3978 26.939 15.6718 26.6654C16.0438 26.2941 16.0468 25.7779 15.6797 25.3517C15.4112 25.0402 15.3475 25.0249 14.1831 24.9916C13.301 24.9664 12.8617 25.0042 12.5844 25.1294ZM18.5874 25.1279C18.3565 25.2289 18.1744 25.4232 18.0936 25.655C17.9475 26.0731 18.006 26.3128 18.3455 26.6894L18.5833 26.9531H31.0104H43.4374L43.7255 26.6654C44.0986 26.293 44.1005 25.7779 43.7304 25.3483L43.4472 25.0195L31.2002 24.9936C21.063 24.9723 18.8901 24.9953 18.5874 25.1279ZM12.3241 31.2861C11.9889 31.6208 11.9214 32.0288 12.1335 32.4385C12.392 32.9376 12.9299 33.0841 14.2865 33.0248C15.3317 32.9792 15.4219 32.9552 15.6819 32.6533C16.0468 32.2298 16.0428 31.7126 15.6718 31.3423C15.3978 31.0687 15.3145 31.0546 13.9698 31.0546C12.7185 31.0546 12.5293 31.0812 12.3241 31.2861ZM18.4002 31.2144C17.767 31.6947 17.9663 32.7038 18.7386 32.928C19.0592 33.021 22.6623 33.0483 31.3175 33.0234L43.4472 32.9882L43.7304 32.6594C44.1005 32.2298 44.0986 31.7147 43.7255 31.3423L43.4374 31.0546L31.0192 31.0584C21.0171 31.0613 18.5619 31.0917 18.4002 31.2144ZM12.3448 37.2688C12.0019 37.5877 11.9145 37.9989 12.1052 38.3961C12.3618 38.9302 12.7073 39.0343 14.1021 38.9977C15.2425 38.9677 15.3819 38.9393 15.6573 38.6807C16.0608 38.3018 16.0671 37.7134 15.6718 37.3189C15.3983 37.0458 15.3131 37.0312 13.992 37.0312C12.7561 37.0312 12.5716 37.0578 12.3448 37.2688ZM18.3455 37.2948C18.2147 37.4399 18.074 37.6538 18.0328 37.7702C17.9136 38.1061 18.2406 38.733 18.6159 38.8878C18.8706 38.993 21.9504 39.0194 31.2002 38.9959L43.4471 38.9648L43.7304 38.6359C44.0939 38.2141 44.0922 37.7359 43.7258 37.3413L43.4379 37.0312H31.0106H18.5833L18.3455 37.2948ZM12.3122 43.3503C12.1053 43.5568 11.9691 43.8163 11.9691 44.0038C11.9691 44.1913 12.1053 44.4509 12.3122 44.6574C12.6484 44.993 12.6803 44.9999 13.9045 44.9999C15.1506 44.9999 15.5264 44.9094 15.8095 44.5414C16.06 44.2156 15.9868 43.6525 15.6505 43.3166C15.3522 43.0189 15.2925 43.0077 13.9982 43.0077C12.6704 43.0077 12.6514 43.0116 12.3122 43.3503ZM18.3493 43.2855C18.1029 43.4971 18.0258 43.6683 18.0258 44.0038C18.0258 44.3393 18.1029 44.5105 18.3493 44.7222L18.6728 44.9999H30.9402C43.591 44.9999 43.5082 45.0028 43.8632 44.5414C44.0472 44.3021 44.0472 43.7056 43.8632 43.4663C43.5082 43.0048 43.591 43.0077 30.9402 43.0077H18.6728L18.3493 43.2855Z" fill="white"/>
</svg>
