<svg width="50" height="50" viewBox="0 0 50 50" fill="none" xmlns="http://www.w3.org/2000/svg">
<path d="M0 1.77244C0.447388 0.466912 1.37086 0 2.73129 0C10.6538 0.0313014 18.5777 0.0195633 26.5002 0.00652112C26.7247 -0.00261199 26.9485 0.037089 27.1561 0.122882C27.3638 0.208674 27.5503 0.338513 27.7029 0.50343C30.5454 3.36577 33.398 6.21854 36.2606 9.06174C36.4155 9.20121 36.5377 9.37308 36.6187 9.56513C36.6996 9.75718 36.7372 9.9647 36.7289 10.1729C36.7067 11.8815 36.7289 13.59 36.7145 15.2972C36.7145 15.605 36.7876 15.785 37.0745 15.9493C40.3719 17.8913 42.4562 20.728 43.2962 24.4698C43.3302 24.6118 43.3534 24.7561 43.3653 24.9015C43.394 25.3137 43.218 25.598 42.8032 25.6841C42.3884 25.7701 42.0728 25.5706 41.9514 25.1493C41.7897 24.5885 41.6814 24.0094 41.4962 23.4538C39.8423 18.5056 34.9745 15.3168 29.7246 15.7328C27.5476 15.913 25.4676 16.7125 23.7304 18.0367C21.9931 19.361 20.6712 21.1547 19.9208 23.2061C19.1704 25.2574 19.0228 27.4807 19.4955 29.6132C19.9682 31.7457 21.0414 33.6984 22.5883 35.2407C24.1353 36.7829 26.0913 37.8502 28.2254 38.3165C30.3595 38.7828 32.5825 38.6287 34.6318 37.8723C36.6811 37.1159 38.4711 35.7888 39.7903 34.0478C41.1096 32.3068 41.9029 30.2247 42.0767 28.0473C42.1223 27.4761 42.4093 27.1565 42.8593 27.18C43.3288 27.2035 43.591 27.5713 43.5401 28.1647C43.3733 30.2623 42.6953 32.2872 41.5654 34.0624L43.3484 35.8661C43.9001 35.6196 44.0723 35.6535 44.5875 36.1687C46.0379 37.6177 47.4923 39.0615 48.9349 40.5183C49.9562 41.5499 50.2496 42.7876 49.7866 44.1532C49.334 45.4913 48.3518 46.2543 46.9536 46.4434C45.9101 46.5842 44.9619 46.313 44.208 45.5813C42.6219 44.0397 41.0697 42.4629 39.5045 40.9004C39.1471 40.5431 39.1615 40.1557 39.4276 39.7892L37.6732 38.0377C37.6489 38.0408 37.6249 38.0461 37.6015 38.0533C36.8802 38.3142 36.6884 38.8032 36.6989 39.574C36.7563 42.1434 36.6819 44.7153 36.7354 47.2846C36.7641 48.6475 36.2606 49.5605 34.9563 50H1.75694C1.34004 49.8784 0.960509 49.6537 0.653426 49.3466C0.346343 49.0396 0.121612 48.6601 0 48.2432L0 11.0468C0.260868 10.7442 0.528257 10.4599 0.987384 10.6399C1.44651 10.8198 1.46869 11.1941 1.46869 11.605C1.46869 23.5308 1.46869 35.4566 1.46869 47.3824C1.46869 48.358 1.64999 48.5354 2.64259 48.5354H34.1254C35.0724 48.5354 35.2537 48.3515 35.2537 47.3916V39.291C34.4345 39.4867 33.6572 39.7175 32.8615 39.8492C32.1244 39.973 31.3785 40.0372 30.6311 40.041C25.3276 40.0566 20.0229 40.0501 14.7182 40.0488C14.5877 40.0545 14.457 40.0523 14.3269 40.0423C14.153 40.034 13.9887 39.9598 13.8676 39.8348C13.7465 39.7098 13.6775 39.5433 13.6747 39.3693C13.654 39.2046 13.6953 39.0381 13.7905 38.9022C13.8857 38.7663 14.0281 38.6706 14.1899 38.6337C14.3632 38.5923 14.5416 38.5765 14.7195 38.5867C17.7951 38.5867 20.8703 38.5867 23.9451 38.5867H24.4446C23.5798 37.9216 22.7294 37.2564 21.8633 36.6148C21.7095 36.5309 21.5344 36.4942 21.3598 36.5091C19.196 36.5026 17.0321 36.5091 14.8682 36.5091C14.7208 36.5091 14.5734 36.5169 14.4286 36.5026C13.9629 36.4596 13.6708 36.1726 13.6682 35.7696C13.6682 35.3444 13.9721 35.0458 14.4716 35.0432C16.2455 35.0327 18.0194 35.0432 19.7933 35.0367H20.3986C20.1586 34.6767 19.9707 34.3989 19.7894 34.1237C18.9682 32.8664 18.3887 31.4669 18.0807 29.9971C18.0051 29.6398 17.8538 29.5654 17.5251 29.5733C16.599 29.5928 15.6703 29.5733 14.7429 29.5733C14.6124 29.5783 14.4817 29.5748 14.3516 29.5628C14.1629 29.5479 13.987 29.4611 13.8604 29.3203C13.7337 29.1796 13.6658 28.9956 13.6708 28.8064C13.6726 28.7124 13.6932 28.6196 13.7314 28.5337C13.7696 28.4477 13.8245 28.3703 13.8931 28.3059C13.9616 28.2415 14.0423 28.1914 14.1305 28.1587C14.2186 28.1259 14.3125 28.1111 14.4064 28.1151C15.3338 28.1008 16.2612 28.1151 17.1886 28.1086H17.7455V25.9919H14.7755C14.0269 25.9919 13.676 25.761 13.6708 25.2693C13.6656 24.7776 14.0256 24.5285 14.7625 24.5272L17.8864 24.5181C17.9342 24.5096 17.981 24.496 18.026 24.4777C18.4358 22.5904 19.2551 20.8162 20.4259 19.2803H14.7808C14.6021 19.2803 14.3751 19.3299 14.259 19.2425C14.0321 19.0756 13.7373 18.8343 13.7151 18.606C13.6929 18.3778 13.946 18.0752 14.1547 17.8952C14.2851 17.7818 14.5577 17.8131 14.7664 17.8118C16.946 17.8118 19.1268 17.8183 21.3064 17.7961C21.5861 17.7753 21.8541 17.6749 22.0785 17.5066C22.8716 16.9458 23.6437 16.3484 24.4746 15.7224H14.739C14.5608 15.7317 14.3822 15.7163 14.2082 15.6768C14.0473 15.6314 13.9073 15.5315 13.812 15.3941C13.7168 15.2568 13.6723 15.0906 13.6862 14.9241C13.7 14.7576 13.7714 14.601 13.8881 14.4814C14.0047 14.3617 14.1594 14.2863 14.3256 14.2682C14.4066 14.26 14.488 14.2569 14.5695 14.2591H30.8737C32.258 14.2715 33.6309 14.5103 34.938 14.966C35.0267 14.996 35.1193 15.0155 35.2393 15.0468V10.5642H34.7176C32.6646 10.5642 30.6137 10.5642 28.565 10.5642C27.0624 10.5642 26.1716 9.66951 26.1689 8.16444C26.1689 6.13159 26.1689 4.09787 26.1689 2.06328V1.48029H2.57085C1.65781 1.48029 1.46608 1.67853 1.46608 2.60453C1.46608 4.44218 1.46608 6.28114 1.46608 8.12009C1.46608 8.54136 1.40477 8.92089 0.958689 9.06957C0.512605 9.21825 0.221738 8.96914 0 8.60787V1.77244ZM43.8258 37.5616L41.1075 40.2822C42.5097 41.7169 43.8936 43.205 45.3597 44.607C46.0719 45.2891 47.2679 45.1209 47.9684 44.3984C48.6688 43.6758 48.7757 42.4955 48.0871 41.7782C46.6953 40.337 45.2462 38.9637 43.8258 37.5616ZM27.6324 2.67105V3.01406C27.6324 4.71998 27.6324 6.42591 27.6324 8.13183C27.6324 8.85698 27.8711 9.09956 28.5898 9.10087C30.3115 9.10087 32.0337 9.10087 33.7563 9.10087C33.8473 9.09662 33.9379 9.0866 34.0276 9.07087L27.6324 2.67105ZM40.711 35.5375L39.0845 37.1704L40.4788 38.6363L42.1406 36.9734L40.711 35.5375Z" fill="white"/>
<path d="M11.515 16.7945C11.515 17.3162 11.5267 17.8378 11.515 18.353C11.4889 19.2947 10.8224 19.9872 9.88198 20.0094C8.80981 20.0346 7.73764 20.0346 6.66548 20.0094C5.73809 19.9898 5.06245 19.3455 5.02984 18.413C4.99201 17.3096 4.99071 16.2037 5.02984 15.1016C5.06505 14.1678 5.7394 13.5365 6.67722 13.5183C7.73199 13.4965 8.78764 13.4965 9.84415 13.5183C10.8407 13.5378 11.4994 14.2304 11.5163 15.2346C11.5228 15.755 11.515 16.2741 11.515 16.7945ZM10.0437 16.7501C10.0437 16.2963 10.0333 15.8372 10.0437 15.3872C10.0528 15.1016 9.95111 14.9712 9.65241 14.9738C8.7272 14.9825 7.80243 14.9825 6.87808 14.9738C6.59243 14.9738 6.46461 15.0716 6.46722 15.365C6.47635 16.2897 6.47504 17.2144 6.46722 18.1391C6.46722 18.4169 6.552 18.5565 6.85852 18.5526C7.7833 18.5421 8.70807 18.5408 9.63285 18.5526C9.96284 18.5526 10.0528 18.4091 10.0424 18.1078C10.0437 17.6579 10.0437 17.204 10.0437 16.7501Z" fill="white"/>
<path d="M11.5147 37.5786C11.5147 38.0821 11.5225 38.5855 11.5147 39.0889C11.4951 40.0671 10.8495 40.7622 9.87644 40.7844C8.80427 40.8157 7.7321 40.8131 6.65994 40.7844C5.72342 40.7596 5.05951 40.1206 5.02691 39.1854C4.98908 38.099 4.99038 37.0087 5.02691 35.9249C5.05299 34.9532 5.73907 34.3089 6.72646 34.3011C7.74906 34.2889 8.7721 34.2889 9.79557 34.3011C10.8169 34.3142 11.4912 35.0002 11.5134 36.024C11.5225 36.5392 11.5147 37.0596 11.5147 37.5786ZM6.48124 37.5043C6.48124 37.9738 6.49168 38.4446 6.48124 38.9155C6.47081 39.2324 6.60255 39.3432 6.91428 39.338C7.8221 39.3259 8.73036 39.3259 9.63905 39.338C9.95992 39.338 10.0617 39.2076 10.0577 38.8998C10.043 37.9921 10.043 37.0839 10.0577 36.1753C10.0577 35.8531 9.92731 35.7501 9.6247 35.7553C8.71166 35.7671 7.80776 35.7684 6.89994 35.7553C6.57255 35.7553 6.47211 35.8858 6.48124 36.1922C6.49037 36.6279 6.48124 37.0661 6.48124 37.5043Z" fill="white"/>
<path d="M8.23314 30.2906C7.72836 30.2906 7.22358 30.2984 6.72011 30.2906C5.74837 30.2736 5.05968 29.6606 5.02446 28.7033C4.98533 27.5987 4.98533 26.4862 5.02446 25.3854C5.05968 24.4451 5.73533 23.8321 6.68098 23.8203C7.73923 23.8047 8.79705 23.8047 9.85443 23.8203C10.8314 23.8373 11.494 24.5142 11.5083 25.4976C11.5214 26.5409 11.5214 27.5843 11.5083 28.6277C11.494 29.602 10.8144 30.2736 9.84139 30.2958C9.30661 30.2997 8.77053 30.2893 8.23314 30.2906ZM6.48011 28.8233C7.63445 28.8233 8.70531 28.8312 9.77487 28.8103C9.86748 28.8103 10.0357 28.6134 10.0357 28.5064C10.0566 27.5478 10.0592 26.5892 10.0357 25.6306C10.0134 25.552 9.97115 25.4804 9.91312 25.4229C9.8551 25.3653 9.78323 25.3237 9.70443 25.3019C8.74574 25.2745 7.78706 25.2928 6.82837 25.2824C6.53098 25.2824 6.47619 25.4324 6.4788 25.6736C6.4788 26.1771 6.4788 26.6805 6.4788 27.1839L6.48011 28.8233Z" fill="white"/>
<path d="M40.2478 27.1538C40.2204 31.1734 37.6613 34.8109 33.9009 36.1412C32.0283 36.8175 29.991 36.8906 28.0748 36.35C26.1586 35.8094 24.4599 34.6824 23.217 33.1271C22.8114 32.6237 22.7918 32.1816 23.1623 31.8868C23.5327 31.592 23.9449 31.7159 24.3622 32.2076C26.5483 34.7613 29.3096 35.7812 32.5796 34.9817C35.8835 34.1718 37.913 31.982 38.6056 28.6458C39.6948 23.4133 35.1909 18.5407 29.8561 19.125C25.6705 19.5828 22.527 23.0624 22.5936 27.2203C22.6053 27.9585 22.8231 28.6914 22.9118 29.4375C22.9444 29.7114 22.9575 30.0439 22.831 30.2617C22.7305 30.4352 22.3601 30.6008 22.1788 30.5434C22.0417 30.4939 21.9161 30.4171 21.8095 30.3175C21.703 30.218 21.6179 30.0978 21.5592 29.9644C20.9972 28.27 20.9518 26.4468 21.4288 24.7266C22.6027 20.3731 26.6175 17.4086 31.0457 17.6173C33.2515 17.7054 35.3588 18.5545 37.0095 20.0202C38.6601 21.486 39.7523 23.478 40.1004 25.6578C40.1813 26.1456 40.2008 26.6516 40.2478 27.1538Z" fill="white"/>
<path d="M29.7458 25.9305C30.5089 25.2118 31.2537 24.5336 31.9723 23.828C32.9858 22.8342 34.3828 22.7677 35.3193 23.6976C36.2558 24.6275 36.2088 26.0048 35.2332 27.0117C34.0445 28.2376 32.8528 29.4597 31.658 30.6778C30.5454 31.8086 29.2437 31.8112 28.1024 30.6948C27.5206 30.1261 26.9285 29.5627 26.3572 28.9915C25.3672 28.012 25.3137 26.6165 26.2267 25.6853C27.1398 24.754 28.5002 24.7801 29.5045 25.71C29.6076 25.7935 29.6963 25.8835 29.7458 25.9305ZM34.5119 25.4531C34.5262 24.878 34.1675 24.4723 33.7293 24.5258C33.4634 24.5662 33.2164 24.6879 33.0223 24.874C32.2215 25.6566 31.4571 26.4743 30.6745 27.2764C30.0067 27.9611 29.7367 27.9664 29.0637 27.3129C28.8772 27.1316 28.6946 26.9478 28.5028 26.7717C28.0906 26.3935 27.6263 26.3713 27.2937 26.7065C26.9611 27.0417 26.9728 27.5177 27.368 27.9116C27.9889 28.5315 28.6172 29.1432 29.2528 29.7466C29.6806 30.1535 30.1189 30.1496 30.5363 29.7271C31.7676 28.4776 32.991 27.2212 34.2067 25.9578C34.3292 25.8031 34.4318 25.6335 34.5119 25.4531Z" fill="white"/>
</svg>
