<svg width="32" height="50" viewBox="0 0 32 50" fill="none" xmlns="http://www.w3.org/2000/svg">
<path d="M29.9232 0C30.6772 0.244577 31.3261 0.611441 31.7118 1.34517C31.907 1.71381 32.0055 2.12504 31.9982 2.54114C31.991 2.95724 31.8782 3.36487 31.6703 3.72663C31.4624 4.08839 31.1659 4.3927 30.8082 4.61162C30.4505 4.83054 30.0429 4.95706 29.6229 4.97958C29.3151 4.99548 29.0048 4.97958 28.5549 4.97958C28.5549 5.96889 28.6155 6.91173 28.5438 7.84357C28.1495 12.9797 26.1508 17.4224 22.6565 21.2231C22.2882 21.6395 21.8974 22.0359 21.486 22.4105C19.8 23.8853 19.8445 26.0853 21.4674 27.5736C23.3793 29.3258 24.9635 31.3982 26.1471 33.6953C27.8038 36.893 28.6589 40.4379 28.6402 44.0311V45.0094C28.9739 45.0094 29.2644 44.9996 29.5561 45.0094C30.1949 45.0289 30.8023 45.2882 31.255 45.7345C31.7076 46.1809 31.9717 46.7809 31.9936 47.4129C32.0154 48.0448 31.7934 48.6613 31.3727 49.1372C30.9519 49.6131 30.3639 49.9129 29.7279 49.9755C29.5636 49.9903 29.3985 49.9964 29.2335 49.9939H2.78212C1.39651 49.9939 0.433635 49.3237 0.0999027 48.1376C0.00416688 47.784 -0.0112718 47.4138 0.0546947 47.0536C0.120661 46.6935 0.266397 46.3522 0.481443 46.0544C0.69649 45.7565 0.975514 45.5094 1.29849 45.3309C1.62147 45.1523 1.9804 45.0467 2.34951 45.0216C2.66099 45.0045 2.97371 45.0216 3.36924 45.0216C3.36924 44.7086 3.36924 44.4249 3.36924 44.1399C3.33903 40.8428 4.0416 37.5794 5.42726 34.5807C6.60645 32.0371 8.24544 29.8188 10.2404 27.8426C10.6669 27.4207 11.1057 26.9756 11.3924 26.4595C12.0426 25.277 11.9103 24.092 11.0723 23.0354C10.6063 22.4533 10.0328 21.952 9.51857 21.4004C5.90685 17.563 3.85501 13.0359 3.46195 7.79832C3.39273 6.89339 3.45206 5.9799 3.45206 4.98569C3.09361 4.98569 2.83404 4.98569 2.58683 4.98569C1.24572 4.96246 0.195078 4.08321 0.02574 2.8591C-0.14607 1.60687 0.588141 0.501382 1.85509 0.0966077C1.93266 0.068636 2.00859 0.0363828 2.08252 0L29.9232 0ZM5.05892 5.03216C4.93531 8.93927 5.72762 12.5786 7.59405 15.977C8.71267 18.0131 10.1897 19.7679 11.8485 21.387C13.291 22.7896 13.7941 24.4699 13.2378 26.4265C12.9313 27.5063 12.1958 28.2865 11.4196 29.0471C7.52359 32.8601 5.40913 37.4728 5.07622 42.8853C5.0342 43.575 5.07004 44.2684 5.07004 44.9642H26.9159C26.9331 44.9086 26.9459 44.8517 26.9542 44.7942C27.0445 41.3224 26.3918 38.0047 24.853 34.8693C23.6898 32.4981 22.0669 30.4669 20.1758 28.6326C18.0658 26.5757 17.9781 23.8205 19.9174 21.6426C20.5045 20.9847 21.1683 20.3928 21.753 19.7324C24.6229 16.5321 26.4009 12.5186 26.8343 8.2618C26.9493 7.204 26.9443 6.13153 26.995 5.03705L5.05892 5.03216ZM15.9534 3.32746H29.032C29.213 3.33424 29.3943 3.32933 29.5747 3.31279C29.7737 3.29326 29.9588 3.20268 30.0953 3.05796C30.2318 2.91325 30.3103 2.72432 30.3163 2.52648C30.3274 2.33552 30.2674 2.14715 30.1476 1.99705C30.0278 1.84695 29.8565 1.74554 29.6661 1.71204C29.4894 1.67526 29.3088 1.66047 29.1284 1.66801C20.3764 1.66801 11.624 1.66801 2.87112 1.66801C2.70562 1.65983 2.53973 1.6705 2.3767 1.69981C1.93914 1.79886 1.68946 2.07523 1.68822 2.5277C1.69387 2.73329 1.7777 2.92922 1.92297 3.07634C2.06824 3.22346 2.26425 3.31096 2.47187 3.32135C2.63503 3.33725 2.80066 3.32991 2.96629 3.32991L15.9534 3.32746ZM16.0041 46.6738H2.97371C2.7927 46.667 2.61145 46.6719 2.43109 46.6884C2.232 46.7085 2.04705 46.7994 1.91063 46.9443C1.77421 47.0891 1.69562 47.2781 1.68946 47.476C1.67799 47.6657 1.7368 47.853 1.85488 48.0029C1.97296 48.1529 2.14222 48.2551 2.33097 48.2904C2.50759 48.3276 2.68821 48.3428 2.86865 48.3357H29.1309C29.2964 48.3436 29.4622 48.3334 29.6253 48.3051C30.0629 48.2048 30.3126 47.9284 30.3138 47.4772C30.3088 47.2713 30.2252 47.0749 30.0798 46.9275C29.9344 46.78 29.7381 46.6925 29.5302 46.6823C29.367 46.6664 29.2014 46.6738 29.0357 46.6738H16.0041Z" fill="white"/>
<path d="M15.9962 43.3402H8.05211C6.98911 43.3402 6.71471 43.0076 6.84573 41.9571C7.01269 40.4406 7.69363 39.0247 8.77767 37.9399C9.22636 37.4863 9.6429 37.0057 10.1089 36.5654C11.0656 35.6532 12.2102 35.0882 13.5414 35.0454C15.168 34.9928 16.7971 35.0026 18.4238 35.0454C19.5758 35.0711 20.6548 35.4563 21.4805 36.2401C22.4618 37.1723 23.3759 38.1714 24.2159 39.2301C24.8735 40.0629 25.0725 41.117 25.1788 42.165C25.2628 42.9966 24.9452 43.339 24.0898 43.3402C21.3919 43.3443 18.6941 43.3443 15.9962 43.3402ZM23.4471 41.66C23.2888 41.2332 23.185 40.859 23.0169 40.5141C22.4792 39.405 21.5646 38.5942 20.6993 37.7528C20.0477 37.0937 19.1591 36.7161 18.2272 36.7024C16.7316 36.6828 15.2323 36.6364 13.7429 36.7305C13.0567 36.7718 12.3941 36.9934 11.8233 37.3725C10.7312 38.1349 9.81634 39.1193 9.13983 40.2598C8.89262 40.6755 8.75913 41.1537 8.55024 41.66H23.4471Z" fill="white"/>
<path d="M12.7193 11.0707C13.2903 11.2553 13.938 11.3287 14.4201 11.6454C16.3125 12.8903 18.4385 13.174 20.6213 13.2927C21.1293 13.3208 21.6411 13.3232 22.1466 13.3783C22.9871 13.47 23.4692 14.1927 23.0699 14.9215C22.6771 15.5944 22.1985 16.2146 21.646 16.7669C20.7808 17.6767 19.8414 18.5229 18.9354 19.3985C17.6585 20.6324 16.933 22.1158 16.8637 23.8963C16.8553 24.0423 16.835 24.1875 16.8032 24.3304C16.7776 24.5192 16.6809 24.6914 16.5323 24.8125C16.3837 24.9336 16.1944 24.9947 16.0022 24.9834C15.5832 24.9834 15.2754 24.7609 15.2037 24.3304C15.1147 23.7862 15.0987 23.2298 14.98 22.6905C14.6898 21.4113 14.0109 20.2506 13.0345 19.3643C11.6351 18.0312 10.4456 16.4982 9.50556 14.8164C9.39982 14.643 9.3318 14.4497 9.30584 14.2488C9.27987 14.0479 9.29653 13.8439 9.35476 13.6497C9.75277 12.1896 11.1248 11.1648 12.7193 11.0707ZM15.9849 20.5676C17.2123 18.2539 19.3531 16.9051 20.9662 15.0328C20.8965 15.0037 20.824 14.9816 20.7499 14.9668C18.1542 14.869 15.671 14.4532 13.43 13.02C12.7156 12.5638 11.6884 12.8977 11.2323 13.5556C11.0568 13.8075 10.9579 14.0508 11.1816 14.3492C11.8924 15.2994 12.5326 16.3058 13.2977 17.212C14.1988 18.2796 15.3372 19.1527 15.9849 20.5676Z" fill="white"/>
<path d="M16.8118 27.9269C16.818 28.7609 16.5399 29.1645 15.9726 29.1498C15.4052 29.1351 15.1333 28.7328 15.1358 27.9C15.1297 27.7366 15.1376 27.573 15.1592 27.4109C15.1852 27.2079 15.2837 27.0209 15.437 26.8836C15.5902 26.7463 15.7881 26.6679 15.9948 26.6625C16.4336 26.6625 16.7698 27.0012 16.8094 27.4794C16.8118 27.6371 16.8118 27.7814 16.8118 27.9269Z" fill="white"/>
<path d="M16.8107 32.097C16.8107 32.942 16.5437 33.3198 15.9615 33.3198C15.3794 33.3198 15.126 32.9151 15.126 32.0737C15.126 32.0089 15.126 31.9441 15.126 31.8793C15.1433 31.2214 15.4585 30.8472 15.9912 30.8557C16.5239 30.8643 16.7971 31.2165 16.8107 31.8585C16.8107 31.9343 16.8107 32.0163 16.8107 32.097Z" fill="white"/>
</svg>
