<svg width="50" height="50" viewBox="0 0 50 50" fill="none" xmlns="http://www.w3.org/2000/svg">
<path d="M25.982 0C26.7493 0.134042 27.5254 0.22797 28.281 0.409955C31.0589 1.08567 33.5596 2.60413 35.4401 4.75702C37.3206 6.90991 38.4887 9.59176 38.7842 12.4346C38.7989 12.5775 38.8292 12.7184 38.8439 12.8113C39.8098 13.007 40.7484 13.1244 41.6498 13.3798C47.2566 14.9697 50.7936 20.578 49.8472 26.3447C49.4603 28.7641 48.3149 30.9981 46.5763 32.7248C44.8376 34.4516 42.5954 35.5818 40.1729 35.9527C39.9772 35.9821 39.7423 36.0711 39.6298 36.214C37.7761 38.5798 35.2257 39.7362 32.3973 40.4211C31.7191 40.5865 31.0272 40.7205 30.3421 40.8223C29.334 40.97 28.7713 41.5189 28.5188 42.51C28.0099 44.5021 27.9042 46.5215 27.9316 48.5615C27.9492 49.719 27.6546 49.9978 26.489 49.9978C25.4125 49.9978 24.3359 50.0027 23.2662 49.9978C22.4422 49.9929 22.0663 49.627 22.0781 48.7973C22.1065 46.6115 22.0233 44.4444 21.4361 42.3153C21.1787 41.381 20.6414 40.8741 19.7018 40.7195C17.8991 40.426 16.1443 39.9525 14.4806 39.1795C13.0184 38.5005 11.7109 37.6141 10.6383 36.3959C10.4377 36.1731 10.1701 36.0213 9.87588 35.9635C7.57594 35.6156 5.43368 34.5847 3.72708 33.0046C2.02048 31.4244 0.828332 29.3679 0.305349 27.102C0.187907 26.5991 0.0978682 26.0903 0 25.5845V23.5298C0.0342539 23.3576 0.0724225 23.1864 0.0978682 23.0142C0.91311 18.1309 3.66027 14.8934 8.3785 13.3759C9.26616 13.0912 10.2135 12.9953 11.1707 12.8055C11.1883 12.6655 11.2128 12.4894 11.2314 12.3162C11.4074 10.6966 11.8714 9.12142 12.6015 7.66488C12.8736 7.11403 13.3933 6.90954 13.8943 7.12675C14.3954 7.34396 14.5921 7.8586 14.3749 8.43782C14.2672 8.72548 14.1234 9.00139 14.0069 9.28611C13.5264 10.4602 13.2063 11.6783 13.1505 12.9062C14.0186 13.1538 14.8593 13.3485 15.6628 13.642C16.0778 13.7946 16.3293 13.733 16.6542 13.4639C19.741 10.9093 23.2799 9.96708 27.224 10.607C29.5386 10.9817 31.587 11.963 33.3897 13.4678C33.5502 13.6029 33.7988 13.7878 33.9544 13.7477C34.9223 13.4952 35.8746 13.1841 36.8542 12.8867C36.8567 12.8521 36.8567 12.8175 36.8542 12.783C36.5264 9.40743 35.0368 6.63265 32.3797 4.5369C29.6658 2.3932 26.5507 1.54296 23.1292 2.15251C21.945 2.36384 20.8146 2.87262 19.6529 3.22876C19.3534 3.31975 19.0148 3.40977 18.7202 3.35693C18.3288 3.28649 18.0939 2.96557 18.0586 2.54681C18.0195 2.08597 18.2289 1.73668 18.6351 1.56839C19.5316 1.19073 20.428 0.795449 21.3578 0.519537C22.1926 0.27102 23.0714 0.1722 23.9307 0.00782729L25.982 0ZM41.0009 33.7552C45.7142 32.5664 49.3765 27.2791 47.6099 21.6298C45.863 16.044 39.9371 13.6772 35.2785 15.3973C35.4183 15.5772 35.5471 15.7654 35.6642 15.9608C36.2024 16.9764 36.7593 17.9852 37.2477 19.0252C37.5236 19.6123 37.276 20.169 36.7642 20.3774C36.2523 20.5858 35.7356 20.3608 35.4596 19.7649C35.2756 19.3677 35.1406 18.946 34.9429 18.5556C32.7027 14.1527 28.2614 11.7693 23.3562 12.5129C19.2164 13.1401 16.3567 15.5235 14.7252 19.3686C14.1987 20.6083 13.9834 21.9184 13.9423 23.2657C13.9227 23.9809 13.4862 24.4192 12.9176 24.3889C12.3304 24.3576 11.9898 23.9085 11.9986 23.1825C12.0097 21.2234 12.4885 19.2953 13.3952 17.5586C13.7867 16.813 14.2555 16.1115 14.7213 15.3346C11.0317 14.2711 7.75312 14.9433 4.91494 17.5537C2.21476 20.0389 1.2214 24.202 2.51228 27.693C3.66321 30.8043 5.85839 32.812 9.09881 33.8139C9.0254 33.5595 8.98136 33.4049 8.93634 33.2503C8.63728 32.216 8.55729 31.1307 8.70146 30.0637C8.77095 29.5197 9.12425 29.1498 9.58228 29.0999C9.81123 29.0648 10.045 29.1177 10.2364 29.2481C10.4279 29.3784 10.5627 29.5765 10.6138 29.8024C10.8565 30.728 11.4829 31.2642 12.3676 31.4305C13.0994 31.57 13.8459 31.6157 14.5892 31.5665C15.5591 31.498 16.5153 31.2104 17.4832 31.1683C18.5264 31.1223 19.5776 31.2524 20.6639 31.3072C20.6541 31.3434 20.6805 31.2837 20.6854 31.2231C20.9898 27.875 22.1652 24.8517 24.0756 22.0974C24.6442 21.2765 25.3723 21.2795 25.9419 22.0974C27.4165 24.2294 28.4345 26.6431 28.9318 29.187C29.0874 29.9619 29.198 30.7466 29.3321 31.544C29.4373 31.5425 29.5423 31.5336 29.6462 31.5176C30.8784 31.2368 32.0929 31.3522 33.3261 31.5704C34.4261 31.7661 35.5399 31.9794 36.6536 31.995C37.8691 32.0127 38.9241 31.5831 39.3215 30.2339C39.4389 29.8425 39.7824 29.6469 40.1906 29.641C40.5987 29.6351 40.9236 29.8318 41.0714 30.2173C41.1694 30.4578 41.217 30.7159 41.2113 30.9755C41.1585 31.8962 41.0733 32.815 41.0009 33.7552ZM10.88 32.9774C11.0454 33.3511 11.1462 33.6192 11.2793 33.8697C12.1601 35.5398 13.59 36.6092 15.2606 37.392C16.8774 38.1532 18.6038 38.5328 20.3497 38.8674C21.7992 39.1463 22.8101 40.017 23.1948 41.4328C23.5314 42.6656 23.7399 43.9395 23.9141 45.2075C24.0413 46.1321 24.0208 47.0773 24.0658 48.0068H25.9791C25.9791 47.8228 25.9791 47.678 25.9791 47.5322C25.9515 45.6278 26.182 43.7284 26.6642 41.8858C27.0899 40.2626 28.0999 39.2715 29.7588 38.9506C30.573 38.796 31.3932 38.6619 32.1957 38.4614C34.0924 37.9829 35.8687 37.2491 37.3113 35.8686C37.9988 35.211 38.5316 34.4089 38.8713 33.5204C38.5297 33.6241 38.2714 33.7161 38.0052 33.7826C36.5283 34.1524 35.0691 33.9783 33.6128 33.6398C32.3513 33.3462 31.0908 33.1369 29.8048 33.4793C28.0432 33.9489 26.8218 35.0722 25.9723 36.6425C25.7765 37.0035 25.5436 37.2814 25.1042 37.3411C24.4191 37.4389 24.0276 37.2432 23.7203 36.619C22.3746 33.9235 20.0013 32.6868 17.0653 33.1838C15.0267 33.5302 12.9949 33.9284 10.88 32.9793V32.9774ZM24.8752 34.5193C25.5553 33.9157 26.2903 33.2327 27.0635 32.5977C27.2945 32.407 27.3845 32.2524 27.3571 31.9579C27.2065 30.0266 26.7537 28.1308 26.0153 26.3398C25.7266 25.6471 25.3792 24.9779 25.019 24.2137C23.5236 26.7361 22.7201 29.3279 22.5939 32.1242C22.595 32.2628 22.6489 32.3957 22.7446 32.496C23.4698 33.1965 24.2018 33.8814 24.8781 34.5213L24.8752 34.5193Z" fill="white"/>
<path d="M16.7996 4.79455C16.7996 5.04903 16.7 5.29341 16.522 5.47526C16.344 5.65712 16.1018 5.76198 15.8473 5.76736C15.5935 5.76455 15.3504 5.6644 15.1683 5.48756C14.9862 5.31072 14.8789 5.0707 14.8687 4.81706C14.8773 4.56343 14.9807 4.32226 15.1585 4.1411C15.3362 3.95994 15.5753 3.85193 15.8287 3.83838C16.0818 3.84441 16.3231 3.94664 16.5034 4.12428C16.6838 4.30191 16.7897 4.54159 16.7996 4.79455Z" fill="white"/>
<path d="M38.0096 23.4126C38.0074 23.6655 37.9083 23.9078 37.7328 24.0899C37.5573 24.2719 37.3187 24.3798 37.0662 24.3913C36.5465 24.403 36.0708 23.9235 36.0767 23.394C36.0784 23.2644 36.1057 23.1364 36.1572 23.0175C36.2088 22.8985 36.2834 22.791 36.3768 22.7011C36.4702 22.6112 36.5806 22.5408 36.7014 22.494C36.8223 22.4471 36.9513 22.4247 37.0808 22.4281C37.2068 22.4307 37.3309 22.4584 37.4461 22.5095C37.5612 22.5606 37.665 22.6341 37.7515 22.7258C37.8379 22.8174 37.9053 22.9253 37.9496 23.0432C37.9939 23.1612 38.0143 23.2867 38.0096 23.4126Z" fill="white"/>
</svg>
