<svg width="24" height="24" viewBox="0 0 24 24" fill="none" xmlns="http://www.w3.org/2000/svg">
<path d="M14.2969 12C14.2969 13.2684 13.2684 14.2969 12 14.2969C10.7316 14.2969 9.70312 13.2684 9.70312 12C9.70312 10.7316 10.7316 9.70312 12 9.70312C13.2684 9.70312 14.2969 10.7316 14.2969 12Z" fill="#CDD5E0"/>
<path d="M17.3715 7.93596C17.2608 7.6369 17.0851 7.36596 16.8559 7.14377C16.6337 6.91502 16.3627 6.73877 16.0637 6.62815C15.8208 6.53393 15.4562 6.42143 14.7844 6.39096C14.0579 6.35768 13.8399 6.35065 12.0001 6.35065C10.1602 6.35065 9.94224 6.35768 9.21568 6.39096C8.54396 6.4219 8.1788 6.53393 7.93646 6.62815C7.63693 6.73877 7.36646 6.91455 7.14427 7.14377C6.91552 7.36596 6.73927 7.6369 6.62864 7.93596C6.53442 8.17877 6.42192 8.54346 6.39146 9.21564C6.35817 9.9422 6.35114 10.1602 6.35114 12C6.35114 13.8399 6.35817 14.0578 6.39146 14.7844C6.42192 15.4561 6.53442 15.8208 6.62864 16.0636C6.73927 16.3631 6.91505 16.6336 7.14427 16.8558C7.36646 17.0845 7.63739 17.2608 7.93646 17.3714C8.17927 17.4661 8.54396 17.5781 9.21615 17.6086C9.94271 17.6419 10.1602 17.6489 12.0005 17.6489C13.8408 17.6489 14.0588 17.6419 14.7849 17.6086C15.4566 17.5781 15.8218 17.4656 16.0646 17.3714C16.6655 17.1394 17.1404 16.6645 17.3724 16.0636C17.4666 15.8208 17.5791 15.4561 17.6096 14.7844C17.6429 14.0578 17.6499 13.8399 17.6499 12C17.6499 10.1602 17.6429 9.9422 17.6096 9.21564C17.5782 8.54392 17.4662 8.17877 17.3715 7.93596ZM12.0001 15.5381C10.0458 15.5381 8.46146 13.9542 8.46146 12C8.46146 10.0458 10.0458 8.46189 12.0001 8.46189C13.9543 8.46189 15.5382 10.0458 15.5382 12C15.5382 13.9542 13.9543 15.5381 12.0001 15.5381ZM15.6783 9.14861C15.2218 9.14861 14.8515 8.7783 14.8515 8.32174C14.8515 7.86518 15.2218 7.49486 15.6783 7.49486C16.1349 7.49486 16.5052 7.86518 16.5052 8.32174C16.5052 8.7783 16.1349 9.14861 15.6783 9.14861Z" fill="#CDD5E0"/>
<path d="M12 0C5.37375 0 0 5.37375 0 12C0 18.6262 5.37375 24 12 24C18.6262 24 24 18.6262 24 12C24 5.37375 18.6262 0 12 0ZM18.8489 14.8411C18.8156 15.5747 18.6989 16.0753 18.5287 16.5136C18.1706 17.4394 17.4389 18.1711 16.5136 18.5287C16.0753 18.6989 15.5742 18.8156 14.8411 18.8489C14.1061 18.8827 13.8717 18.8906 12 18.8906C10.1283 18.8906 9.89391 18.8827 9.15891 18.8489C8.42578 18.8156 7.92469 18.6989 7.48641 18.5287C7.02656 18.3558 6.60984 18.0844 6.26578 17.7337C5.91516 17.3897 5.64422 16.973 5.47125 16.5131C5.30109 16.0748 5.18437 15.5738 5.15109 14.8406C5.11734 14.1061 5.10938 13.8713 5.10938 12C5.10938 10.1287 5.11734 9.89391 5.15109 9.15891C5.18437 8.42531 5.30109 7.92469 5.47125 7.48641C5.64422 7.02656 5.91562 6.60984 6.26625 6.26578C6.61031 5.91516 7.02703 5.64375 7.48688 5.47078C7.92516 5.30062 8.42625 5.18391 9.15937 5.15062C9.89437 5.11734 10.1288 5.10891 12.0005 5.10891C13.8722 5.10891 14.1066 5.11687 14.8416 5.15062C15.5752 5.18391 16.0758 5.30062 16.5141 5.47031C16.9739 5.64328 17.3906 5.91469 17.7347 6.26531C18.0853 6.60938 18.3567 7.02609 18.5292 7.48594C18.6998 7.92422 18.8161 8.42531 18.8498 9.15844C18.8831 9.89344 18.8911 10.1278 18.8911 11.9995C18.8911 13.8713 18.8827 14.1061 18.8489 14.8411Z" fill="#CDD5E0"/>
</svg>
