<svg width="30" height="30" viewBox="0 0 30 30" fill="none" xmlns="http://www.w3.org/2000/svg">
<path d="M17.8711 15C17.8711 16.5855 16.5855 17.8711 15 17.8711C13.4145 17.8711 12.1289 16.5855 12.1289 15C12.1289 13.4145 13.4145 12.1289 15 12.1289C16.5855 12.1289 17.8711 13.4145 17.8711 15Z" fill="#F8B32D"/>
<path d="M21.7143 9.91995C21.5761 9.54612 21.3563 9.20745 21.0698 8.92971C20.7921 8.64378 20.4534 8.42346 20.0796 8.28518C19.7761 8.16741 19.3202 8.02678 18.4806 7.9887C17.5723 7.9471 17.2999 7.93831 15.0001 7.93831C12.7003 7.93831 12.4278 7.9471 11.5196 7.9887C10.6799 8.02737 10.2235 8.16741 9.92057 8.28518C9.54616 8.42346 9.20807 8.64319 8.93034 8.92971C8.6444 9.20745 8.42409 9.54612 8.2858 9.91995C8.16803 10.2235 8.02741 10.6793 7.98932 11.5196C7.94772 12.4278 7.93893 12.7002 7.93893 15C7.93893 17.2998 7.94772 17.5723 7.98932 18.4805C8.02741 19.3201 8.16803 19.776 8.2858 20.0795C8.42409 20.4539 8.64381 20.792 8.93034 21.0697C9.20807 21.3557 9.54674 21.576 9.92057 21.7143C10.2241 21.8326 10.6799 21.9727 11.5202 22.0107C12.4284 22.0523 12.7003 22.0611 15.0007 22.0611C17.3011 22.0611 17.5735 22.0523 18.4811 22.0107C19.3208 21.9727 19.7772 21.832 20.0807 21.7143C20.8319 21.4242 21.4255 20.8307 21.7155 20.0795C21.8333 19.776 21.9739 19.3201 22.012 18.4805C22.0536 17.5723 22.0624 17.2998 22.0624 15C22.0624 12.7002 22.0536 12.4278 22.012 11.5196C21.9727 10.6799 21.8327 10.2235 21.7143 9.91995ZM15.0001 19.4227C12.5573 19.4227 10.5768 17.4428 10.5768 15C10.5768 12.5572 12.5573 10.5774 15.0001 10.5774C17.4429 10.5774 19.4227 12.5572 19.4227 15C19.4227 17.4428 17.4429 19.4227 15.0001 19.4227ZM19.5979 11.4358C19.0272 11.4358 18.5643 10.9729 18.5643 10.4022C18.5643 9.83147 19.0272 9.36858 19.5979 9.36858C20.1686 9.36858 20.6315 9.83147 20.6315 10.4022C20.6315 10.9729 20.1686 11.4358 19.5979 11.4358Z" fill="#F8B32D"/>
<path d="M15 0C6.71719 0 0 6.71719 0 15C0 23.2828 6.71719 30 15 30C23.2828 30 30 23.2828 30 15C30 6.71719 23.2828 0 15 0ZM23.5611 18.5514C23.5195 19.4684 23.3736 20.0941 23.1609 20.642C22.7133 21.7992 21.7986 22.7139 20.642 23.1609C20.0941 23.3736 19.4678 23.5195 18.5514 23.5611C17.6326 23.6033 17.3396 23.6133 15 23.6133C12.6604 23.6133 12.3674 23.6033 11.4486 23.5611C10.5322 23.5195 9.90586 23.3736 9.35801 23.1609C8.7832 22.9447 8.2623 22.6055 7.83223 22.1672C7.39395 21.7371 7.05527 21.2162 6.83906 20.6414C6.62637 20.0936 6.48047 19.4672 6.43887 18.5508C6.39668 17.6326 6.38672 17.3391 6.38672 15C6.38672 12.6609 6.39668 12.3674 6.43887 11.4486C6.48047 10.5316 6.62637 9.90586 6.83906 9.35801C7.05527 8.7832 7.39453 8.2623 7.83281 7.83223C8.26289 7.39395 8.78379 7.05469 9.35859 6.83848C9.90645 6.62578 10.5328 6.47988 11.4492 6.43828C12.368 6.39668 12.6609 6.38613 15.0006 6.38613C17.3402 6.38613 17.6332 6.39609 18.552 6.43828C19.4689 6.47988 20.0947 6.62578 20.6426 6.83789C21.2174 7.0541 21.7383 7.39336 22.1684 7.83164C22.6066 8.26172 22.9459 8.78262 23.1615 9.35742C23.3748 9.90527 23.5201 10.5316 23.5623 11.448C23.6039 12.3668 23.6139 12.6598 23.6139 14.9994C23.6139 17.3391 23.6033 17.6326 23.5611 18.5514Z" fill="#F8B32D"/>
</svg>
