<svg width="24" height="24" viewBox="0 0 24 24" fill="none" xmlns="http://www.w3.org/2000/svg">
<path fill-rule="evenodd" clip-rule="evenodd" d="M24 12C24 18.6274 18.6274 24 12 24C5.37256 24 0 18.6274 0 12C0 5.37256 5.37256 0 12 0C18.6274 0 24 5.37256 24 12ZM17.061 7.2793L5.49084 11.7402C4.69769 12.0508 4.71179 12.4893 5.35492 12.6938L8.31696 13.6177L15.187 9.29102C15.5062 9.0791 15.8019 9.19922 15.5601 9.41211L10.0002 14.4351L9.78741 17.4883C10.0977 17.4883 10.2327 17.353 10.3926 17.1934L11.8396 15.7993L14.8396 18.0103C15.3866 18.3203 15.778 18.1602 15.9238 17.5024L17.894 8.22168C18.067 7.41016 17.5982 7.08496 17.061 7.2793Z" fill="#CDD5E0"/>
</svg>
