<svg width="93" height="50" viewBox="0 0 93 50" fill="none" xmlns="http://www.w3.org/2000/svg">
<path d="M0.599392 4.20081C0.434155 4.42206 0.479562 4.73537 0.700812 4.90061L4.30628 7.5933C4.52753 7.75854 4.84084 7.71313 5.00608 7.49188C5.17131 7.27063 5.12591 6.95732 4.90466 6.79208L1.6998 4.39858L4.0933 1.19372C4.25854 0.972469 4.21313 0.65916 3.99188 0.493923C3.77063 0.328686 3.45732 0.374093 3.29208 0.595343L0.599392 4.20081ZM43 15.5L42.5473 15.7122L43 15.5ZM1.07171 4.99483C1.93982 4.86902 2.88359 4.75188 3.88917 4.64848L3.78689 3.65372C2.76834 3.75846 1.81083 3.87726 0.928285 4.00517L1.07171 4.99483ZM9.57812 4.26196C11.4065 4.19857 13.3243 4.18949 15.2796 4.25342L15.3123 3.25395C13.3328 3.18923 11.3925 3.19846 9.54347 3.26256L9.57812 4.26196ZM20.9608 4.65512C22.8594 4.86724 24.7446 5.16285 26.5709 5.558L26.7824 4.58062C24.9184 4.1773 22.9992 3.87664 21.0718 3.6613L20.9608 4.65512ZM32.0082 7.12513C33.839 7.8095 35.5343 8.63398 37.0358 9.61828L37.584 8.78197C36.0091 7.74954 34.2448 6.89361 32.3584 6.18844L32.0082 7.12513ZM41.1199 13.3522C41.6732 14.0837 42.1521 14.8691 42.5473 15.7122L43.4527 15.2878C43.0268 14.3792 42.5114 13.5341 41.9174 12.7489L41.1199 13.3522ZM42.5473 15.7122C42.9246 16.5172 43.3117 17.3506 43.7119 18.2086L44.6182 17.786C44.2189 16.9298 43.8306 16.0939 43.4527 15.2878L42.5473 15.7122ZM46.0923 23.2092C46.8896 24.8318 47.7362 26.4875 48.6419 28.1387L49.5187 27.6577C48.622 26.0231 47.7825 24.3813 46.9897 22.7682L46.0923 23.2092ZM51.4722 32.9254C52.4759 34.4901 53.5461 36.0175 54.6922 37.4728L55.4778 36.8541C54.3547 35.428 53.3031 33.9275 52.3139 32.3855L51.4722 32.9254ZM58.4193 41.6377C59.7677 42.9489 61.2083 44.1478 62.7515 45.1956L63.3132 44.3682C61.8239 43.3571 60.4282 42.1964 59.1164 40.9207L58.4193 41.6377ZM67.7058 47.8489C69.4088 48.5324 71.2158 49.0367 73.1352 49.3278L73.2851 48.3391C71.4438 48.0599 69.7115 47.5763 68.0783 46.9209L67.7058 47.8489ZM78.7497 49.5614C80.5168 49.4519 82.3641 49.1747 84.2963 48.7117L84.0633 47.7392C82.1837 48.1896 80.3937 48.4576 78.6879 48.5633L78.7497 49.5614ZM89.6254 47.0353C90.4705 46.709 91.3303 46.3496 92.2052 45.956L91.7948 45.044C90.9359 45.4306 90.0928 45.7829 89.2652 46.1024L89.6254 47.0353Z" fill="#0B3438"/>
</svg>
