<svg width="30" height="30" viewBox="0 0 30 30" fill="none" xmlns="http://www.w3.org/2000/svg">
<path fill-rule="evenodd" clip-rule="evenodd" d="M30 15C30 23.2843 23.2843 30 15 30C6.7157 30 0 23.2843 0 15C0 6.7157 6.7157 0 15 0C23.2843 0 30 6.7157 30 15ZM21.3262 9.09912L6.86356 14.6753C5.87212 15.0635 5.88974 15.6116 6.69365 15.8673L10.3962 17.0221L18.9837 11.6138C19.3827 11.3489 19.7524 11.499 19.4501 11.7651L12.5002 18.0438L12.2343 21.8604C12.6221 21.8604 12.7909 21.6913 12.9907 21.4917L14.7995 19.7491L18.5495 22.5128C19.2332 22.9004 19.7225 22.7002 19.9048 21.8781L22.3675 10.2771C22.5837 9.2627 21.9978 8.8562 21.3262 9.09912Z" fill="#00B5D6"/>
</svg>
