<svg width="21" height="21" viewBox="0 0 21 21" fill="none" xmlns="http://www.w3.org/2000/svg">
<path fill-rule="evenodd" clip-rule="evenodd" d="M9.11211 0.054907C5.51766 0.575276 2.51435 2.76514 0.988131 5.97842C0.568444 6.862 0.292157 7.73779 0.0927784 8.81643C-0.0309261 9.48591 -0.0309261 11.5032 0.0927784 12.1727C0.522733 14.4987 1.47164 16.3388 3.06045 17.9274C4.64319 19.51 6.51189 20.4754 8.79124 20.8882C9.38849 20.9964 10.9711 21.0369 11.6335 20.961C14.5504 20.6269 17.1938 19.1154 18.9223 16.7934C19.9423 15.4232 20.5635 13.9692 20.886 12.1974C21.0139 11.4943 21.039 10.015 20.9367 9.21129C20.3551 4.64248 16.9451 1.00853 12.4331 0.149228C11.8566 0.0394583 11.5876 0.0172478 10.6671 0.00337852C9.92438 -0.00777612 9.43282 0.00851157 9.11211 0.054907ZM10.8784 4.25354C11.1218 4.35517 11.3253 4.55191 11.4373 4.79385C11.5223 4.97741 11.5288 5.16117 11.5299 7.40976L11.5311 9.82825L13.4265 10.777C15.0406 11.585 15.3476 11.7559 15.4958 11.9289C15.9496 12.459 15.7897 13.2237 15.1608 13.5313C14.6794 13.7668 14.6725 13.7645 12.1595 12.5122C10.6821 11.776 9.88469 11.3514 9.76839 11.2392C9.44778 10.9294 9.45765 11.0372 9.45765 7.85358C9.45765 5.10579 9.46229 4.95362 9.55183 4.77954C9.81173 4.27442 10.3846 4.04728 10.8784 4.25354Z" fill="#F8B32D"/>
</svg>
