<svg width="17" height="19" viewBox="0 0 17 19" fill="none" xmlns="http://www.w3.org/2000/svg">
<path fill-rule="evenodd" clip-rule="evenodd" d="M5.8955 0.313156C4.56319 0.779288 3.42682 1.55733 2.46388 2.66276C1.79769 3.42752 1.2833 4.24118 0.873965 5.17775L0.662102 5.66254H2.38925H4.11642L4.13236 5.57281C4.51427 3.42058 5.23085 1.56993 6.09 0.51675C6.25054 0.319936 6.36863 0.160012 6.35239 0.161289C6.33615 0.162565 6.13054 0.230921 5.8955 0.313156ZM10.2845 0.519581C11.1391 1.56714 11.8548 3.41703 12.2397 5.57281L12.2558 5.66254H13.9819H15.7081L15.5342 5.25835C14.8897 3.76021 13.9019 2.45215 12.7278 1.5421C12.005 0.981925 11.2403 0.566601 10.4312 0.294811C10.2088 0.220073 10.0186 0.158936 10.0085 0.158936C9.99851 0.158936 10.1227 0.321212 10.2845 0.519581ZM7.77505 0.648518C6.82593 1.02603 5.89143 2.72202 5.38394 4.98799C5.30822 5.32611 5.2462 5.6162 5.2461 5.63263C5.246 5.64907 6.569 5.66254 8.1861 5.66254C9.80319 5.66254 11.1262 5.64907 11.1261 5.63263C11.126 5.6162 11.064 5.32611 10.9882 4.98799C10.3995 2.35898 9.2516 0.552484 8.17396 0.558785C8.07721 0.559343 7.89772 0.599743 7.77505 0.648518ZM0.277076 6.96865C0.245213 7.02959 0.0870592 7.92824 0.0436746 8.29471C0.0179994 8.51182 -0.000633101 9.03115 1.6471e-05 9.51108C0.00124724 10.4013 0.0500336 10.9327 0.195845 11.6447L0.273452 12.0236L2.11396 12.0339L3.95451 12.0442L3.93475 11.9143C3.79256 10.9786 3.79253 8.00405 3.93472 7.06836L3.95441 6.93874H2.12354C1.1166 6.93874 0.285657 6.95222 0.277076 6.96865ZM5.01071 7.34753C4.945 8.01857 4.90466 8.83422 4.90466 9.49114C4.90466 10.1481 4.945 10.9637 5.01071 11.6348L5.05075 12.0435H8.1861H11.3214L11.3615 11.6348C11.5003 10.2172 11.5003 8.76506 11.3615 7.34753L11.3214 6.93874H8.1861H5.05075L5.01071 7.34753ZM12.4374 7.068C12.5786 7.99715 12.5796 10.8276 12.4391 11.8943L12.4193 12.0442L14.259 12.0339L16.0987 12.0236L16.1763 11.6447C16.3246 10.921 16.3715 10.4033 16.3715 9.49114C16.3715 8.57898 16.3246 8.06132 16.1763 7.33756L16.0987 6.95868L14.2582 6.94836L12.4177 6.93807L12.4374 7.068ZM0.837999 13.7239C1.22778 14.63 1.7089 15.4161 2.32015 16.1457C2.79451 16.7119 3.12449 17.0334 3.65619 17.4473C4.34695 17.9852 5.12583 18.4101 5.89013 18.666C6.09051 18.7331 6.28524 18.7986 6.32285 18.8115C6.36118 18.8247 6.25988 18.6739 6.09235 18.4685C5.22699 17.4074 4.54227 15.6396 4.1329 13.4095L4.11642 13.3197H2.39027H0.664119L0.837999 13.7239ZM5.2461 13.3497C5.2462 13.3661 5.30822 13.6562 5.38394 13.9943C5.97006 16.6113 7.1169 18.4245 8.1861 18.4245C9.29068 18.4245 10.4386 16.5518 11.0386 13.7712C11.0868 13.5478 11.1263 13.3549 11.1263 13.3424C11.1263 13.3299 9.80319 13.3197 8.1861 13.3197C6.569 13.3197 5.246 13.3332 5.2461 13.3497ZM12.2393 13.4095C11.8308 15.6348 11.1448 17.4081 10.2845 18.4627C10.1227 18.6611 9.99851 18.8233 10.0085 18.8233C10.0186 18.8233 10.2128 18.7609 10.4402 18.6845C11.3988 18.3627 12.3251 17.8173 13.1775 17.0731C13.4949 16.796 14.2048 15.9966 14.5007 15.5831C14.8189 15.1384 15.256 14.3588 15.4995 13.8016L15.7101 13.3197H13.9829H12.2558L12.2393 13.4095Z" fill="#F8B32D"/>
</svg>
